<svg xmlns="http://www.w3.org/2000/svg" id="svg0.1746743511567217" viewBox="0 0 1024 1024"><path d="M0 0 C337.92 0 675.84 0 1024 0 C1024 337.92 1024 675.84 1024 1024 C686.08 1024 348.16 1024 0 1024 C0 686.08 0 348.16 0 0 Z " transform="translate(0,0)" style="fill: #EBEBEA;"/><path d="M0 0 C2.99804556 3.95881203 4.85157235 7.78655558 6.4375 12.47265625 C6.85773438 13.70306641 7.27796875 14.93347656 7.7109375 16.20117188 C8.14067486 17.4882646 8.5703622 18.77537404 9 20.0625 C9.42539062 21.30966797 9.85078125 22.55683594 10.2890625 23.84179688 C13.00501695 31.85219627 15.54526062 39.90633579 18 48 C24.57657999 69.48859277 31.57092679 90.79112548 39 112 C43.30525319 111.16161758 45.05481873 109.19367664 48.0625 106 C51.70103872 102.14807329 53.59015614 100.30763964 58.9375 99.625 C68.60779684 99.80822668 78.46691164 106.44594333 86 112 C86.53157715 112.57419678 87.0631543 113.14839355 87.61083984 113.73999023 C93.71641742 120.07877259 99.61944315 120.12436268 108.125 120.3125 C110.60697928 120.40746042 113.08876186 120.50771108 115.5703125 120.61328125 C116.79854736 120.66387695 118.02678223 120.71447266 119.29223633 120.76660156 C125.25309456 121.14182909 131.10922482 122.03970441 137 123 C137.86915039 123.1347876 138.73830078 123.2695752 139.63378906 123.40844727 C169.95333537 128.2774391 202.45494683 142.56197131 221.59765625 167.50390625 C228.03212187 176.51530072 232.75753022 186.4435501 236 197 C236.79664063 196.95359375 237.59328125 196.9071875 238.4140625 196.859375 C243.1411056 196.6983565 246.95661119 196.57491567 251.375 198.375 C255.14704535 202.14704535 257.5273499 206.29997608 260 211 C260.49113281 211.88300781 260.98226563 212.76601563 261.48828125 213.67578125 C264.90932819 220.33477684 266.49889806 226.53740114 265 234 C262.92736466 238.0603846 260.29349592 240.30813009 256.3125 242.4375 C253.20193011 242.96570998 250.4391375 243.05605331 247.29296875 243.03515625 C246.30192139 243.03008057 245.31087402 243.02500488 244.28979492 243.01977539 C243.5341626 243.01324951 242.77853027 243.00672363 242 243 C241.93149338 243.72709167 241.86298676 244.45418335 241.79240417 245.20330811 C241.13288483 252.19964023 240.47159828 259.19580284 239.80852795 266.19179916 C239.46804175 269.78484485 239.12814159 273.37794356 238.78979492 276.97119141 C237.29544514 292.83666341 235.73467913 308.68973037 234.00881958 324.53208923 C233.06095809 333.28463095 232.26285791 342.03684485 231.5625 350.8125 C230.62189721 362.28441654 229.53378999 373.73186585 228.31610107 385.17755127 C226.37877677 403.39679247 224.85604045 421.63443731 223.43432617 439.90063477 C222.50827798 451.77738666 221.52022075 463.64234618 220.375 475.5 C219.42219623 485.36743517 218.57109501 495.23283514 217.84155273 505.11914062 C216.96927695 516.75421705 215.95012157 528.37644173 214.9375 540 C214.84937042 541.0143512 214.76124084 542.02870239 214.67044067 543.0737915 C214.41530178 546.00760648 214.15907158 548.94132368 213.90234375 551.875 C213.82635956 552.74704071 213.75037537 553.61908142 213.67208862 554.51754761 C213.45271562 557.01214661 213.22801154 559.50617636 213 562 C212.876605 563.3638105 212.876605 563.3638105 212.75071716 564.75517273 C212.6665303 565.64767227 212.58234344 566.54017181 212.49560547 567.4597168 C212.42058807 568.2643486 212.34557068 569.06898041 212.26828003 569.897995 C211.94585592 572.42422514 211.28869239 574.51798358 210.1875 576.8125 C209.71376953 577.84310547 209.71376953 577.84310547 209.23046875 578.89453125 C208 581 208 581 206.01147461 582.84814453 C202.87947586 587.75579156 202.98437341 592.8166252 202.5859375 598.53515625 C202.48536041 599.76479599 202.38478333 600.99443573 202.28115845 602.26133728 C202.01626802 605.52904805 201.76616948 608.7974268 201.52410889 612.06689453 C201.1822518 616.64215413 200.81507656 621.21543552 200.44741821 625.78868103 C200.25355356 628.21796518 200.06612424 630.64777483 199.88632202 633.07814026 C198.09058886 656.26985845 198.09058886 656.26985845 191 663 C182.34763838 669.57985092 172.41528287 668.71538782 162.10717773 668.6628418 C160.19913739 668.67126459 158.29110537 668.68179396 156.38308716 668.69425964 C151.22399998 668.72122517 146.06539802 668.71662938 140.9062717 668.70455909 C136.59205652 668.69740995 132.27793005 668.70593893 127.96372181 668.71446449 C117.78473334 668.73438965 107.6059799 668.7288767 97.42700195 668.70678711 C86.93850852 668.68441212 76.45063023 668.70204211 65.96219486 668.73983639 C56.9419221 668.77109422 47.92183952 668.77897944 38.90151936 668.76788265 C33.52058841 668.76140449 28.14001251 668.76335594 22.75912285 668.78720665 C17.7002137 668.80849063 12.64217159 668.80043908 7.5833168 668.77011299 C5.73104138 668.76379731 3.8786983 668.76761804 2.02647209 668.78252411 C-14.85711912 668.90734775 -14.85711912 668.90734775 -21.45286465 663.57873249 C-28.27239681 656.61992506 -29.30739322 648.94113635 -30 639.66015625 C-30.08121094 638.66100693 -30.16242188 637.6618576 -30.24609375 636.63243103 C-30.50446137 633.44297283 -30.7529365 630.25285215 -31 627.0625 C-32.24758379 610.65469009 -32.24758379 610.65469009 -33.90625 594.28515625 C-34.03322266 593.16375244 -34.16019531 592.04234863 -34.29101562 590.88696289 C-35.28574428 586.83645796 -37.29213177 584.46515226 -40.34375 581.7109375 C-43.86387452 578.07458246 -44.33450595 573.55814134 -44.83789062 568.69116211 C-44.97142944 567.43472397 -45.10496826 566.17828583 -45.24255371 564.8837738 C-45.38061141 563.51497981 -45.51850573 562.14616932 -45.65625 560.77734375 C-45.80491885 559.35260106 -45.9542225 557.92792448 -46.10412598 556.50331116 C-46.49778354 552.74530803 -46.88263094 548.98645256 -47.26568604 545.22735596 C-47.64956363 541.47587491 -48.04201028 537.72529241 -48.43359375 533.97460938 C-49.22588207 526.36704142 -50.01035571 518.75871239 -50.78178596 511.14899826 C-50.93140779 509.6755044 -51.08161877 508.20207028 -51.23232841 506.72868729 C-52.53464682 493.99006607 -53.71885593 481.2431744 -54.84765816 468.48806763 C-55.1366055 465.22556791 -55.42730718 461.9632286 -55.7184906 458.70092773 C-56.54465663 449.44342637 -57.36909073 440.18577361 -58.18920898 430.92773438 C-58.69454553 425.22455844 -59.20295435 419.52166347 -59.71336174 413.81893921 C-59.90630084 411.65646691 -60.09806868 409.49388977 -60.28863716 407.33120728 C-60.55353759 404.32600679 -60.82233672 401.32117886 -61.09204102 398.31640625 C-61.1694603 397.4271344 -61.24687958 396.53786255 -61.3266449 395.62164307 C-61.40085663 394.8036322 -61.47506836 393.98562134 -61.55152893 393.14282227 C-61.6143786 392.43505142 -61.67722826 391.72728058 -61.74198246 390.99806213 C-62.00773801 388.94007763 -62.48535859 387.00829986 -63 385 C-63.18897866 383.11508128 -63.33987792 381.22617957 -63.46484375 379.3359375 C-63.54283203 378.211875 -63.62082031 377.0878125 -63.70117188 375.9296875 C-63.85508695 373.61460122 -64.00874582 371.29949788 -64.16210938 368.984375 C-64.6696706 361.67219218 -65.36508596 354.40428993 -66.19760132 347.12380981 C-67.15633411 338.72261702 -67.98644097 330.30990604 -68.80493164 321.89404297 C-69.063695 319.23773285 -69.32570765 316.58175577 -69.58789062 313.92578125 C-70.31919638 306.4612114 -71.02715064 299.00362669 -71.53125 291.51953125 C-71.96288414 285.12984634 -72.65034601 278.79227969 -73.4375 272.4375 C-73.56874268 271.35702393 -73.69998535 270.27654785 -73.83520508 269.16333008 C-74.65123281 262.53678559 -75.55110396 255.93861488 -76.66796875 249.35546875 C-77 247 -77 247 -77 243 C-77.94101562 243.03480469 -78.88203125 243.06960938 -79.8515625 243.10546875 C-81.09679687 243.13253906 -82.34203125 243.15960938 -83.625 243.1875 C-84.85476563 243.22230469 -86.08453125 243.25710938 -87.3515625 243.29296875 C-92.58867273 242.87242992 -95.80288878 241.32652864 -99.3125 237.4375 C-102.6082015 232.67704228 -102.57923737 228.69080599 -102 223 C-101.01152734 219.5813082 -99.59437819 216.48836471 -98 213.3125 C-97.58919189 212.48250488 -97.17838379 211.65250977 -96.75512695 210.79736328 C-90.93783407 199.512555 -90.93783407 199.512555 -85 197 C-80.97311139 196.22044203 -77.09701594 195.95220148 -73 196 C-72.93039062 195.19175781 -72.86078125 194.38351562 -72.7890625 193.55078125 C-71.75864821 188.91391696 -69.71815259 185.28823074 -67.375 181.1875 C-66.91915527 180.3836084 -66.46331055 179.5797168 -65.99365234 178.75146484 C-62.74163105 173.10430406 -59.41368482 167.82137458 -55 163 C-53.72769531 161.6078125 -53.72769531 161.6078125 -52.4296875 160.1875 C-36.31180537 143.10320574 -16.14192066 132.60282783 5 123 C3.8446972 112.37121429 -0.18492248 102.36436957 -3.58407593 92.28659058 C-7.1798649 81.61612558 -10.70215736 70.94411723 -13.86035156 60.13452148 C-15.78251946 53.60260775 -17.9013473 47.1439562 -20.0625 40.6875 C-20.40168457 39.67042969 -20.74086914 38.65335938 -21.09033203 37.60546875 C-22.57087995 33.18471837 -24.06923185 28.77437367 -25.65625 24.390625 C-25.89722412 23.71169189 -26.13819824 23.03275879 -26.38647461 22.33325195 C-27.00754623 20.59160473 -27.64554358 18.85601757 -28.28515625 17.12109375 C-29.13987151 13.38930417 -28.88193719 10.71129913 -28 7 C-21.62337438 0.95898625 -8.46963612 -2.42970112 0 0 Z " transform="translate(427,174)" style="fill: #070707;"/><path d="M0 0 C92.07 0 184.14 0 279 0 C278.67 2.31 278.34 4.62 278 7 C277.80552388 9.68569502 277.63588801 12.36245705 277.5 15.05078125 C277.41672885 16.56836279 277.3333937 18.08594082 277.25 19.60351562 C277.12356993 21.97136321 276.99860224 24.33927849 276.875 26.70727539 C276.75371832 29.00949541 276.62712943 31.31137788 276.5 33.61328125 C276.44682617 34.68042107 276.44682617 34.68042107 276.39257812 35.76911926 C276.11313806 40.77372389 276.11313806 40.77372389 275 43 C274.80152862 44.6724911 274.6550481 46.35129664 274.53515625 48.03125 C274.45716797 49.07152344 274.37917969 50.11179687 274.29882812 51.18359375 C274.22083984 52.27800781 274.14285156 53.37242187 274.0625 54.5 C273.53177391 61.89324518 272.87666383 69.25161719 272.01953125 76.61328125 C271.00424164 85.42254072 270.36949914 94.2372269 269.79534912 103.08465576 C268.77258059 118.71201652 267.48526208 134.29716032 265.875 149.875 C265.78873352 150.71791595 265.70246704 151.56083191 265.61358643 152.42929077 C265.36902337 154.80489184 265.11945855 157.17989372 264.8671875 159.5546875 C264.75796967 160.60332222 264.75796967 160.60332222 264.64654541 161.67314148 C264.29878205 164.86528991 263.78558757 167.89241756 263 171 C262.86839132 172.58846255 262.77754644 174.18061701 262.71875 175.7734375 C262.68136719 176.6809375 262.64398437 177.5884375 262.60546875 178.5234375 C262.55326172 179.93496094 262.55326172 179.93496094 262.5 181.375 C262.28996886 187.00694614 262.01785332 192.44588699 261 198 C260.82866752 199.97712246 260.68489214 201.95674554 260.5625 203.9375 C259.94256305 213.11256686 259.13090225 222.26792201 258.31347656 231.42724609 C258.02198493 234.74943344 257.74063321 238.07228265 257.46261597 241.39561462 C257.21028363 244.3952921 256.95132274 247.39437858 256.69134521 250.3934021 C256.56449223 251.87284774 256.44031581 253.35252548 256.31890869 254.83242798 C256.14692008 256.92283058 255.96512851 259.01217669 255.78125 261.1015625 C255.6275293 262.91648193 255.6275293 262.91648193 255.47070312 264.76806641 C254.782581 269.49283855 254.20928403 271.98910026 250.47261906 275.1127615 C246.10832125 277.48459403 242.98856193 277.56369901 238.11192322 277.5146637 C237.22827719 277.52160922 236.34463116 277.52855475 235.43420798 277.53571075 C232.47923652 277.55397772 229.52506816 277.5437173 226.57006836 277.53344727 C224.44923807 277.54050578 222.32841282 277.54925051 220.20759583 277.55955505 C214.45151813 277.58206352 208.6957152 277.57910622 202.93961024 277.57023358 C198.13562194 277.5651259 193.33168537 277.5724143 188.52770239 277.57970566 C177.19737739 277.59670854 165.86718706 277.59313391 154.53686523 277.57641602 C142.84195111 277.55948355 131.14740993 277.57534404 119.45253652 277.6076389 C109.41417581 277.63431071 99.37593137 277.64161761 89.33753878 277.63312382 C83.34080098 277.62818892 77.34428776 277.63044121 71.34757805 277.65091133 C65.71102628 277.66923115 60.07501255 277.6633547 54.43848991 277.63871193 C52.36845164 277.63369283 50.29837263 277.63722214 48.22836685 277.64986038 C45.40531926 277.66573467 42.58405572 277.65089344 39.76109314 277.62818909 C38.93930523 277.64002482 38.11751733 277.65186054 37.27082676 277.66405493 C33.03672706 277.59472802 31.47499215 277.38298547 28.06112003 274.6303854 C23.44766468 268.74272946 22.43345583 263.68000646 21.82421875 256.4296875 C21.73397934 255.47090698 21.64373993 254.51212646 21.55076599 253.52429199 C21.25131231 250.30881986 20.96944015 247.09205155 20.6875 243.875 C20.47541003 241.55801708 20.2623306 239.24112455 20.04833984 236.92431641 C19.34753404 229.28445078 18.67250961 221.64240063 18 214 C17.76682777 211.36067148 17.5335918 208.72134859 17.30029297 206.08203125 C16.38506043 195.71796426 15.47141602 185.35375826 14.56801891 174.98865223 C13.1481913 158.70677203 11.68031766 142.43043463 10.1328125 126.16015625 C10.05421619 125.33330322 9.97561989 124.5064502 9.89464188 123.65454102 C9.12837962 115.59871186 8.35761873 107.54333094 7.57820988 99.48876286 C7.22201013 95.80389792 6.86802303 92.11882412 6.515625 88.43359375 C6.44820414 87.72872644 6.38078327 87.02385914 6.31131935 86.29763222 C5.27639425 75.42639652 4.38693304 64.54839981 3.63885498 53.65330505 C3.22550813 47.68189593 2.68982208 41.75088641 1.9375 35.8125 C0.43634631 23.82691068 0 12.10449435 0 0 Z " transform="translate(371,476)" style="fill: #402A1F;"/><path d="M0 0 C15.56956005 11.43807974 27.47052463 27.56958741 31.70703125 46.72265625 C34.85814719 70.81176569 29.60775369 91.82285774 15.1796875 111.3359375 C2.7732281 126.06318564 -15.76103309 135.82626841 -34.8203125 138.3359375 C-55.06746617 139.81863151 -73.9469317 134.54830227 -89.8828125 121.7734375 C-91.54476618 120.31240658 -93.1925184 118.83493308 -94.8203125 117.3359375 C-95.46226562 116.78550781 -96.10421875 116.23507812 -96.765625 115.66796875 C-109.11701822 104.45201751 -116.61531536 86.28620466 -118.13989258 69.90136719 C-118.2913953 66.4150689 -118.33957812 62.95042223 -118.3203125 59.4609375 C-118.31386719 58.23294434 -118.30742187 57.00495117 -118.30078125 55.73974609 C-118.11200018 46.36651756 -117.02021221 38.82792984 -112.8203125 30.3359375 C-112.25054687 29.15386719 -111.68078125 27.97179687 -111.09375 26.75390625 C-101.459507 7.93706504 -84.92053391 -4.84532576 -65.15625 -11.98828125 C-42.55380048 -18.76901611 -19.11832705 -13.31764345 0 0 Z " transform="translate(554.8203125,548.6640625)" style="fill: #E4AE71;"/><path d="M0 0 C96.36 0 192.72 0 292 0 C288 41 288 41 287 46 C193.94 46 100.88 46 5 46 C1 18 1 18 0 0 Z " transform="translate(364,417)" style="fill: #FBFBFB;"/><path d="M0 0 C68.97 0 137.94 0 209 0 C207.6965625 26.06875 207.6965625 26.06875 206.91748047 36.1328125 C206.80400272 37.6520248 206.69979165 39.17195263 206.60400391 40.69238281 C206.46065586 42.95070986 206.28816729 45.20517367 206.109375 47.4609375 C206.01624023 48.76853027 205.92310547 50.07612305 205.82714844 51.42333984 C204.77699307 55.96430092 203.244875 57.70986786 200 61 C197.00781624 62.49609188 193.93793669 62.1516383 190.65592957 62.15390015 C189.8900407 62.1582824 189.12415184 62.16266465 188.33505422 62.1671797 C185.75486119 62.18059172 183.17470234 62.18675192 180.59448242 62.19287109 C178.75010523 62.20077011 176.90572959 62.20903893 175.06135559 62.21765137 C168.99274171 62.24389255 162.92412084 62.2591801 156.85546875 62.2734375 C154.76855273 62.27879613 152.68163676 62.28417364 150.59472084 62.28956985 C141.91592984 62.31120077 133.23714072 62.3299388 124.55832958 62.34119225 C112.10856791 62.35744002 99.65911794 62.39063556 87.20947379 62.44759309 C78.46208155 62.48625243 69.71477282 62.50582013 60.96729738 62.51111281 C55.73950783 62.51477148 50.51205055 62.52684761 45.28435326 62.55921555 C40.36688898 62.58922601 35.44995926 62.59563314 30.53242302 62.58383179 C28.72682455 62.58361047 26.92120178 62.59196351 25.11568832 62.60948563 C22.65148522 62.63209993 20.18923321 62.62391993 17.72502136 62.60800171 C17.00945153 62.6218838 16.2938817 62.63576588 15.55662793 62.65006864 C11.66949078 62.58814192 10.11927137 62.09855168 7.07968616 59.58699989 C0.21389798 51.04638756 1.6434381 34.10206771 0.875 23.5625 C0.78742432 22.37865723 0.69984863 21.19481445 0.60961914 19.97509766 C0.5296167 18.82960449 0.44961426 17.68411133 0.3671875 16.50390625 C0.29612793 15.49142822 0.22506836 14.4789502 0.15185547 13.43579102 C-0.04590963 8.96127626 0 4.47888305 0 0 Z " transform="translate(407,766)" style="fill: #D8D8D7;"/><path d="M0 0 C18.11382381 13.70391382 34.14804543 33.06085687 38.52734375 55.91796875 C40.40365912 69.62950415 41.65357681 84.33203237 35.984375 97.2578125 C35.654375 98.4128125 35.324375 99.5678125 34.984375 100.7578125 C29.0456809 121.54324186 15.01422111 138.90762667 -3.80078125 149.37890625 C-14.84868162 155.40890656 -25.29788644 159.91897478 -37.8359375 161.86328125 C-40.05213569 162.15908576 -40.05213569 162.15908576 -42.015625 163.2578125 C-45.59087641 163.32869729 -49.15517283 163.25446941 -52.73046875 163.1953125 C-56.02305311 163.09466346 -56.02305311 163.09466346 -59.015625 164.2578125 C-60.89715494 163.60782943 -62.77401906 162.93940626 -64.6171875 162.1875 C-67.01307906 161.22034106 -67.01307906 161.22034106 -69.5390625 160.515625 C-83.44098567 156.42682407 -97.39198336 149.15927456 -108.015625 139.2578125 C-108.82902344 138.53464844 -109.64242188 137.81148437 -110.48046875 137.06640625 C-121.13856168 127.09805123 -128.66490296 115.18012304 -133.015625 101.2578125 C-133.32113281 100.2884375 -133.62664062 99.3190625 -133.94140625 98.3203125 C-140.98827174 74.27413644 -136.88264401 49.90936806 -125.953125 27.7578125 C-115.55398785 9.06197246 -97.02618687 -4.12693116 -77.015625 -10.7421875 C-73.0402263 -11.86932996 -69.05287015 -12.86349297 -65.015625 -13.7421875 C-63.8709375 -14.01675781 -63.8709375 -14.01675781 -62.703125 -14.296875 C-41.57722962 -17.79738673 -17.67229999 -11.79855866 0 0 Z M-101.015625 17.2578125 C-101.92828125 18.03318359 -101.92828125 18.03318359 -102.859375 18.82421875 C-111.87958698 27.00391098 -118.08894812 38.88779631 -122.015625 50.2578125 C-122.38042969 51.25039063 -122.74523437 52.24296875 -123.12109375 53.265625 C-128.38498564 72.32615419 -123.99971362 95.17641811 -114.78076172 112.16870117 C-104.32109947 130.23939221 -86.58043387 142.64724917 -66.765625 148.6953125 C-47.25078799 153.3667398 -26.79243009 149.44247912 -9.640625 139.1953125 C9.03920741 126.80374051 20.84536869 109.4726696 25.57421875 87.51953125 C28.28247192 65.9824703 24.37047129 46.89778865 11.78125 29.15234375 C-1.25744266 12.62602876 -20.03492695 0.5387212 -41.125 -2.4921875 C-63.63013512 -4.43857756 -84.18344963 1.90159281 -101.015625 17.2578125 Z " transform="translate(561.015625,536.7421875)" style="fill: #080605;"/><path d="M0 0 C46.86 0 93.72 0 142 0 C142.69137218 6.22234961 143.08530145 10.52298583 142.4765625 16.484375 C142.41093109 17.1478595 142.34529968 17.81134399 142.27767944 18.49493408 C142.13902181 19.88004116 141.99597894 21.26471601 141.84863281 22.64892578 C141.62408566 24.75859042 141.41243808 26.86924311 141.203125 28.98046875 C140.65733081 34.36967923 140.09786967 39.69084203 139 45 C129.31251525 45.03155579 119.62502735 45.05129965 109.9375 45.0625 C109.20250149 45.06335602 108.46750298 45.06421204 107.71023178 45.06509399 C82.57399346 45.09085753 57.44577932 44.87982219 32.3125 44.5 C31.5208482 44.48804218 30.7291964 44.47608437 29.91355515 44.46376419 C20.27556471 44.31743744 10.63772331 44.16300811 1 44 C-1.07471551 29.47699144 0 14.67045406 0 0 Z " transform="translate(512,418)" style="fill: #E2E2E1;"/><path d="M0 0 C41.31787766 -0.18302049 82.63570865 -0.32403119 123.9539112 -0.40852264 C128.82938222 -0.41852856 133.70485244 -0.42888311 138.58032227 -0.43945312 C139.55096051 -0.44155161 140.52159876 -0.44365009 141.52165029 -0.44581217 C157.24822206 -0.48064426 172.97456042 -0.54373256 188.70099362 -0.61722237 C204.83193022 -0.691975 220.96274439 -0.73645758 237.0938471 -0.75270796 C247.05166427 -0.76369748 257.00882179 -0.79843348 266.96643595 -0.86333174 C273.79025604 -0.90554625 280.613734 -0.91841761 287.43767526 -0.90801102 C291.37789091 -0.90287511 295.3169522 -0.91086999 299.25696373 -0.9536438 C302.86308092 -0.9925077 306.4672653 -0.99459188 310.07347051 -0.96719116 C311.99854124 -0.9621968 313.92358837 -0.99676889 315.84833115 -1.03265047 C324.02324301 -0.91863431 324.02324301 -0.91863431 326.84061491 1.73108768 C328.14705423 3.78107906 329.09649742 5.74794947 330 8 C330.598125 9.0725 331.19625 10.145 331.8125 11.25 C333 14 333 14 333 18 C221.13 18 109.26 18 -6 18 C-5.22364406 12.56550842 -4.68542447 9.73126622 -2.4375 5.0625 C-1.98246094 4.10472656 -1.52742188 3.14695312 -1.05859375 2.16015625 C-0.70925781 1.44730469 -0.35992187 0.73445313 0 0 Z " transform="translate(345,385)" style="fill: #FBFBFB;"/><path d="M0 0 C67.98 0 135.96 0 206 0 C206 0.33 206 0.66 206 1 C173 1 140 1 106 1 C106 11.56 106 22.12 106 33 C130.75 33 155.5 33 181 33 C181 33.33 181 33.66 181 34 C180.24701032 34.00238835 179.49402063 34.00477671 178.71821308 34.00723743 C160.39864941 34.0663663 142.07922072 34.1419028 123.75980091 34.23571491 C114.90067039 34.28068581 106.04158018 34.32009748 97.18237305 34.34643555 C89.46093482 34.36940517 81.73962405 34.40279154 74.01828688 34.44870156 C69.92965564 34.47264783 65.84115072 34.49136737 61.75245094 34.49761391 C57.90366985 34.50365846 54.05521205 34.52363524 50.2065506 34.55427551 C48.79446087 34.56306588 47.38232892 34.56677624 45.97021294 34.56500816 C44.04075849 34.56335517 42.11131819 34.58182295 40.18196106 34.60127258 C38.56283168 34.60818603 38.56283168 34.60818603 36.91099262 34.61523914 C33.55056342 35.05940434 31.65094281 35.89786966 29 38 C28.41657647 41.54230809 28.41657647 41.54230809 29 45 C31.78816707 47.78816707 34.37909127 47.30723087 38.11181641 47.31884766 C38.84362625 47.32889328 39.5754361 47.3389389 40.329422 47.34928894 C42.75346068 47.38023236 45.17738838 47.39718674 47.6015625 47.4140625 C49.28023237 47.43276521 50.95889275 47.45233794 52.63754272 47.4727478 C57.05979835 47.52416995 61.48208449 47.56374152 65.90447998 47.60089111 C70.41556407 47.64086774 74.92652013 47.69198892 79.4375 47.7421875 C88.29157686 47.83906607 97.14572584 47.92343249 106 48 C106 52.29 106 56.58 106 61 C93.56960837 61.11582432 81.139345 61.20468044 68.70852375 61.25906086 C62.93642944 61.28516017 57.16470417 61.32056517 51.39282227 61.37719727 C45.82313088 61.43150385 40.25379457 61.46141801 34.68385887 61.47438622 C32.55833534 61.48362843 30.43283135 61.50167637 28.30745888 61.52865028 C25.33125362 61.56492194 22.3565175 61.56994605 19.38012695 61.56762695 C18.06058517 61.59459152 18.06058517 61.59459152 16.71438599 61.62210083 C12.27928423 61.5846804 10.55939875 61.445941 6.97624207 58.58952332 C0.27281339 49.80583981 1.64909961 33.15623711 0.875 22.5 C0.78742432 21.30777832 0.69984863 20.11555664 0.60961914 18.88720703 C0.5296167 17.73849121 0.44961426 16.58977539 0.3671875 15.40625 C0.29612793 14.38853516 0.22506836 13.37082031 0.15185547 12.32226562 C-0.03570667 8.21881621 0 4.10773377 0 0 Z " transform="translate(407,767)" style="fill: #FAFBFA;"/><path d="M0 0 C0.9080738 -0.00692464 1.8161476 -0.01384928 2.75173879 -0.02098376 C4.26555988 -0.02479993 4.26555988 -0.02479993 5.80996323 -0.0286932 C6.87309699 -0.03519215 7.93623075 -0.0416911 9.03158069 -0.04838699 C12.62369584 -0.06890179 16.21579955 -0.08203695 19.80794907 -0.09508419 C22.37138149 -0.10788782 24.93481228 -0.12102311 27.49824142 -0.13446712 C35.94227142 -0.17629154 44.38632084 -0.20653658 52.83041 -0.23351192 C53.54800047 -0.23581951 54.26559093 -0.23812709 55.00492656 -0.24050459 C69.24605616 -0.28593573 83.48720099 -0.32447485 97.7283783 -0.35123444 C100.86118464 -0.35722384 103.99399077 -0.36330945 107.12679672 -0.36949825 C108.29480683 -0.37179773 108.29480683 -0.37179773 109.48641309 -0.37414365 C122.10256654 -0.39986119 134.71838626 -0.45674359 147.33436802 -0.52596355 C160.27871055 -0.59640001 173.22288043 -0.63666337 186.16741157 -0.64798397 C193.43871923 -0.65515017 200.70944716 -0.6759642 207.98056412 -0.73101139 C214.81956604 -0.78274962 221.6575886 -0.79409538 228.49676323 -0.77776051 C231.01029589 -0.77836619 233.52386757 -0.79273798 236.03723335 -0.82170773 C239.46322969 -0.85913974 242.88563819 -0.8475305 246.31167221 -0.82337093 C247.31196339 -0.84599155 248.31225457 -0.86861216 249.3428576 -0.89191824 C255.92333688 -0.77338364 255.92333688 -0.77338364 258.52289343 1.9058696 C259.81389519 3.94064624 260.8469271 5.94157681 261.814785 8.14539433 C262.48960922 9.34615604 262.48960922 9.34615604 263.17806625 10.57117558 C263.49130844 11.19379276 263.80455063 11.81640995 264.127285 12.45789433 C264.45341782 13.09340214 264.77955063 13.72890995 265.11556625 14.38367558 C265.814785 16.14539433 265.814785 16.14539433 265.814785 19.14539433 C173.084785 19.14539433 80.354785 19.14539433 -15.185215 19.14539433 C-13.48377611 14.89179711 -11.53801488 11.24086284 -9.122715 7.39539433 C-8.75855484 6.80629276 -8.39439468 6.2171912 -8.01919937 5.61023808 C-4.54469316 0.02276968 -4.54469316 0.02276968 0 0 Z " transform="translate(382.1852149963379,352.85460567474365)" style="fill: #FBFBFB;"/><path d="M0 0 C16.68135172 1.2831809 31.12398896 19.59022489 42.53076172 30.45849609 C51.26271083 38.76494124 57.50598929 41.31398564 69.4765625 41.49609375 C73.54989526 42.07864356 75.18834167 43.03678388 78 46 C78.495 47.98 78.495 47.98 79 50 C46.33 50 13.66 50 -20 50 C-24.50369615 40.9926077 -24.50369615 40.9926077 -26.10546875 36.14453125 C-26.44900391 35.11005859 -26.79253906 34.07558594 -27.14648438 33.00976562 C-27.49001953 31.95466797 -27.83355469 30.89957031 -28.1875 29.8125 C-28.54263672 28.74580078 -28.89777344 27.67910156 -29.26367188 26.58007812 C-30.75075481 22.06803712 -32.14734065 17.68036412 -33 13 C-32.13834229 12.97812622 -32.13834229 12.97812622 -31.25927734 12.95581055 C-28.63054304 12.88086275 -26.00301448 12.78436006 -23.375 12.6875 C-22.47136719 12.66494141 -21.56773437 12.64238281 -20.63671875 12.61914062 C-15.32256363 12.40579863 -11.68190756 11.75449767 -7 9 C-6.34 9 -5.68 9 -5 9 C-4.731875 8.443125 -4.46375 7.88625 -4.1875 7.3125 C-2.89877353 4.80287477 -1.47073522 2.40665764 0 0 Z " transform="translate(487,289)" style="fill: #F9F9F8;"/><path d="M0 0 C1.70127548 -0.01940392 1.70127548 -0.01940392 3.43692017 -0.03919983 C5.29709023 -0.05265945 5.29709023 -0.05265945 7.19483948 -0.06639099 C8.50412415 -0.07938736 9.81340881 -0.09238373 11.16236877 -0.10577393 C23.20862903 -0.22142889 35.2557014 -0.27826225 47.30241299 -0.32254124 C56.20548018 -0.355819 65.10753359 -0.41547094 74.01016563 -0.51005226 C80.27352867 -0.57434655 86.53661498 -0.60807151 92.80029541 -0.61929077 C96.54061533 -0.62685428 100.27970823 -0.64805676 104.01966667 -0.70231819 C108.19067751 -0.76212535 112.35934683 -0.75881261 116.53077698 -0.74998474 C117.76886612 -0.7771759 119.00695526 -0.80436707 120.28256226 -0.8323822 C128.45161748 -0.74298647 128.45161748 -0.74298647 131.26715279 1.90286446 C132.57235171 3.95343402 133.52311629 5.92250024 134.42750549 8.17408752 C135.02563049 9.24658752 135.62375549 10.31908752 136.24000549 11.42408752 C137.42750549 14.17408752 137.42750549 14.17408752 137.42750549 18.17408752 C120.26084671 18.20449308 103.09418745 18.22499314 85.92750549 18.23658752 C84.66894493 18.23744354 83.41038437 18.23829956 82.11368561 18.23918152 C45.2077187 18.26138215 8.3221064 18.17166914 -28.57249451 17.17408752 C-28.31207784 15.21892802 -28.05166117 13.26376851 -27.79124451 11.30860901 C-27.50559111 8.87887363 -27.50559111 8.87887363 -27.57249451 5.23658752 C-27.57249451 2.17408752 -27.57249451 2.17408752 -26.57249451 1.17408752 C-23.01620655 1.11361929 -19.47384729 1.15383977 -15.91819763 1.21315002 C-14.79381287 1.22475159 -14.79381287 1.22475159 -13.64671326 1.23658752 C-12.96181824 1.24818909 -12.27692322 1.25979065 -11.5712738 1.27174377 C-9.58674508 1.24864048 -9.58674508 1.24864048 -7.79585171 0.67886448 C-5.14790227 0.07769079 -2.71628636 0.02610211 0 0 Z " transform="translate(540.5724945068359,384.82591247558594)" style="fill: #E4E2E4;"/><path d="M0 0 C16.34188604 -0.18521466 32.6833392 -0.32796608 49.0260191 -0.41449738 C56.61430788 -0.45574406 64.20193248 -0.51197238 71.78979492 -0.60351562 C78.40366949 -0.6832702 85.0170631 -0.73486908 91.63140517 -0.75270796 C95.13376363 -0.76313597 98.63474621 -0.78762514 102.13666344 -0.84584045 C106.04669284 -0.91031253 109.95537812 -0.91191824 113.8659668 -0.90820312 C115.02618347 -0.93696533 116.18640015 -0.96572754 117.3817749 -0.99536133 C125.05652159 -0.91626375 125.05652159 -0.91626375 127.80895424 1.7567749 C129.10406247 3.79631736 130.08619084 5.76774582 131 8 C131.67482422 9.20076172 131.67482422 9.20076172 132.36328125 10.42578125 C132.67652344 11.04839844 132.98976563 11.67101562 133.3125 12.3125 C133.63863281 12.94800781 133.96476562 13.58351563 134.30078125 14.23828125 C135 16 135 16 135 19 C42.27 19 -50.46 19 -146 19 C-145.67 18.34 -145.34 17.68 -145 17 C-97.15 17 -49.3 17 0 17 C0 11.39 0 5.78 0 0 Z " transform="translate(513,353)" style="fill: #DBDBDC;"/><path d="M0 0 C5.61 0 11.22 0 17 0 C17.71092696 9.9640857 18.22238391 19.89565266 18.5 29.8828125 C18.54075164 31.27164473 18.58177429 32.66046904 18.62304688 34.04928589 C18.73026215 37.67768816 18.83431746 41.30617346 18.9375 44.93469238 C19.43029438 62.20463278 19.93222691 79.47453482 20.5 96.7421875 C20.55317383 98.44485275 20.55317383 98.44485275 20.60742188 100.18191528 C20.8396053 107.06028554 21.26688197 113.90542671 21.77938843 120.76828003 C22.23132782 127.38870142 22.26286855 134.01102832 22.29516602 140.64453125 C22.30684771 142.31616571 22.32754425 143.9877585 22.35668945 145.65917969 C22.39916458 148.10897414 22.41548426 150.55769688 22.42578125 153.0078125 C22.44328934 153.75257843 22.46079742 154.49734436 22.47883606 155.26467896 C22.4640991 158.76700274 22.25308478 160.66125422 20.12963867 163.50341797 C18 165 18 165 15.5 164.9375 C12.81783355 163.93168758 11.06327394 162.98958559 9 161 C8.02468771 158.01999039 7.8041477 155.13138646 7.64282227 152.01171875 C7.58921036 151.01112427 7.53559845 150.01052979 7.48036194 148.97961426 C7.39920387 147.3500177 7.39920387 147.3500177 7.31640625 145.6875 C7.25670151 144.54792847 7.19699677 143.40835693 7.13548279 142.23425293 C6.94052617 138.48969506 6.75143829 134.74486597 6.5625 131 C6.42795129 128.39256692 6.29318375 125.78514513 6.15820312 123.17773438 C5.33088344 107.08552606 4.58183813 90.99090792 3.88754272 74.89248657 C3.13264739 57.51363761 2.08139737 40.15592064 0.96484375 22.796875 C0.90092438 21.79324417 0.837005 20.78961334 0.77114868 19.75556946 C0.65161336 17.8838441 0.53015168 16.0122403 0.40634155 14.14079285 C0.35265411 13.30051041 0.29896667 12.46022797 0.24365234 11.59448242 C0.19639008 10.87225998 0.14912781 10.15003754 0.10043335 9.40592957 C-0.03034089 6.27316932 0 3.13548858 0 0 Z " transform="translate(385,476)" style="fill: #F2C991;"/><path d="M0 0 C1.26184113 -0.00990463 2.52368225 -0.01980927 3.82376099 -0.03001404 C5.2196665 -0.02577604 6.61557107 -0.02121819 8.01147461 -0.01637268 C9.48339354 -0.02207568 10.95530805 -0.02903966 12.42721558 -0.03717041 C16.42305132 -0.05512365 20.41866773 -0.05392958 24.41453171 -0.04822803 C27.74968202 -0.04513969 31.08478998 -0.05122457 34.41993427 -0.05726677 C42.28674651 -0.07131711 50.15345016 -0.06974613 58.02026367 -0.05836487 C66.13878022 -0.04687909 74.2569666 -0.06096573 82.37543964 -0.08776134 C89.34455094 -0.109903 96.31355847 -0.11655932 103.28270245 -0.11068493 C107.44563897 -0.10731093 111.60836377 -0.10975977 115.77127075 -0.12693596 C119.68496526 -0.14237906 123.59816968 -0.13847939 127.51184464 -0.11963081 C128.94856801 -0.11593775 130.38532749 -0.11907432 131.82201767 -0.1295166 C133.78218709 -0.14267666 135.74248265 -0.12880182 137.70263672 -0.11352539 C139.34854042 -0.11321146 139.34854042 -0.11321146 141.0276947 -0.1128912 C144.54240993 0.51019658 145.75607369 1.53400362 147.85131836 4.38768005 C147.78881836 8.01268005 147.78881836 8.01268005 146.85131836 11.38768005 C143.34073079 13.72807176 141.93128121 13.64067386 137.77819824 13.64837646 C136.50787247 13.65546127 135.23754669 13.66254608 133.9287262 13.66984558 C132.5181576 13.66755169 131.10758935 13.66504199 129.69702148 13.66233826 C128.2137781 13.66668469 126.73053697 13.67186761 125.24729919 13.67782593 C121.21638699 13.69123353 117.18556845 13.69179273 113.15463829 13.68926263 C109.7921137 13.68819427 106.42960817 13.69307273 103.06708765 13.69786805 C95.13658891 13.70896898 87.20613752 13.70939712 79.27563477 13.70335388 C71.08730818 13.69731027 62.89915326 13.70963354 54.71085596 13.73092395 C47.68574249 13.74852003 40.66068377 13.75454454 33.63554907 13.75128621 C29.43745095 13.74947027 25.23947532 13.75214045 21.04139709 13.76600075 C17.09496691 13.77854243 13.14880512 13.77667001 9.20237923 13.76358986 C7.75233432 13.76121663 6.30227074 13.76398537 4.85224724 13.77221298 C2.87633539 13.78261799 0.9003476 13.77281216 -1.07556152 13.76190186 C-2.18242561 13.7620696 -3.2892897 13.76223734 -4.42969513 13.76241016 C-7.14868164 13.38768005 -7.14868164 13.38768005 -9.0009079 12.08304119 C-10.95485037 9.19689908 -10.56803996 6.7425466 -10.14868164 3.38768005 C-7.00813561 0.1487559 -4.39106282 0.00972398 0 0 Z " transform="translate(445.148681640625,801.6123199462891)" style="fill: #030403;"/><path d="M0 0 C9 21.58252427 9 21.58252427 9 31 C-10.8 31 -30.6 31 -51 31 C-46.89674905 26.07609885 -44.06700506 23.23009434 -39 19.8125 C-37.98015015 19.11737305 -37.98015015 19.11737305 -36.93969727 18.40820312 C-9.21280585 0 -9.21280585 0 0 0 Z " transform="translate(442,308)" style="fill: #F8F8F8;"/><path d="M0 0 C34.3823072 2.59015697 63.27469434 10.1526207 91 31 C88.19724228 31.93425257 86.6811461 32.09949044 83.80395508 32.02172852 C82.96331009 32.00163223 82.1226651 31.98153595 81.25654602 31.96083069 C80.35333115 31.93379562 79.45011627 31.90676056 78.51953125 31.87890625 C77.12754768 31.84348976 77.12754768 31.84348976 75.70744324 31.80735779 C72.74230505 31.73075991 69.77743058 31.64671871 66.8125 31.5625 C64.8027473 31.50927545 62.79298171 31.45653507 60.78320312 31.40429688 C55.85530162 31.27514994 50.92762377 31.13932693 46 31 C45.73735352 30.38874268 45.47470703 29.77748535 45.20410156 29.14770508 C44.8531543 28.34228271 44.50220703 27.53686035 44.140625 26.70703125 C43.79547852 25.91014893 43.45033203 25.1132666 43.09472656 24.29223633 C40.03099277 17.87711667 35.5384332 14.51310476 29 12 C25.89376275 11.35409245 22.78001292 11.05987018 19.625 10.75 C11.33904966 9.72279615 5.65919641 7.48843598 0 1 C0 0.67 0 0.34 0 0 Z " transform="translate(536,308)" style="fill: #E0DEE0;"/><path d="M0 0 C0.52464844 0.48726562 1.04929687 0.97453125 1.58984375 1.4765625 C0.71484375 7.3515625 0.71484375 7.3515625 -0.41015625 8.4765625 C-2.30469997 8.58534013 -4.20107379 8.66250423 -6.09765625 8.7265625 C-19.44991882 9.7064109 -31.20007253 14.8970817 -40.46875 24.640625 C-44.69620686 29.78630367 -47.67047822 35.42907045 -50.41015625 41.4765625 C-51.07015625 41.4765625 -51.73015625 41.4765625 -52.41015625 41.4765625 C-52.54292969 42.25902344 -52.67570312 43.04148437 -52.8125 43.84765625 C-52.98910156 44.85957031 -53.16570312 45.87148438 -53.34765625 46.9140625 C-53.52167969 47.92339844 -53.69570313 48.93273437 -53.875 49.97265625 C-54.41015625 52.4765625 -54.41015625 52.4765625 -55.41015625 53.4765625 C-57.40973989 53.51737033 -59.41060879 53.51910606 -61.41015625 53.4765625 C-63.9172154 48.4624442 -63.39018427 41.73770406 -61.81396484 36.49267578 C-55.55858757 20.08375805 -43.00725713 8.94214112 -27.41015625 1.4765625 C-19.84340906 -1.69658955 -7.30167206 -4.61531946 0 0 Z " transform="translate(512.41015625,545.5234375)" style="fill: #FAF5EF;"/><path d="M0 0 C3.38015171 8.7757976 6.17483615 17.72710206 9.00390625 26.69140625 C11.18288922 33.59499513 13.40420531 40.48477116 15.625 47.375 C19.02627441 57.9408875 22.38202646 68.51838953 25.65576172 79.12451172 C26.11053509 80.59725033 26.56609715 82.06974563 27.02246094 83.54199219 C27.45071256 84.92359102 27.87727872 86.305714 28.30175781 87.68847656 C29.15376244 90.43508913 30.04832592 93.11824074 31.13671875 95.78125 C32.12374861 98.31805072 32.15420494 100.30141353 32 103 C29.36 103 26.72 103 24 103 C23.82839355 102.47792969 23.65678711 101.95585937 23.47998047 101.41796875 C22.07139973 97.15959892 20.62795306 92.91630453 19.1328125 88.6875 C18.80410156 87.75550781 18.47539062 86.82351563 18.13671875 85.86328125 C17.47292231 83.98466044 16.8063479 82.10701842 16.13671875 80.23046875 C13.90584375 73.88506165 11.94062795 67.48387383 10.0695343 61.02532959 C7.45115443 52.03304289 4.59800936 43.11543856 1.7512207 34.19335938 C0.80073971 31.2131256 -0.14568604 28.23162366 -1.09179688 25.25 C-1.70028218 23.33846568 -2.30899747 21.42700455 -2.91796875 19.515625 C-3.33830635 18.1906601 -3.33830635 18.1906601 -3.76713562 16.83892822 C-4.81712828 13.55507014 -5.85890412 10.33655051 -7.19262695 7.15527344 C-8 5 -8 5 -8 1 C-5.29120665 -0.35439668 -2.99066732 -0.06501451 0 0 Z " transform="translate(421,188)" style="fill: #EFF0F0;"/><path d="M0 0 C-3 2 -3 2 -6.5625 2.4375 C-8.2640625 2.7159375 -8.2640625 2.7159375 -10 3 C-10.66 3.99 -11.32 4.98 -12 6 C-10.74703125 6.04898438 -9.4940625 6.09796875 -8.203125 6.1484375 C-6.55206179 6.22348583 -4.90102119 6.29903277 -3.25 6.375 C-2.0125 6.42140625 -2.0125 6.42140625 -0.75 6.46875 C0.04921875 6.50742187 0.8484375 6.54609375 1.671875 6.5859375 C2.4050293 6.6173584 3.13818359 6.6487793 3.89355469 6.68115234 C6.32627636 7.04938768 7.94482383 7.64385194 10 9 C11.0625 12.375 11.0625 12.375 11 16 C7.43521541 19.65772124 4.49850984 20.59772255 -0.5 21.1875 C-1.6034375 21.32542969 -2.706875 21.46335937 -3.84375 21.60546875 C-5.40609375 21.80076172 -5.40609375 21.80076172 -7 22 C-10.28815872 22.61129188 -13.54896932 23.3318588 -16.8125 24.0625 C-17.60269531 24.23910156 -18.39289063 24.41570313 -19.20703125 24.59765625 C-19.79871094 24.73042969 -20.39039063 24.86320313 -21 25 C-19.07683418 21.15366837 -13.85782063 20.43221313 -9.9453125 19.109375 C-4.39972534 17.41191444 1.22704943 17.10548581 7 17 C7.33 15.02 7.66 13.04 8 11 C2.19934855 7.13289904 -5.67518073 8.41717874 -12.3203125 9.58203125 C-26.54030719 13.40780378 -41.15468405 23.25945586 -48.625 36.125 C-49.07875 37.07375 -49.5325 38.0225 -50 39 C-50.99 37.68 -51.98 36.36 -53 35 C-53.33 35.66 -53.66 36.32 -54 37 C-54.66 37 -55.32 37 -56 37 C-56.433125 38.11375 -56.433125 38.11375 -56.875 39.25 C-58 42 -58 42 -58.9375 43.73828125 C-60.34108989 46.72607002 -61.21127462 49.76653451 -62.125 52.9375 C-62.47820312 54.14277344 -62.83140625 55.34804688 -63.1953125 56.58984375 C-63.89782138 59.5669809 -64.17268097 61.96657097 -64 65 C-64.99 65.495 -64.99 65.495 -66 66 C-69.03510955 56.89467136 -65.24876876 47.78326343 -61.33984375 39.46875 C-51.68174796 20.98273063 -35.41669391 7.63355888 -15.6875 0.86328125 C-10.1004177 -0.68015024 -5.65143143 -1.41285786 0 0 Z " transform="translate(505,536)" style="fill: #E5C18F;"/><path d="M0 0 C8.72856395 0.61647481 17.34578507 1.65415721 26 2.9375 C27.20011719 3.10701172 28.40023437 3.27652344 29.63671875 3.45117188 C31.36341797 3.70543945 31.36341797 3.70543945 33.125 3.96484375 C34.67574219 4.19095337 34.67574219 4.19095337 36.2578125 4.42163086 C38.82512478 4.96311615 40.73537394 5.70278373 43 7 C43.28571429 15.57142857 43.28571429 15.57142857 41 19 C40.030625 18.236875 39.06125 17.47375 38.0625 16.6875 C31.57266675 12.12010244 25.39358568 11.00649349 17.5625 10.3125 C9.89576569 9.43144384 5.23598228 6.60558103 0 1 C0 0.67 0 0.34 0 0 Z " transform="translate(536,308)" style="fill: #E8E6E8;"/><path d="M0 0 C2.81443479 3.47665474 2.7894321 5.89725091 2.53125 10.2734375 C2.125 12.625 2.125 12.625 0.6875 15.25 C-3.17247219 17.32120459 -6.59940992 17.49229051 -10.875 16.625 C-13.9375 14.5625 -13.9375 14.5625 -15.875 11.625 C-16.56077608 7.35794881 -16.37523114 5.41847009 -14.0625 1.75 C-9.90578921 -2.28794762 -5.10342193 -2.44076701 0 0 Z " transform="translate(429.875,673.375)" style="fill: #F4F2F2;"/><path d="M0 0 C1.33333333 0.66666667 2.66666667 1.33333333 4 2 C4.34022786 3.99883869 4.67329097 5.99890722 5 8 C5.66 8.66 6.32 9.32 7 10 C7 10.66 7 11.32 7 12 C7.495 12.825 7.99 13.65 8.5 14.5 C10 17 10 17 10 19 C10.99 19.33 11.98 19.66 13 20 C14.09765625 21.59375 14.09765625 21.59375 15.0625 23.5 C16.42445528 26.33019068 16.42445528 26.33019068 19 28 C19 28.66 19 29.32 19 30 C19.66 30 20.32 30 21 30 C21 30.99 21 31.98 21 33 C21.92232422 33.23783203 21.92232422 33.23783203 22.86328125 33.48046875 C29.51839465 35.40164184 29.51839465 35.40164184 32.0625 38.5625 C33 41 33 41 33 43 C27.6292968 42.05436829 24.06114403 38.42572694 20 35 C19.38640625 34.484375 18.7728125 33.96875 18.140625 33.4375 C9.86698767 25.84700703 3.66345801 14.55005456 0 4 C0 2.68 0 1.36 0 0 Z " transform="translate(440,631)" style="fill: #E4BD96;"/><path d="M0 0 C4.61712618 20.97574133 -0.44217771 41.68346569 -11.5625 59.5625 C-11.95074951 60.19559082 -12.33899902 60.82868164 -12.73901367 61.48095703 C-13.87890625 63.25390625 -13.87890625 63.25390625 -16 66 C-16.99 66 -17.98 66 -19 66 C-18 63 -18 63 -16 62 C-15.53476937 60.10466658 -15.53476937 60.10466658 -15.375 57.9375 C-15.189375 55.9884375 -15.189375 55.9884375 -15 54 C-14.01 54.33 -13.02 54.66 -12 55 C-11.67 54.01 -11.34 53.02 -11 52 C-10.34 51.34 -9.68 50.68 -9 50 C-8.29496914 48.34919604 -7.6344662 46.67918875 -7 45 C-6.36191406 43.63875 -6.36191406 43.63875 -5.7109375 42.25 C-0.57447335 29.75427436 -1.59252768 16.81596133 -2.03417969 3.53759766 C-1.98653069 0 -1.98653069 0 0 0 Z " transform="translate(586,594)" style="fill: #C1926F;"/><path d="M0 0 C35.97 0 71.94 0 109 0 C109 0.33 109 0.66 109 1 C101.30399132 1.13342022 93.60793844 1.2639244 85.91182518 1.39115143 C82.33442206 1.45037284 78.75703809 1.51043437 75.1796875 1.57275391 C60.00836169 1.83629623 44.83780042 2.05159185 29.6640625 2.09375 C28.4628476 2.1002356 27.26163269 2.10672119 26.02401733 2.11340332 C18.63263358 2.11731152 11.35446726 1.73884794 4 1 C2.69534274 4.16093277 1.72164295 6.90384431 1.375 10.3125 C1.25125 11.529375 1.1275 12.74625 1 14 C0.67 14 0.34 14 0 14 C0 9.38 0 4.76 0 0 Z " transform="translate(402,477)" style="fill: #574A42;"/><path d="M0 0 C0.99 0.33 1.98 0.66 3 1 C-7.82352634 12.7911926 -21.39793611 20.49874944 -37 24 C-37.66 23.34 -38.32 22.68 -39 22 C-37.68 22 -36.36 22 -35 22 C-35 21.34 -35 20.68 -35 20 C-32.69 19.34 -30.38 18.68 -28 18 C-28 17.34 -28 16.68 -28 16 C-26.68 16 -25.36 16 -24 16 C-23.34 15.01 -22.68 14.02 -22 13 C-21.01 13 -20.02 13 -19 13 C-15.13992736 12.50192611 -13.6206505 10.7794778 -11 8 C-7.94795564 5.32946119 -5.88816266 3.93852202 -2 3 C-1.34 2.01 -0.68 1.02 0 0 Z " transform="translate(565,661)" style="fill: #C08D6A;"/><path d="M0 0 C1.9375 1.0625 1.9375 1.0625 3 3 C2.8125 6.625 2.8125 6.625 2 10 C-0.82883747 11.41441874 -2.87376745 11.31900332 -6 11 C-8.3785166 8.85933506 -8.92354968 7.53515225 -9.375 4.375 C-9.25125 3.59125 -9.1275 2.8075 -9 2 C-5.53076119 -0.31282587 -4.07794425 -0.42478586 0 0 Z " transform="translate(420,648)" style="fill: #F1EBE8;"/><path d="M0 0 C1.37562854 1.28965176 2.70766393 2.62689293 4 4 C4 4.66 4 5.32 4 6 C-4.25 6 -12.5 6 -21 6 C-20.67 5.01 -20.34 4.02 -20 3 C-15.7968766 1.25648215 -10.73366488 1.62230393 -6.22460938 1.39453125 C-2.82122833 1.48829728 -2.82122833 1.48829728 0 0 Z " transform="translate(562,333)" style="fill: #D3D3D6;"/><path d="M0 0 C-0.8125 1.9375 -0.8125 1.9375 -2 4 C-2.99 4.33 -3.98 4.66 -5 5 C-5 5.66 -5 6.32 -5 7 C-6.14576596 8.04755745 -7.3439356 9.03809717 -8.5625 10 C-14.77598299 15.28642691 -20.08862246 21.92973927 -22 30 C-22.66 30 -23.32 30 -24 30 C-24.33 30.99 -24.66 31.98 -25 33 C-24.67 30.69 -24.34 28.38 -24 26 C-23.34 26 -22.68 26 -22 26 C-21.89042969 25.26523437 -21.78085937 24.53046875 -21.66796875 23.7734375 C-19.85120546 16.23015131 -8.79847995 0 0 0 Z " transform="translate(484,561)" style="fill: #E8C18F;"/><path d="M0 0 C6.36559573 0.49126929 12.69264693 0.99655747 19 2 C18.690625 2.598125 18.38125 3.19625 18.0625 3.8125 C16.89790296 6.08956772 16.89790296 6.08956772 16 9 C12.28906746 9.34279875 10.44133269 9.27288035 7.2265625 7.28515625 C6.36804688 6.55167969 5.50953125 5.81820313 4.625 5.0625 C3.75101563 4.33160156 2.87703125 3.60070312 1.9765625 2.84765625 C1.32429687 2.23792969 0.67203125 1.62820313 0 1 C0 0.67 0 0.34 0 0 Z " transform="translate(536,308)" style="fill: #E5DFE6;"/><path d="M0 0 C2.375 0.6875 2.375 0.6875 3.375 1.6875 C3.5625 5.125 3.5625 5.125 3.375 8.6875 C1.375 10.6875 1.375 10.6875 -1.125 10.9375 C-3.625 10.6875 -3.625 10.6875 -5.625 8.6875 C-5.9375 5.1875 -5.9375 5.1875 -5.625 1.6875 C-2.625 -0.3125 -2.625 -0.3125 0 0 Z " transform="translate(419.625,533.3125)" style="fill: #EEE4E0;"/><path d="M0 0 C1.125 1.75 1.125 1.75 2 4 C1.35933199 5.34601884 0.68554199 6.67627254 0 8 C-0.75082383 10.29905545 -1.45533316 12.61350803 -2.125 14.9375 C-2.47820312 16.14277344 -2.83140625 17.34804688 -3.1953125 18.58984375 C-3.89782138 21.5669809 -4.17268097 23.96657097 -4 27 C-4.66 27.33 -5.32 27.66 -6 28 C-8.66538169 20.00385494 -5.88515158 12.62297575 -3 5 C-2.04428912 3.30754779 -1.05777504 1.63061024 0 0 Z " transform="translate(445,574)" style="fill: #E3C8A3;"/><path d="M0 0 C7.69338819 3.09755673 11.62498117 12.82595269 15.34765625 19.7734375 C16 22 16 22 15.12109375 24.2890625 C14.56615234 25.13597656 14.56615234 25.13597656 14 26 C12.5 25 12.5 25 11 23 C10.72654521 20.28153765 10.86508715 17.74322801 11 15 C10.34 15 9.68 15 9 15 C6.65130253 13.02709413 5.99897713 11.99693138 5 9 C4.34 8.67 3.68 8.34 3 8 C3 7.01 3 6.02 3 5 C2.01 5 1.02 5 0 5 C0 3.35 0 1.7 0 0 Z M12 21 C13 23 13 23 13 23 Z " transform="translate(567,562)" style="fill: #C9966F;"/><path d="M0 0 C4.53365363 0.42173522 8.33619585 1.46071529 12.625 3 C21.83036052 5.97852228 31.3993263 5.84205387 41 6 C40.67 6.66 40.34 7.32 40 8 C25.35358985 8.60397568 13.51053863 6.99133161 0 1 C0 0.67 0 0.34 0 0 Z " transform="translate(480,679)" style="fill: #C39C78;"/><path d="M0 0 C0.33 0 0.66 0 1 0 C3.38776806 32.51428851 3.38776806 32.51428851 3 46 C0.37137998 43.37137998 0.60797008 41.91560575 0.33203125 38.2421875 C0.19837158 36.4772998 0.19837158 36.4772998 0.06201172 34.67675781 C-0.02032715 33.42217773 -0.10266602 32.16759766 -0.1875 30.875 C-0.27499512 29.61010742 -0.36249023 28.34521484 -0.45263672 27.04199219 C-1.02383852 17.91444438 -1.04427572 9.08802112 0 0 Z " transform="translate(387,520)" style="fill: #664934;"/><path d="M0 0 C-3.46553273 2.31035515 -5.92646609 2.41806658 -10 3 C-10.99 3.66 -11.98 4.32 -13 5 C-15.48046875 5.4140625 -15.48046875 5.4140625 -18.1875 5.625 C-19.08855469 5.69976563 -19.98960937 5.77453125 -20.91796875 5.8515625 C-21.60503906 5.90054688 -22.29210937 5.94953125 -23 6 C-23 6.66 -23 7.32 -23 8 C-24.65 7.67 -26.3 7.34 -28 7 C-24.87255189 4.37504356 -21.93857001 3.11651549 -18.0625 1.875 C-17.04285156 1.54242187 -16.02320313 1.20984375 -14.97265625 0.8671875 C-9.48290073 -0.73429177 -5.69280945 -1.00461343 0 0 Z " transform="translate(505,536)" style="fill: #DCB39B;"/><path d="M0 0 C5.61 0 11.22 0 17 0 C17 9.24 17 18.48 17 28 C16.67 28 16.34 28 16 28 C15.67 19.42 15.34 10.84 15 2 C10.71 2 6.42 2 2 2 C2 3.98 2 5.96 2 8 C1.34 7.67 0.68 7.34 0 7 C0 4.69 0 2.38 0 0 Z " transform="translate(385,476)" style="fill: #E3C4A2;"/><path d="M0 0 C0 0.99 0 1.98 0 3 C-1.65 3.33 -3.3 3.66 -5 4 C-5 4.66 -5 5.32 -5 6 C-8.13498292 7.85776765 -10.37471432 8.20140476 -14 8 C-13.43877278 4.74488211 -12.66879905 3.00159929 -10 1 C-6.63490905 0.02589472 -3.48929613 -0.09969418 0 0 Z " transform="translate(492,541)" style="fill: #E2BA87;"/><path d="M0 0 C0.99 0.33 1.98 0.66 3 1 C1.56974806 2.65213589 0.13054455 4.29652589 -1.3125 5.9375 C-2.11300781 6.85402344 -2.91351563 7.77054688 -3.73828125 8.71484375 C-6 11 -6 11 -9 12 C-9.33 13.65 -9.66 15.3 -10 17 C-10.99 17.33 -11.98 17.66 -13 18 C-13 18.66 -13 19.32 -13 20 C-13.66 19.67 -14.32 19.34 -15 19 C-10.72988548 11.74080531 -6.25003586 5.66561692 0 0 Z " transform="translate(461,553)" style="fill: #E6CEB7;"/><path d="M0 0 C0.33 0.66 0.66 1.32 1 2 C0.69320313 2.70511719 0.38640625 3.41023437 0.0703125 4.13671875 C-1.27526744 7.73639064 -1.21906419 11.03184326 -1.125 14.8125 C-1.11146484 15.85180664 -1.11146484 15.85180664 -1.09765625 16.91210938 C-1.07426157 18.60822395 -1.03839641 20.30415871 -1 22 C1.9550144 21.66036795 1.9550144 21.66036795 5 21 C6.43637698 19.04836882 6.43637698 19.04836882 7 17 C6.67 19.31 6.34 21.62 6 24 C0.71817606 25.32045598 0.71817606 25.32045598 -2.21484375 24.01171875 C-4 22 -4 22 -4.20703125 18.3828125 C-4.09679781 16.96173077 -3.96443723 15.54222961 -3.8125 14.125 C-3.75513672 13.41730469 -3.69777344 12.70960938 -3.63867188 11.98046875 C-2.99666162 4.56628579 -2.99666162 4.56628579 -2 1 C-1.34 0.67 -0.68 0.34 0 0 Z " transform="translate(452,577)" style="fill: #E9C89C;"/><path d="M0 0 C-0.66 1.32 -1.32 2.64 -2 4 C-2.53012695 3.84152588 -3.06025391 3.68305176 -3.60644531 3.51977539 C-6.52844192 2.88524553 -9.30782847 2.78228868 -12.296875 2.68359375 C-13.50214844 2.64169922 -14.70742188 2.59980469 -15.94921875 2.55664062 C-17.20347656 2.51732422 -18.45773437 2.47800781 -19.75 2.4375 C-21.65458984 2.37272461 -21.65458984 2.37272461 -23.59765625 2.30664062 C-26.73166365 2.20060278 -29.86574933 2.09853942 -33 2 C-33 1.67 -33 1.34 -33 1 C-32.22809326 0.97494385 -31.45618652 0.9498877 -30.66088867 0.92407227 C-27.16958819 0.80815993 -23.67856078 0.68541176 -20.1875 0.5625 C-18.97255859 0.52318359 -17.75761719 0.48386719 -16.50585938 0.44335938 C-15.34248047 0.40146484 -14.17910156 0.35957031 -12.98046875 0.31640625 C-11.90692139 0.27974854 -10.83337402 0.24309082 -9.72729492 0.20532227 C-1.36657114 -0.42410829 -1.36657114 -0.42410829 0 0 Z " transform="translate(612,842)" style="fill: #E2D8E3;"/><path d="M0 0 C0.33 0.66 0.66 1.32 1 2 C-1.8830515 6.21369066 -4.01683432 7.83372718 -9 9 C-12 9 -12 9 -14 8 C-14 6.68 -14 5.36 -14 4 C-10.65526199 2.88508733 -8.39936478 3.19488729 -5 4 C-4.34 4 -3.68 4 -3 4 C-2.67 3.01 -2.34 2.02 -2 1 C-1.34 0.67 -0.68 0.34 0 0 Z " transform="translate(408,636)" style="fill: #4A3829;"/><path d="M0 0 C1.125 1.75 1.125 1.75 2 4 C1.125 6.25 1.125 6.25 0 8 C-0.66 7.67 -1.32 7.34 -2 7 C-2.2475 7.639375 -2.495 8.27875 -2.75 8.9375 C-4 11 -4 11 -6.125 11.75 C-7.053125 11.87375 -7.053125 11.87375 -8 12 C-8 11.34 -8 10.68 -8 10 C-8.99 9.67 -9.98 9.34 -11 9 C-10.37351562 8.60167969 -9.74703125 8.20335937 -9.1015625 7.79296875 C-8.28429687 7.26316406 -7.46703125 6.73335937 -6.625 6.1875 C-5.81289063 5.66542969 -5.00078125 5.14335938 -4.1640625 4.60546875 C-1.76649759 3.01562803 -1.76649759 3.01562803 0 0 Z " transform="translate(622,831)" style="fill: #DFDADE;"/><path d="M0 0 C4.1230362 6.1845543 3.69208449 15.84749307 2.5 23 C2.335 23.66 2.17 24.32 2 25 C-0.20192224 21.69711664 -0.23959968 20.72537273 -0.1953125 16.89453125 C-0.18886719 15.91162109 -0.18242187 14.92871094 -0.17578125 13.91601562 C-0.15902344 12.89185547 -0.14226562 11.86769531 -0.125 10.8125 C-0.11597656 9.77673828 -0.10695313 8.74097656 -0.09765625 7.67382812 C-0.0740786 5.11565315 -0.0411703 2.55794252 0 0 Z " transform="translate(437,600)" style="fill: #F0CEA1;"/><path d="M0 0 C-5 4 -10 8 -15 12 C-14.48659616 8.20081162 -13.7920132 6.56865214 -11 4 C-10.71125 3.29875 -10.4225 2.5975 -10.125 1.875 C-9 0 -9 0 -6.625 -0.8125 C-4.08152045 -0.99417711 -2.42302174 -0.67535287 0 0 Z " transform="translate(470,547)" style="fill: #0E1409;"/><path d="M0 0 C0.33 0 0.66 0 1 0 C1.63922005 11.34615583 2.16938829 22.63216352 2 34 C1.34 33.67 0.68 33.34 0 33 C-1.94987698 22.18242161 -0.75426102 10.88456676 0 0 Z " transform="translate(391,590)" style="fill: #664D38;"/><path d="M0 0 C0 0.66 0 1.32 0 2 C-9.57228073 5.19076024 -22.01752123 2.61498219 -32 2 C-32 1.67 -32 1.34 -32 1 C-27.6042236 0.8318091 -23.20837046 0.6657129 -18.8125 0.5 C-17.56662109 0.45230469 -16.32074219 0.40460937 -15.03710938 0.35546875 C-13.83505859 0.31035156 -12.63300781 0.26523437 -11.39453125 0.21875 C-10.28956299 0.17685547 -9.18459473 0.13496094 -8.04614258 0.09179688 C-5.36141261 0.01089133 -2.68565859 -0.01748191 0 0 Z " transform="translate(592,815)" style="fill: #E9E2E9;"/><path d="M0 0 C7.92 0 15.84 0 24 0 C24 0.33 24 0.66 24 1 C21.50129725 1.36692116 19.00190475 1.7187099 16.5 2.0625 C15.80390625 2.16626953 15.1078125 2.27003906 14.390625 2.37695312 C9.36002357 3.05235795 5.01340391 2.80733869 0 2 C0 1.34 0 0.68 0 0 Z " transform="translate(552,353)" style="fill: #EAE9E9;"/><path d="M0 0 C1.62490954 -0.02698189 3.24994633 -0.04638757 4.875 -0.0625 C5.77992188 -0.07410156 6.68484375 -0.08570313 7.6171875 -0.09765625 C10 0 10 0 12 1 C11.67 1.99 11.34 2.98 11 4 C7.04 4 3.08 4 -1 4 C-0.34 3.67 0.32 3.34 1 3 C0.67 2.01 0.34 1.02 0 0 Z " transform="translate(550,331)" style="fill: #EEEDEA;"/><path d="M0 0 C3.96 0 7.92 0 12 0 C8.85331714 3.14668286 7.15806696 3.78723047 3 5 C2.01 5.33 1.02 5.66 0 6 C0 4.02 0 2.04 0 0 Z " transform="translate(669,417)" style="fill: #F4F2F1;"/><path d="M0 0 C0.680625 0.185625 1.36125 0.37125 2.0625 0.5625 C5.57232191 1.08523943 8.52188063 0.61378577 12 0 C11 2 11 2 8.5 3.25 C5.67649412 4.82154642 5.67649412 4.82154642 5.1875 8.1875 C5.125625 9.115625 5.06375 10.04375 5 11 C3.5 9.75 3.5 9.75 2 8 C2 6.68 2 5.36 2 4 C1.34 4 0.68 4 0 4 C0 2.68 0 1.36 0 0 Z " transform="translate(409,530)" style="fill: #57473B;"/><path d="M0 0 C4.95 0 9.9 0 15 0 C14.67 1.32 14.34 2.64 14 4 C12.68 4 11.36 4 10 4 C10 3.34 10 2.68 10 2 C7.36 2.33 4.72 2.66 2 3 C1.34 2.01 0.68 1.02 0 0 Z " transform="translate(335,417)" style="fill: #F6F2F1;"/><path d="M0 0 C-0.66 0 -1.32 0 -2 0 C-2 0.66 -2 1.32 -2 2 C-2.99 2 -3.98 2 -5 2 C-5 2.66 -5 3.32 -5 4 C-10.17578125 7.22265625 -10.17578125 7.22265625 -12 8 C-12.99 7.67 -13.98 7.34 -15 7 C-13.75312408 6.03760548 -12.50235031 5.08025991 -11.25 4.125 C-10.55390625 3.59132813 -9.8578125 3.05765625 -9.140625 2.5078125 C-3.78780774 -1.26260258 -3.78780774 -1.26260258 0 0 Z " transform="translate(479,544)" style="fill: #E8C8B3;"/><path d="M0 0 C0.33 1.32 0.66 2.64 1 4 C-3.46236469 5.80619523 -6.31034294 6.11658501 -11 5 C-8.12934225 2.12934225 -4.13678472 0 0 0 Z " transform="translate(442,308)" style="fill: #E2DEDD;"/><path d="M0 0 C4.92127034 -0.16682272 8.50343896 -0.24828052 13 2 C13 2.33 13 2.66 13 3 C7.06 3.495 7.06 3.495 1 4 C0.67 2.68 0.34 1.36 0 0 Z " transform="translate(523,537)" style="fill: #E7AB87;"/><path d="M0 0 C0.66 1.32 1.32 2.64 2 4 C0.3125 6.0625 0.3125 6.0625 -2 8 C-4.75 7.75 -4.75 7.75 -7 7 C-4.9413783 3.91206745 -4.1446688 3.52161393 -1 2 C-0.67 1.34 -0.34 0.68 0 0 Z " transform="translate(405,633)" style="fill: #DBB999;"/><path d="M0 0 C-3.58411056 1.91812952 -7.3089601 3.29731427 -11.125 4.6875 C-12.07439453 5.04424805 -12.07439453 5.04424805 -13.04296875 5.40820312 C-14.67478822 5.99891484 -16.33637283 6.50591524 -18 7 C-18.66 6.67 -19.32 6.34 -20 6 C-13.60599652 2.57879294 -7.44734579 -0.45135429 0 0 Z " transform="translate(504,554)" style="fill: #E3C7A1;"/><path d="M0 0 C1.75 1.125 1.75 1.125 2.75 4.125 C1.14402675 3.67303755 -0.45972508 3.21317673 -2.0625 2.75 C-2.95582031 2.49476563 -3.84914063 2.23953125 -4.76953125 1.9765625 C-7.25 1.125 -7.25 1.125 -10.25 -0.875 C-6.28640805 -2.19619732 -3.83296271 -1.49059661 0 0 Z " transform="translate(594.25,316.875)" style="fill: #182214;"/><path d="M0 0 C0.66 0.33 1.32 0.66 2 1 C2 2.32 2 3.64 2 5 C-0.64 5.66 -3.28 6.32 -6 7 C-6.33 6.01 -6.66 5.02 -7 4 C-1.7265625 0.77734375 -1.7265625 0.77734375 0 0 Z " transform="translate(393,313)" style="fill: #EEEDF6;"/><path d="M0 0 C2.97 0.33 5.94 0.66 9 1 C8.01 1.33 7.02 1.66 6 2 C6 2.66 6 3.32 6 4 C7.32 4 8.64 4 10 4 C10 4.66 10 5.32 10 6 C9.01 6.33 8.02 6.66 7 7 C5.17578125 5.8203125 5.17578125 5.8203125 3.3125 4.125 C2.68988281 3.57070313 2.06726563 3.01640625 1.42578125 2.4453125 C0 1 0 1 0 0 Z " transform="translate(536,308)" style="fill: #DAD5DA;"/><path d="M0 0 C0 0.66 0 1.32 0 2 C-2.97 3.65 -5.94 5.3 -9 7 C-7.54408663 1.17634653 -6.06735844 -0.49194798 0 0 Z " transform="translate(404,310)" style="fill: #E5E3ED;"/><path d="M0 0 C-1.5747294 0.72726052 -3.16024279 1.43120422 -4.75 2.125 C-5.63171875 2.51945313 -6.5134375 2.91390625 -7.421875 3.3203125 C-10 4 -10 4 -12.328125 3.1171875 C-12.87984375 2.74851562 -13.4315625 2.37984375 -14 2 C-12.68 2 -11.36 2 -10 2 C-10 1.34 -10 0.68 -10 0 C-6.26432828 -0.76411467 -3.65188082 -1.07174763 0 0 Z " transform="translate(540,681)" style="fill: #C79573;"/><path d="M0 0 C4.99911924 0.47610659 7.97832683 2.03162219 12 5 C9.18185434 6.40907283 7.82722796 5.50872691 4.875 4.5625 C3.96492187 4.27503906 3.05484375 3.98757813 2.1171875 3.69140625 C1.41851563 3.46324219 0.71984375 3.23507812 0 3 C0 2.01 0 1.02 0 0 Z " transform="translate(540,542)" style="fill: #D8A47F;"/><path d="M0 0 C1.98 0 3.96 0 6 0 C6 0.66 6 1.32 6 2 C7.32 2.66 8.64 3.32 10 4 C9.34 4.66 8.68 5.32 8 6 C7.34 5.34 6.68 4.68 6 4 C3.68234271 3.28072705 1.34904126 2.6090107 -1 2 C-0.67 1.34 -0.34 0.68 0 0 Z " transform="translate(414,645)" style="fill: #43412A;"/><path d="M0 0 C0.66 0 1.32 0 2 0 C2.33 2.97 2.66 5.94 3 9 C2.67 9 2.34 9 2 9 C1.67 11.31 1.34 13.62 1 16 C0.67 16 0.34 16 0 16 C0 10.72 0 5.44 0 0 Z " transform="translate(407,618)" style="fill: #654C34;"/><path d="M0 0 C3.47132095 1.40929697 4.88093274 2.90605083 6.75 6.125 C7.39195312 7.21167969 7.39195312 7.21167969 8.046875 8.3203125 C8.51867187 9.15175781 8.51867187 9.15175781 9 10 C6.75 10.0625 6.75 10.0625 4 9 C2.30699573 6.13325156 1.13036377 3.12586629 0 0 Z " transform="translate(588,566)" style="fill: #2D190E;"/><path d="M0 0 C3.36241563 0.45438049 6.04009971 1.35561095 9 3 C9 3.99 9 4.98 9 6 C5.08788267 4.84414715 2.1254959 3.64465038 -1 1 C-0.67 0.67 -0.34 0.34 0 0 Z " transform="translate(597,322)" style="fill: #ECE3E9;"/><path d="M0 0 C-1.28299758 2.86207152 -2.530636 5.0245088 -5 7 C-5.99 7 -6.98 7 -8 7 C-7.8125 5.1875 -7.8125 5.1875 -7 3 C-2.82142857 0 -2.82142857 0 0 0 Z " transform="translate(474,280)" style="fill: #E9E6F4;"/><path d="M0 0 C0 0.66 0 1.32 0 2 C-1.6232687 2.6708712 -3.24867578 3.33657029 -4.875 4 C-6.23238281 4.556875 -6.23238281 4.556875 -7.6171875 5.125 C-10 6 -10 6 -12 6 C-11 3 -11 3 -9.2578125 2.05078125 C-8.55398438 1.80714844 -7.85015625 1.56351563 -7.125 1.3125 C-6.42632812 1.06113281 -5.72765625 0.80976562 -5.0078125 0.55078125 C-3 0 -3 0 0 0 Z " transform="translate(489,536)" style="fill: #0C1805;"/><path d="M0 0 C1.32 0.33 2.64 0.66 4 1 C3.5359375 1.99 3.5359375 1.99 3.0625 3 C1.75039745 6.70476015 1.39735865 10.09263991 1 14 C0.67 14 0.34 14 0 14 C0 9.38 0 4.76 0 0 Z " transform="translate(402,477)" style="fill: #5A4132;"/><path d="M0 0 C3.34249629 0.59687434 5.46436342 1.73603877 8 4 C8 4.66 8 5.32 8 6 C5.21788056 5.62403791 3.4120716 5.32681541 1.1875 3.5625 C0 2 0 2 0 0 Z " transform="translate(607,327)" style="fill: #ECE4E5;"/><path d="M0 0 C3.3 0.66 6.6 1.32 10 2 C6 4 6 4 3 3 C2.67 3.99 2.34 4.98 2 6 C1.01 5.01 0.02 4.02 -1 3 C-0.67 2.01 -0.34 1.02 0 0 Z " transform="translate(412,841)" style="fill: #E5DBE3;"/><path d="M0 0 C1.98 1.32 3.96 2.64 6 4 C2.06329512 5.31223496 -0.12488144 4.24296256 -4 3 C-2.68 2.01 -1.36 1.02 0 0 Z " transform="translate(621,335)" style="fill: #D5CED4;"/><path d="M0 0 C0.33 0.66 0.66 1.32 1 2 C-2.32307692 5.93846154 -2.32307692 5.93846154 -5.75 6.25 C-6.4925 6.1675 -7.235 6.085 -8 6 C-5.51047079 3.33264727 -3.36591866 1.44253657 0 0 Z " transform="translate(414,321)" style="fill: #E2DCD8;"/><path d="M0 0 C0.99 0 1.98 0 3 0 C3 3.3 3 6.6 3 10 C2.34 9.67 1.68 9.34 1 9 C0.5859375 6.93359375 0.5859375 6.93359375 0.375 4.4375 C0.30023438 3.61121094 0.22546875 2.78492188 0.1484375 1.93359375 C0.09945313 1.29550781 0.05046875 0.65742187 0 0 Z " transform="translate(388,576)" style="fill: #5A4430;"/><path d="M0 0 C4.17882671 2.56428003 7.12505529 5.01930733 10 9 C7.625 8.25 7.625 8.25 5 7 C4.31731862 5.67479497 3.6492959 4.34187818 3 3 C0.94999129 2.19471111 0.94999129 2.19471111 -1 2 C-0.67 1.34 -0.34 0.68 0 0 Z " transform="translate(557,551)" style="fill: #CAA07F;"/><path d="M0 0 C0.33 0 0.66 0 1 0 C1.33 3.63 1.66 7.26 2 11 C1.01 11.495 1.01 11.495 0 12 C-1.31517278 8.05448165 -1.9115792 3.8231584 0 0 Z " transform="translate(439,590)" style="fill: #EED3AD;"/><path d="M0 0 C2.99324263 1.0975223 3.84610901 1.67682892 5.25 4.625 C5.4975 5.40875 5.745 6.1925 6 7 C4.02 6.34 2.04 5.68 0 5 C0 3.35 0 1.7 0 0 Z " transform="translate(567,562)" style="fill: #D0A07A;"/><path d="M0 0 C-0.33 1.32 -0.66 2.64 -1 4 C-3.31 4.33 -5.62 4.66 -8 5 C-3.375 0 -3.375 0 0 0 Z " transform="translate(483,298)" style="fill: #EBE4E1;"/><path d="M0 0 C0.99 0.33 1.98 0.66 3 1 C0.69 3.31 -1.62 5.62 -4 8 C-4.33 6.68 -4.66 5.36 -5 4 C-4.01 3.67 -3.02 3.34 -2 3 C-1.34 2.01 -0.68 1.02 0 0 Z " transform="translate(565,661)" style="fill: #B5896C;"/><path d="M0 0 C2.875 -0.125 2.875 -0.125 6 0 C6.66 0.66 7.32 1.32 8 2 C6.02 2.99 6.02 2.99 4 4 C2.68 2.68 1.36 1.36 0 0 Z " transform="translate(537,329)" style="fill: #EBE4E6;"/><path d="M0 0 C0.99 0 1.98 0 3 0 C3.66 1.98 4.32 3.96 5 6 C3.68 6.33 2.36 6.66 1 7 C0.67 4.69 0.34 2.38 0 0 Z " transform="translate(408,651)" style="fill: #51423A;"/><path d="M0 0 C0.33 0.66 0.66 1.32 1 2 C1.66 2 2.32 2 3 2 C3 2.99 3 3.98 3 5 C1.35 5.33 -0.3 5.66 -2 6 C-1.49396008 3.83125748 -1.00016187 2.00032373 0 0 Z " transform="translate(419,653)" style="fill: #F4F0F5;"/><path d="M0 0 C0.66 0.33 1.32 0.66 2 1 C1.67 1.66 1.34 2.32 1 3 C0.34 3 -0.32 3 -1 3 C-1.66 4.32 -2.32 5.64 -3 7 C-3.66 5.68 -4.32 4.36 -5 3 C-4.01 3 -3.02 3 -2 3 C-2 2.34 -2 1.68 -2 1 C-1.34 0.67 -0.68 0.34 0 0 Z " transform="translate(450,570)" style="fill: #E7C59A;"/><path d="M0 0 C0.66 0 1.32 0 2 0 C2.33 1.98 2.66 3.96 3 6 C1.68 5.67 0.36 5.34 -1 5 C-0.67 3.35 -0.34 1.7 0 0 Z " transform="translate(675,397)" style="fill: #DBDADE;"/><path d="M0 0 C0.99 0.66 1.98 1.32 3 2 C3 2.99 3 3.98 3 5 C0.5625 4.625 0.5625 4.625 -2 4 C-2.33 3.34 -2.66 2.68 -3 2 C-2.01 1.34 -1.02 0.68 0 0 Z " transform="translate(562,333)" style="fill: #E7E5EB;"/><path d="M0 0 C4 2 4 2 4.8125 3.9375 C5 6 5 6 4 9 C2.68 6.03 1.36 3.06 0 0 Z " transform="translate(443,641)" style="fill: #E2BE9A;"/><path d="M0 0 C1.65 0 3.3 0 5 0 C4.25 1.9375 4.25 1.9375 3 4 C0.875 4.75 0.875 4.75 -1 5 C-1 2 -1 2 0 0 Z " transform="translate(463,551)" style="fill: #DBBA98;"/><path d="M0 0 C-3.35327639 2.23551759 -3.90743657 2.17283528 -7.6875 1.625 C-8.49574219 1.51414062 -9.30398438 1.40328125 -10.13671875 1.2890625 C-10.75160156 1.19367187 -11.36648438 1.09828125 -12 1 C-12 0.67 -12 0.34 -12 0 C-7.74433453 -1.16063604 -4.3164922 -0.76173392 0 0 Z " transform="translate(505,536)" style="fill: #D5B191;"/><path d="M0 0 C0.66 2.64 1.32 5.28 2 8 C-0.52588702 5.63707344 -1.88820837 4.33537489 -3 1 C-2 0 -2 0 0 0 Z " transform="translate(422,258)" style="fill: #CBCDCF;"/><path d="M0 0 C1.32 0 2.64 0 4 0 C4 0.66 4 1.32 4 2 C0.53846154 5 0.53846154 5 -2 5 C-2 4.01 -2 3.02 -2 2 C-1.34 2 -0.68 2 0 2 C0 1.34 0 0.68 0 0 Z " transform="translate(416,189)" style="fill: #F7EEF9;"/></svg>