<svg xmlns="http://www.w3.org/2000/svg" id="svg0.7814047881169492" viewBox="0 0 1024 1024"><path d="M0 0 C337.92 0 675.84 0 1024 0 C1024 337.92 1024 675.84 1024 1024 C686.08 1024 348.16 1024 0 1024 C0 686.08 0 348.16 0 0 Z " transform="translate(0,0)" style="fill: #EFEEEE;"/><path d="M0 0 C1.23021881 -0.01292336 1.23021881 -0.01292336 2.48529053 -0.02610779 C5.18916628 -0.0487608 7.89200497 -0.04203009 10.59594727 -0.03295898 C12.48015144 -0.0381951 14.36435299 -0.04447154 16.24855042 -0.05174255 C20.19528548 -0.06214569 24.14165999 -0.05758688 28.08837891 -0.04296875 C33.14042578 -0.0257863 38.19133477 -0.04926982 43.24325466 -0.08445835 C47.13385014 -0.10644405 51.02417388 -0.10498795 54.91481209 -0.09669304 C56.77710276 -0.09587406 58.6394135 -0.10272727 60.50164604 -0.11746407 C63.10857447 -0.13493082 65.71346517 -0.12035101 68.3203125 -0.09765625 C69.08569839 -0.10934845 69.85108429 -0.12104065 70.6396637 -0.13308716 C76.43833235 -0.03063877 78.83255259 1.52084297 82.72485352 5.53344727 C83.421875 7.70239258 83.421875 7.70239258 83.34594727 9.86157227 C83.33112305 10.66208008 83.31629883 11.46258789 83.30102539 12.28735352 C83.25526367 13.11106445 83.20950195 13.93477539 83.16235352 14.78344727 C83.14366211 15.59168945 83.1249707 16.39993164 83.10571289 17.23266602 C82.94374591 22.70452356 82.38477566 28.10136088 81.72485352 33.53344727 C83.08610352 33.62625977 83.08610352 33.62625977 84.47485352 33.72094727 C87.72485352 34.53344727 87.72485352 34.53344727 89.90063477 36.45922852 C92.49536886 40.83193887 92.27443731 44.54391075 92.16235352 49.53344727 C92.16944336 50.42290039 92.1765332 51.31235352 92.18383789 52.22875977 C92.1362453 57.13445767 91.91928469 60.56927364 88.72485352 64.53344727 C85.60195049 67.40980532 82.73664803 69.15797486 78.72485352 70.53344727 C78.55228615 76.31445405 79.22321189 81.76260745 80.09985352 87.47094727 C80.38085725 89.36792658 80.66079856 91.26506357 80.93969727 93.16235352 C81.07617676 94.08677246 81.21265625 95.01119141 81.35327148 95.96362305 C81.83189625 99.27374414 82.25519461 102.58881838 82.66235352 105.90844727 C84.99529073 124.89971301 87.40073864 143.8718119 90.29467773 162.78686523 C91.28057026 169.29453144 92.12613118 175.80170219 92.86572266 182.34179688 C95.56308441 205.8442344 103.74305584 215.61044742 121.87426758 230.05395508 C145.63718234 249.05174709 159.9212939 276.11273249 163.30656815 306.32972717 C164.3330884 317.37538047 164.02314892 328.53389899 164.01562095 339.61790824 C164.01520855 343.41484738 164.02629142 347.21175721 164.03573608 351.00868225 C164.05225312 358.42608509 164.05784129 365.84345612 164.05896084 373.26087582 C164.05991525 379.29440008 164.06404502 385.32791396 164.07036209 391.36143494 C164.08794501 408.50650562 164.09720498 425.65155139 164.09570114 442.79663116 C164.09562123 443.71831075 164.09554132 444.63999034 164.09545898 445.58959961 C164.09537722 446.51241704 164.09529546 447.43523447 164.09521122 448.38601607 C164.09439799 463.34747506 164.11355291 478.30883347 164.14173572 493.27026337 C164.17051442 508.67066331 164.18427344 524.07101425 164.18254817 539.47144175 C164.18188624 548.10250006 164.18729223 556.73345275 164.20890427 565.36448669 C164.22718134 572.70996501 164.23140972 580.05528974 164.21788542 587.40078104 C164.21139 591.14162419 164.2111133 594.88217323 164.22859192 598.62298775 C164.39922237 637.61573531 164.39922237 637.61573531 153.72485352 650.53344727 C145.34063879 658.68722903 135.26835767 661.6874069 123.82588196 661.67388916 C123.03645633 661.67686028 122.24703071 661.6798314 121.4336831 661.68289256 C118.79155268 661.6915559 116.1494677 661.69308581 113.50732422 661.69458008 C111.61150516 661.69920996 109.71568704 661.70423485 107.81987 661.70962524 C102.67089887 661.72273561 97.52194077 661.72919164 92.37295556 661.7336359 C89.15414966 661.73656906 85.93534731 661.74067435 82.7165432 661.74514008 C72.64010011 661.75881194 62.56366515 661.7684799 52.48721343 661.77234197 C40.86591815 661.77682091 29.24474059 661.79436259 17.62348109 661.82334256 C8.63391165 661.84497959 -0.35562471 661.85504734 -9.34521991 661.85638309 C-14.7110804 661.85742974 -20.07683018 661.86330777 -25.44266319 661.8812027 C-30.493053 661.8977181 -35.5432493 661.89982202 -40.59365654 661.89106369 C-42.442294 661.89029515 -44.29094201 661.89461175 -46.13955307 661.90452194 C-60.15183133 661.97520549 -71.06117209 661.35928077 -81.83764648 651.34594727 C-92.05625373 640.69874502 -93.73547341 627.2724324 -93.65609741 613.05635071 C-93.66077738 611.75135547 -93.66545736 610.44636024 -93.67027915 609.10181969 C-93.68270252 605.51316823 -93.67665867 601.92475877 -93.66732049 598.3361069 C-93.66049411 594.45250482 -93.67102913 590.56894252 -93.67926025 586.68534851 C-93.6925636 579.08923591 -93.68973451 571.49321251 -93.68102233 563.89709649 C-93.67423028 557.71760127 -93.67333564 551.53813093 -93.67659378 545.35863304 C-93.67705348 544.47705161 -93.67751318 543.59547018 -93.67798681 542.68717417 C-93.67894605 540.89585 -93.6799187 539.10452584 -93.68090458 537.31320169 C-93.68944917 520.53456478 -93.67964027 503.75597712 -93.66350348 486.97734829 C-93.65011283 472.61003692 -93.65241987 458.24279832 -93.66625977 443.87548828 C-93.68235223 427.16213112 -93.68861304 410.44881714 -93.67942297 393.73545331 C-93.67846741 391.94941565 -93.6775243 390.16337799 -93.67659378 388.37734032 C-93.67613095 387.49875699 -93.67566813 386.62017366 -93.67519128 385.7149666 C-93.67261149 379.55222391 -93.67695071 373.38950881 -93.68403244 367.2267704 C-93.692489 359.70263852 -93.69008115 352.17860041 -93.67419021 344.65447912 C-93.66636116 340.82245805 -93.66312277 336.99059271 -93.67313766 333.15857315 C-93.74817142 301.86922228 -89.88851443 270.96595016 -68.27514648 246.53344727 C-67.26194336 245.34235352 -67.26194336 245.34235352 -66.22827148 244.12719727 C-58.95944952 235.77578479 -51.06274419 228.48672132 -42.1003418 222.0168457 C-30.99951219 213.98915577 -25.30600809 206.68506279 -22.80322266 192.94207764 C-22.41806474 190.24426516 -22.08598933 187.54549945 -21.77514648 184.83813477 C-21.65333008 183.84701691 -21.53151367 182.85589905 -21.40600586 181.83474731 C-21.02083263 178.69357935 -20.64704836 175.55121184 -20.27514648 172.40844727 C-19.78158831 168.28003878 -19.28215334 164.15241363 -18.77514648 160.02563477 C-18.65275604 159.02894775 -18.5303656 158.03226074 -18.40426636 157.00537109 C-17.50660063 149.89595875 -16.30179924 142.89879625 -14.90893555 135.87182617 C-14.08358237 131.52441502 -13.55992971 127.18660822 -13.15014648 122.78344727 C-12.38883455 114.98333899 -12.38883455 114.98333899 -11.77833557 112.56744385 C-11.25178487 110.4390147 -10.99820758 108.40623063 -10.79443359 106.22387695 C-10.71442612 105.3833075 -10.63441864 104.54273804 -10.55198669 103.67669678 C-10.42848595 102.32961639 -10.42848595 102.32961639 -10.30249023 100.95532227 C-10.17143639 99.56546112 -10.17143639 99.56546112 -10.03773499 98.14752197 C-9.75982106 95.19309255 -9.48618032 92.23828512 -9.21264648 89.28344727 C-9.02477709 87.27821252 -8.83662935 85.27300384 -8.64819336 83.26782227 C-8.18728271 78.35666026 -7.73020362 73.44515496 -7.27514648 68.53344727 C-8.69682129 68.56970215 -8.69682129 68.56970215 -10.1472168 68.60668945 C-13.63011891 68.52513539 -14.53114177 68.09440577 -17.02514648 65.78344727 C-17.59749023 65.27297852 -18.16983398 64.76250977 -18.75952148 64.23657227 C-22.83079749 59.66163325 -22.73515099 55.00514667 -22.83764648 49.15844727 C-22.88727539 48.32055664 -22.9369043 47.48266602 -22.98803711 46.61938477 C-23.04819165 42.97573805 -23.0567232 40.52509302 -20.74731445 37.5949707 C-16.15037586 33.53344727 -16.15037586 33.53344727 -13.27514648 33.53344727 C-13.30133057 32.67589844 -13.32751465 31.81834961 -13.35449219 30.93481445 C-13.43985245 27.74428537 -13.50246161 24.55433919 -13.54980469 21.36303711 C-13.57490579 19.98361025 -13.60899522 18.60431585 -13.65234375 17.2253418 C-13.71317523 15.24008854 -13.73872585 13.25385368 -13.76342773 11.26782227 C-13.78961182 10.07382813 -13.8157959 8.87983398 -13.84277344 7.6496582 C-13.27514648 4.53344727 -13.27514648 4.53344727 -11.25686646 2.37202454 C-7.46980288 0.03685924 -4.31578165 -0.03670041 0 0 Z " transform="translate(484.275146484375,181.466552734375)" style="fill: #FBFCFB;"/><path d="M0 0 C1.23021881 -0.01292336 1.23021881 -0.01292336 2.48529053 -0.02610779 C5.18916628 -0.0487608 7.89200497 -0.04203009 10.59594727 -0.03295898 C12.48015144 -0.0381951 14.36435299 -0.04447154 16.24855042 -0.05174255 C20.19528548 -0.06214569 24.14165999 -0.05758688 28.08837891 -0.04296875 C33.14042578 -0.0257863 38.19133477 -0.04926982 43.24325466 -0.08445835 C47.13385014 -0.10644405 51.02417388 -0.10498795 54.91481209 -0.09669304 C56.77710276 -0.09587406 58.6394135 -0.10272727 60.50164604 -0.11746407 C63.10857447 -0.13493082 65.71346517 -0.12035101 68.3203125 -0.09765625 C69.08569839 -0.10934845 69.85108429 -0.12104065 70.6396637 -0.13308716 C76.43833235 -0.03063877 78.83255259 1.52084297 82.72485352 5.53344727 C83.421875 7.70239258 83.421875 7.70239258 83.34594727 9.86157227 C83.33112305 10.66208008 83.31629883 11.46258789 83.30102539 12.28735352 C83.25526367 13.11106445 83.20950195 13.93477539 83.16235352 14.78344727 C83.14366211 15.59168945 83.1249707 16.39993164 83.10571289 17.23266602 C82.94374591 22.70452356 82.38477566 28.10136088 81.72485352 33.53344727 C83.08610352 33.62625977 83.08610352 33.62625977 84.47485352 33.72094727 C87.72485352 34.53344727 87.72485352 34.53344727 89.90063477 36.45922852 C92.49536886 40.83193887 92.27443731 44.54391075 92.16235352 49.53344727 C92.16944336 50.42290039 92.1765332 51.31235352 92.18383789 52.22875977 C92.1362453 57.13445767 91.91928469 60.56927364 88.72485352 64.53344727 C85.60195049 67.40980532 82.73664803 69.15797486 78.72485352 70.53344727 C78.55228615 76.31445405 79.22321189 81.76260745 80.09985352 87.47094727 C80.38085725 89.36792658 80.66079856 91.26506357 80.93969727 93.16235352 C81.07617676 94.08677246 81.21265625 95.01119141 81.35327148 95.96362305 C81.83189625 99.27374414 82.25519461 102.58881838 82.66235352 105.90844727 C84.99529073 124.89971301 87.40073864 143.8718119 90.29467773 162.78686523 C91.28057026 169.29453144 92.12613118 175.80170219 92.86572266 182.34179688 C95.56308441 205.8442344 103.74305584 215.61044742 121.87426758 230.05395508 C145.63718234 249.05174709 159.9212939 276.11273249 163.30656815 306.32972717 C164.3330884 317.37538047 164.02314892 328.53389899 164.01562095 339.61790824 C164.01520855 343.41484738 164.02629142 347.21175721 164.03573608 351.00868225 C164.05225312 358.42608509 164.05784129 365.84345612 164.05896084 373.26087582 C164.05991525 379.29440008 164.06404502 385.32791396 164.07036209 391.36143494 C164.08794501 408.50650562 164.09720498 425.65155139 164.09570114 442.79663116 C164.09562123 443.71831075 164.09554132 444.63999034 164.09545898 445.58959961 C164.09537722 446.51241704 164.09529546 447.43523447 164.09521122 448.38601607 C164.09439799 463.34747506 164.11355291 478.30883347 164.14173572 493.27026337 C164.17051442 508.67066331 164.18427344 524.07101425 164.18254817 539.47144175 C164.18188624 548.10250006 164.18729223 556.73345275 164.20890427 565.36448669 C164.22718134 572.70996501 164.23140972 580.05528974 164.21788542 587.40078104 C164.21139 591.14162419 164.2111133 594.88217323 164.22859192 598.62298775 C164.39922237 637.61573531 164.39922237 637.61573531 153.72485352 650.53344727 C145.34063879 658.68722903 135.26835767 661.6874069 123.82588196 661.67388916 C123.03645633 661.67686028 122.24703071 661.6798314 121.4336831 661.68289256 C118.79155268 661.6915559 116.1494677 661.69308581 113.50732422 661.69458008 C111.61150516 661.69920996 109.71568704 661.70423485 107.81987 661.70962524 C102.67089887 661.72273561 97.52194077 661.72919164 92.37295556 661.7336359 C89.15414966 661.73656906 85.93534731 661.74067435 82.7165432 661.74514008 C72.64010011 661.75881194 62.56366515 661.7684799 52.48721343 661.77234197 C40.86591815 661.77682091 29.24474059 661.79436259 17.62348109 661.82334256 C8.63391165 661.84497959 -0.35562471 661.85504734 -9.34521991 661.85638309 C-14.7110804 661.85742974 -20.07683018 661.86330777 -25.44266319 661.8812027 C-30.493053 661.8977181 -35.5432493 661.89982202 -40.59365654 661.89106369 C-42.442294 661.89029515 -44.29094201 661.89461175 -46.13955307 661.90452194 C-60.15183133 661.97520549 -71.06117209 661.35928077 -81.83764648 651.34594727 C-92.05625373 640.69874502 -93.73547341 627.2724324 -93.65609741 613.05635071 C-93.66077738 611.75135547 -93.66545736 610.44636024 -93.67027915 609.10181969 C-93.68270252 605.51316823 -93.67665867 601.92475877 -93.66732049 598.3361069 C-93.66049411 594.45250482 -93.67102913 590.56894252 -93.67926025 586.68534851 C-93.6925636 579.08923591 -93.68973451 571.49321251 -93.68102233 563.89709649 C-93.67423028 557.71760127 -93.67333564 551.53813093 -93.67659378 545.35863304 C-93.67705348 544.47705161 -93.67751318 543.59547018 -93.67798681 542.68717417 C-93.67894605 540.89585 -93.6799187 539.10452584 -93.68090458 537.31320169 C-93.68944917 520.53456478 -93.67964027 503.75597712 -93.66350348 486.97734829 C-93.65011283 472.61003692 -93.65241987 458.24279832 -93.66625977 443.87548828 C-93.68235223 427.16213112 -93.68861304 410.44881714 -93.67942297 393.73545331 C-93.67846741 391.94941565 -93.6775243 390.16337799 -93.67659378 388.37734032 C-93.67613095 387.49875699 -93.67566813 386.62017366 -93.67519128 385.7149666 C-93.67261149 379.55222391 -93.67695071 373.38950881 -93.68403244 367.2267704 C-93.692489 359.70263852 -93.69008115 352.17860041 -93.67419021 344.65447912 C-93.66636116 340.82245805 -93.66312277 336.99059271 -93.67313766 333.15857315 C-93.74817142 301.86922228 -89.88851443 270.96595016 -68.27514648 246.53344727 C-67.26194336 245.34235352 -67.26194336 245.34235352 -66.22827148 244.12719727 C-58.95944952 235.77578479 -51.06274419 228.48672132 -42.1003418 222.0168457 C-30.99951219 213.98915577 -25.30600809 206.68506279 -22.80322266 192.94207764 C-22.41806474 190.24426516 -22.08598933 187.54549945 -21.77514648 184.83813477 C-21.65333008 183.84701691 -21.53151367 182.85589905 -21.40600586 181.83474731 C-21.02083263 178.69357935 -20.64704836 175.55121184 -20.27514648 172.40844727 C-19.78158831 168.28003878 -19.28215334 164.15241363 -18.77514648 160.02563477 C-18.65275604 159.02894775 -18.5303656 158.03226074 -18.40426636 157.00537109 C-17.50660063 149.89595875 -16.30179924 142.89879625 -14.90893555 135.87182617 C-14.08358237 131.52441502 -13.55992971 127.18660822 -13.15014648 122.78344727 C-12.38883455 114.98333899 -12.38883455 114.98333899 -11.77833557 112.56744385 C-11.25178487 110.4390147 -10.99820758 108.40623063 -10.79443359 106.22387695 C-10.71442612 105.3833075 -10.63441864 104.54273804 -10.55198669 103.67669678 C-10.42848595 102.32961639 -10.42848595 102.32961639 -10.30249023 100.95532227 C-10.17143639 99.56546112 -10.17143639 99.56546112 -10.03773499 98.14752197 C-9.75982106 95.19309255 -9.48618032 92.23828512 -9.21264648 89.28344727 C-9.02477709 87.27821252 -8.83662935 85.27300384 -8.64819336 83.26782227 C-8.18728271 78.35666026 -7.73020362 73.44515496 -7.27514648 68.53344727 C-8.69682129 68.56970215 -8.69682129 68.56970215 -10.1472168 68.60668945 C-13.63011891 68.52513539 -14.53114177 68.09440577 -17.02514648 65.78344727 C-17.59749023 65.27297852 -18.16983398 64.76250977 -18.75952148 64.23657227 C-22.83079749 59.66163325 -22.73515099 55.00514667 -22.83764648 49.15844727 C-22.88727539 48.32055664 -22.9369043 47.48266602 -22.98803711 46.61938477 C-23.04819165 42.97573805 -23.0567232 40.52509302 -20.74731445 37.5949707 C-16.15037586 33.53344727 -16.15037586 33.53344727 -13.27514648 33.53344727 C-13.30133057 32.67589844 -13.32751465 31.81834961 -13.35449219 30.93481445 C-13.43985245 27.74428537 -13.50246161 24.55433919 -13.54980469 21.36303711 C-13.57490579 19.98361025 -13.60899522 18.60431585 -13.65234375 17.2253418 C-13.71317523 15.24008854 -13.73872585 13.25385368 -13.76342773 11.26782227 C-13.78961182 10.07382813 -13.8157959 8.87983398 -13.84277344 7.6496582 C-13.27514648 4.53344727 -13.27514648 4.53344727 -11.25686646 2.37202454 C-7.46980288 0.03685924 -4.31578165 -0.03670041 0 0 Z M4.72485352 68.53344727 C4.40696416 71.23873461 4.14481785 73.93386784 3.90844727 76.64672852 C2.6873923 89.6680994 1.00240511 102.62953299 -0.67919922 115.59765625 C-1.03617388 118.3514958 -1.38996394 121.10571341 -1.74072266 123.86035156 C-3.44065766 137.20984135 -5.15567297 150.52728726 -7.62060547 163.76074219 C-8.94296706 171.38269433 -9.72095931 179.07929859 -10.58007812 186.76464844 C-12.81113053 206.57165924 -12.81113053 206.57165924 -16.52514648 213.09594727 C-16.90155273 213.77786133 -17.27795898 214.45977539 -17.66577148 215.16235352 C-22.2797446 221.96012458 -27.63301464 226.53421432 -34.33764648 231.22094727 C-58.90030978 248.93719562 -75.44447374 270.91669188 -80.85006583 301.38133216 C-81.60453926 306.97600478 -81.54592129 312.55097002 -81.52238464 318.18777466 C-81.52397615 319.53711696 -81.52644311 320.88645846 -81.52970105 322.23579776 C-81.53606855 325.91456533 -81.53008252 329.59322155 -81.52193677 333.27198172 C-81.51532417 337.25003484 -81.52031579 341.22807624 -81.52381897 345.20613098 C-81.52884568 352.98482765 -81.52323968 360.76348162 -81.51396867 368.54217298 C-81.50356371 377.59866238 -81.50365537 386.65514264 -81.50414125 395.71163689 C-81.50464119 411.86221029 -81.49549624 428.01276384 -81.48095703 444.16333008 C-81.46684754 459.84464886 -81.4597873 475.52595018 -81.46044922 491.20727539 C-81.46048917 492.17459359 -81.46052913 493.14191179 -81.4605703 494.13854267 C-81.46061065 495.10417404 -81.46065101 496.06980541 -81.46069258 497.06469834 C-81.46138148 514.91637285 -81.45550087 532.76803993 -81.44653937 550.61971203 C-81.44351857 556.93822832 -81.44245931 563.25674324 -81.44200706 569.57526016 C-81.4413266 577.26343713 -81.43688475 584.95160156 -81.42767426 592.6397732 C-81.42304294 596.56494441 -81.42001569 600.49009954 -81.42126846 604.41527367 C-81.42235786 608.00225463 -81.41888003 611.58919992 -81.41161994 615.17617343 C-81.40892696 617.10057608 -81.41117575 619.02498365 -81.41355199 620.94938672 C-81.41032754 622.07669764 -81.40710309 623.20400856 -81.40378094 624.36548042 C-81.40307651 625.34641076 -81.40237209 626.3273411 -81.40164632 627.3379966 C-81.52075351 629.50959375 -81.52075351 629.50959375 -80.27514648 630.53344727 C-77.30423517 630.6314364 -74.35656217 630.66336249 -71.38523865 630.65370178 C-70.44108363 630.65455621 -69.49692861 630.65541063 -68.52416283 630.65629095 C-65.33493739 630.65794864 -62.14576362 630.65241968 -58.95654297 630.64697266 C-56.68056235 630.64669082 -54.40458164 630.64684845 -52.12860107 630.64741516 C-45.92843691 630.64770328 -39.7282919 630.64180428 -33.5281322 630.6348412 C-27.05652128 630.62861 -20.58490997 630.62800405 -14.11329651 630.6268158 C-3.244147 630.62405608 7.62499461 630.61780052 18.49414062 630.60888672 C29.69140589 630.59971335 40.88866924 630.59263215 52.0859375 630.58837891 C52.77567075 630.58811618 53.46540401 630.58785346 54.17603827 630.58758277 C57.63608809 630.58627778 61.09613791 630.58501406 64.55618775 630.58377087 C93.27908111 630.57339736 122.00196704 630.55570413 150.72485352 630.53344727 C151.7422478 627.48126441 151.85212759 625.42449053 151.85628128 622.22984886 C151.86012243 621.12315641 151.86396357 620.01646395 151.86792111 618.87623537 C151.86705463 617.65535742 151.86618815 616.43447947 151.86529541 615.17660522 C151.86826653 613.88338337 151.87123765 612.59016151 151.87429881 611.25775111 C151.88237801 607.66024358 151.88415891 604.062756 151.88489628 600.46524048 C151.88674543 596.58762577 151.89429247 592.71002144 151.90103149 588.83241272 C151.91462573 580.3461838 151.92064231 571.8599596 151.92504215 563.3737216 C151.92780488 558.07071679 151.9320425 552.76771381 151.93654633 547.46471024 C151.94874448 532.77332613 151.95904007 518.08194349 151.96242142 503.39055443 C151.96264098 502.44976836 151.96286055 501.50898229 151.96308677 500.53968755 C151.96330505 499.59666625 151.96352332 498.65364495 151.96374822 497.68204725 C151.96419168 495.77118579 151.96463824 493.86032434 151.96508789 491.94946289 C151.96530932 491.00161256 151.96553075 490.05376223 151.96575889 489.07718916 C151.96969986 473.74700843 151.98712996 458.41687544 152.01044741 443.08671312 C152.03421127 427.33529131 152.04662569 411.58389338 152.04778934 395.83245337 C152.04870371 386.99382978 152.05439507 378.15526825 152.07260895 369.31666183 C152.08807855 361.78317434 152.09309053 354.24976806 152.08487085 346.71626769 C152.08098736 342.87822457 152.08177967 339.04034462 152.09592819 335.20232201 C152.27396953 308.58869938 152.27396953 308.58869938 146.03735352 282.84594727 C145.78171631 282.15082031 145.5260791 281.45569336 145.26269531 280.73950195 C136.55644926 257.99686695 118.74993041 239.91528436 98.72485352 226.53344727 C97.73485352 226.20344727 96.74485352 225.87344727 95.72485352 225.53344727 C94.71704102 223.72485352 94.71704102 223.72485352 93.72485352 221.53344727 C92.7798513 220.16994407 91.82051997 218.81630104 90.84985352 217.47094727 C84.75777072 208.33915176 82.9689018 198.58939983 81.66235352 187.84594727 C81.49662842 186.57211182 81.33090332 185.29827637 81.16015625 183.98583984 C80.40461391 178.13813911 79.69316154 172.28519994 78.98266602 166.43188477 C78.75122858 164.52819837 78.51946058 162.62455213 78.28735352 160.72094727 C78.17037109 159.75817871 78.05338867 158.79541016 77.93286133 157.8034668 C76.76582533 148.4288902 75.27421296 139.11174773 73.78295898 129.78417969 C70.81021131 111.07543094 68.31111072 92.29884835 65.72485352 73.53344727 C48.56485352 73.53344727 31.40485352 73.53344727 13.72485352 73.53344727 C13.72485352 71.55344727 13.72485352 69.57344727 13.72485352 67.53344727 C8.9251461 67.00511011 8.9251461 67.00511011 4.72485352 68.53344727 Z " transform="translate(484.275146484375,181.466552734375)" style="fill: #2C3B46;"/><path d="M0 0 C17.16 0 34.32 0 52 0 C52.845625 6.166875 53.69125 12.33375 54.5625 18.6875 C56.87879185 35.45556532 59.41153997 52.17904802 62.0765686 68.89486694 C64.3037403 82.91483919 66.21572629 96.93698493 67.67041016 111.05883789 C69.23077186 126.64567629 69.23077186 126.64567629 74.9375 141.0625 C75.42089844 141.91972656 75.90429688 142.77695312 76.40234375 143.66015625 C77.95624401 146.09250045 77.95624401 146.09250045 80.19140625 148.18359375 C82 150 82 150 82 152 C82.53753906 152.23976563 83.07507813 152.47953125 83.62890625 152.7265625 C105.42649057 164.43333761 123.89812984 186.3496705 132.3125 209.3125 C132.65800903 210.23313232 132.65800903 210.23313232 133.01049805 211.17236328 C138.88373271 228.3071213 138.42867804 246.04300087 138.36285591 263.89835215 C138.35183917 267.79453884 138.35838931 271.6907043 138.36264038 275.5868988 C138.36823985 283.19301306 138.35802644 290.79902546 138.34235242 298.40512238 C138.32473263 307.26761692 138.32339155 316.13009228 138.32273683 324.99260159 C138.32105348 340.79814951 138.3052905 356.60365127 138.28125 372.40917969 C138.25794127 387.74479557 138.24381697 403.08038218 138.24023438 418.41601562 C138.24001161 419.36270471 138.23978884 420.30939379 138.23955932 421.28477041 C138.23911672 423.19192704 138.2386747 425.09908366 138.23823325 427.00624029 C138.23801369 427.94702636 138.23779412 428.88781242 138.2375679 429.85710716 C138.23724392 431.26474212 138.23724392 431.26474212 138.2369134 432.70081415 C138.23321634 447.32946629 138.22186157 461.95811372 138.2094375 476.58676069 C138.20500153 481.8874952 138.20156364 487.18822926 138.19881538 492.4889649 C138.19438903 500.88578061 138.18663406 509.28257891 138.17204097 517.67938362 C138.16542488 521.51573135 138.16036655 525.35206369 138.15958023 529.18841743 C138.15865146 533.34001904 138.14998 537.49156722 138.14044189 541.64315796 C138.14130838 542.86403591 138.14217486 544.08491385 138.1430676 545.3427881 C138.13922645 546.44948055 138.13538531 547.55617301 138.13142776 548.6964016 C138.13018127 549.65509348 138.12893477 550.61378537 138.1276505 551.60152853 C138 554 138 554 137 557 C60.77 557 -15.46 557 -94 557 C-94 556.67 -94 556.34 -94 556 C-74.2 555.67 -54.4 555.34 -34 555 C-40.42304468 542.37038577 -40.42304468 542.37038577 -47.90625 530.859375 C-49.22712192 528.61389274 -49.53860338 526.54812024 -50 524 C-49.36161697 524.1404776 -48.72323395 524.2809552 -48.06550598 524.4256897 C-35.85568911 526.71655052 -23.51276059 526.32848444 -11.13671875 526.3359375 C-8.61529975 526.34237625 -6.09388148 526.34910539 -3.57246399 526.35610962 C1.69673872 526.3680395 6.96589445 526.37188122 12.23510742 526.37060547 C18.28310201 526.36940531 24.33073908 526.3905037 30.37864333 526.4220928 C36.24819766 526.45163177 42.11761309 526.4585753 47.98723412 526.45738602 C50.46088306 526.45972806 52.93453537 526.46847167 55.40813637 526.48405075 C75.38007585 526.59808629 94.15743971 526.01288655 109.8125 511.8125 C124.57771148 495.46658461 125.75232183 474.52494266 125.61523438 453.57226562 C125.61874446 451.28504526 125.62441298 448.99782737 125.63204956 446.71061707 C125.64617935 440.55553858 125.62935229 434.40091323 125.60576439 428.24587822 C125.58550079 421.76991918 125.59154296 415.29397614 125.59387207 408.81799316 C125.59381866 397.94775884 125.57428935 387.07770291 125.54199219 376.20751953 C125.50891133 365.0691286 125.49473587 353.93091956 125.50097656 342.79248047 C125.50849728 329.30347748 125.5010222 315.81459926 125.47932434 302.3256073 C125.47120189 297.20011786 125.46843121 292.07466829 125.47001648 286.94917297 C125.47090284 280.9012957 125.45647935 274.85363181 125.43078995 268.80581093 C125.4236977 266.60135751 125.42151048 264.39688127 125.42490768 262.19241905 C125.4582008 235.4703607 122.6772664 211.88817712 103.6796875 191.5625 C99.78996594 187.84288288 95.55885899 184.84201209 91 182 C91.99 181.67 92.98 181.34 94 181 C92.46086372 176.64597276 90.19394114 172.91123359 87.6875 169.0625 C87.30916016 168.46759766 86.93082031 167.87269531 86.54101562 167.25976562 C84.58679526 164.23419602 82.55852385 161.41470694 80.20703125 158.68359375 C78 156 78 156 78 154 C77.4225 153.7525 76.845 153.505 76.25 153.25 C68.68964377 149.0498021 64.34961654 140.95164175 61.83984375 132.96875 C60.34554587 126.80002418 60.08811361 120.38322709 59.68286133 114.06860352 C59.27739503 107.75090903 58.51639185 101.59881109 57.50390625 95.3503418 C56.63138557 89.54917836 56.12050731 83.71327897 55.5625 77.875 C54.11319833 59.19634644 54.11319833 59.19634644 50 41 C50 37.7 50 34.4 50 31 C35.81 31 21.62 31 7 31 C5.69054799 39.51143808 4.49602271 47.95144931 3.5625 56.5 C2.6860553 64.3611724 1.70726733 72.18320101 0.5 80 C-0.49166892 86.46490611 -1.20398758 92.92588868 -1.75 99.44140625 C-1.81296265 100.18949554 -1.87592529 100.93758484 -1.9407959 101.70834351 C-2.25155937 105.44573834 -2.54679977 109.18367034 -2.82226562 112.92382812 C-4.62317681 136.24028873 -4.62317681 136.24028873 -11 142 C-11.66 142 -12.32 142 -13 142 C-13 142.66 -13 143.32 -13 144 C-14.43344 144.53190541 -15.87195367 145.05015258 -17.3125 145.5625 C-18.51326172 145.99755859 -18.51326172 145.99755859 -19.73828125 146.44140625 C-22 147 -22 147 -25 146 C-24.31164062 145.43732422 -24.31164062 145.43732422 -23.609375 144.86328125 C-16.75440434 139.1460053 -12.71594334 134.45260136 -11.5168457 125.3203125 C-11.39634628 123.92244544 -11.2831068 122.52394019 -11.17578125 121.125 C-11.03661695 119.51095155 -10.89702787 117.89693969 -10.75708008 116.28295898 C-10.64923691 114.99722488 -10.64923691 114.99722488 -10.53921509 113.68551636 C-9.10434315 96.68897634 -7.10865814 79.81807578 -4.78991699 62.92071533 C-1.89369857 41.79002125 -0.10164637 21.34573841 0 0 Z " transform="translate(498,255)" style="fill: #D9E7E8;"/><path d="M0 0 C1.23021881 -0.01292336 1.23021881 -0.01292336 2.48529053 -0.02610779 C5.18916628 -0.0487608 7.89200497 -0.04203009 10.59594727 -0.03295898 C12.48015144 -0.0381951 14.36435299 -0.04447154 16.24855042 -0.05174255 C20.19528548 -0.06214569 24.14165999 -0.05758688 28.08837891 -0.04296875 C33.14042578 -0.0257863 38.19133477 -0.04926982 43.24325466 -0.08445835 C47.13385014 -0.10644405 51.02417388 -0.10498795 54.91481209 -0.09669304 C56.77710276 -0.09587406 58.6394135 -0.10272727 60.50164604 -0.11746407 C63.10857447 -0.13493082 65.71346517 -0.12035101 68.3203125 -0.09765625 C69.08569839 -0.10934845 69.85108429 -0.12104065 70.6396637 -0.13308716 C76.43833235 -0.03063877 78.83255259 1.52084297 82.72485352 5.53344727 C83.421875 7.70239258 83.421875 7.70239258 83.34594727 9.86157227 C83.33112305 10.66208008 83.31629883 11.46258789 83.30102539 12.28735352 C83.25526367 13.11106445 83.20950195 13.93477539 83.16235352 14.78344727 C83.14366211 15.59168945 83.1249707 16.39993164 83.10571289 17.23266602 C82.94374591 22.70452356 82.38477566 28.10136088 81.72485352 33.53344727 C83.08610352 33.62625977 83.08610352 33.62625977 84.47485352 33.72094727 C87.72485352 34.53344727 87.72485352 34.53344727 89.90063477 36.45922852 C92.49536886 40.83193887 92.27443731 44.54391075 92.16235352 49.53344727 C92.16944336 50.42290039 92.1765332 51.31235352 92.18383789 52.22875977 C92.1362453 57.13445767 91.91928469 60.56927364 88.72485352 64.53344727 C85.60195049 67.40980532 82.73664803 69.15797486 78.72485352 70.53344727 C78.55228615 76.31445405 79.22321189 81.76260745 80.09985352 87.47094727 C80.38085725 89.36792658 80.66079856 91.26506357 80.93969727 93.16235352 C81.07617676 94.08677246 81.21265625 95.01119141 81.35327148 95.96362305 C81.83189625 99.27374414 82.25519461 102.58881838 82.66235352 105.90844727 C84.99529073 124.89971301 87.40073864 143.8718119 90.29467773 162.78686523 C91.28057026 169.29453144 92.12613118 175.80170219 92.86572266 182.34179688 C94.58716224 197.34090714 96.48765754 207.68042893 107.72485352 218.53344727 C105.06079102 221.51000977 105.06079102 221.51000977 102.03735352 221.72094727 C101.27422852 221.65907227 100.51110352 221.59719727 99.72485352 221.53344727 C99.39485352 222.19344727 99.06485352 222.85344727 98.72485352 223.53344727 C98.72485352 222.54344727 98.72485352 221.55344727 98.72485352 220.53344727 C97.73485352 220.86344727 96.74485352 221.19344727 95.72485352 221.53344727 C92.23117938 220.72934766 90.95764881 219.84843355 88.81079102 216.94360352 C84.26972222 208.05845293 82.29609845 199.70011537 81.12133789 189.83178711 C80.35881788 183.48840941 79.50674372 177.15627111 78.6741333 170.82177734 C78.34718856 168.32560067 78.02383563 165.82897718 77.70092773 163.33227539 C76.36279322 153.03769376 74.87475929 142.7827634 73.22485352 132.53344727 C71.26459432 120.32726508 69.53035573 108.102023 67.91235352 95.84594727 C67.80117188 95.01168213 67.68999023 94.17741699 67.57543945 93.31787109 C67.26066166 90.94881586 66.95077268 88.57917987 66.64282227 86.20922852 C66.50259895 85.15364494 66.50259895 85.15364494 66.35954285 84.07673645 C65.90190167 80.49673122 65.72485352 77.1637246 65.72485352 73.53344727 C48.56485352 73.53344727 31.40485352 73.53344727 13.72485352 73.53344727 C13.72485352 71.55344727 13.72485352 69.57344727 13.72485352 67.53344727 C11.08485352 67.86344727 8.44485352 68.19344727 5.72485352 68.53344727 C5.62615967 69.61537354 5.52746582 70.6972998 5.42578125 71.81201172 C4.0472089 86.44756468 2.21088824 101.02103469 0.32080078 115.59765625 C-0.03617388 118.3514958 -0.38996394 121.10571341 -0.74072266 123.86035156 C-2.44065766 137.20984135 -4.15567297 150.52728726 -6.62060547 163.76074219 C-7.94296706 171.38269433 -8.72095931 179.07929859 -9.58007812 186.76464844 C-11.43542874 203.23622462 -14.30768077 216.36264782 -27.57470703 227.45629883 C-30.02764162 229.32065701 -32.51229857 231.12576227 -35.02514648 232.90844727 C-35.87463867 233.52333008 -36.72413086 234.13821289 -37.59936523 234.77172852 C-40.79361021 237.07784219 -43.9968912 239.34794374 -47.27514648 241.53344727 C-47.27514648 240.21344727 -47.27514648 238.89344727 -47.27514648 237.53344727 C-46.61514648 237.53344727 -45.95514648 237.53344727 -45.27514648 237.53344727 C-45.27514648 236.54344727 -45.27514648 235.55344727 -45.27514648 234.53344727 C-47.25514648 235.52344727 -47.25514648 235.52344727 -49.27514648 236.53344727 C-50.15014648 234.53344727 -50.15014648 234.53344727 -50.27514648 231.53344727 C-47.65323535 225.97547897 -43.17423633 222.59181088 -38.27514648 219.09594727 C-28.80177565 212.24037283 -24.87133814 204.31394946 -22.80419922 192.94281006 C-22.41810845 190.24478907 -22.08602777 187.5458342 -21.77514648 184.83813477 C-21.65333008 183.84701691 -21.53151367 182.85589905 -21.40600586 181.83474731 C-21.02083263 178.69357935 -20.64704836 175.55121184 -20.27514648 172.40844727 C-19.78158831 168.28003878 -19.28215334 164.15241363 -18.77514648 160.02563477 C-18.65275604 159.02894775 -18.5303656 158.03226074 -18.40426636 157.00537109 C-17.50660063 149.89595875 -16.30179924 142.89879625 -14.90893555 135.87182617 C-14.08358237 131.52441502 -13.55992971 127.18660822 -13.15014648 122.78344727 C-12.38883455 114.98333899 -12.38883455 114.98333899 -11.77833557 112.56744385 C-11.25178487 110.4390147 -10.99820758 108.40623063 -10.79443359 106.22387695 C-10.71442612 105.3833075 -10.63441864 104.54273804 -10.55198669 103.67669678 C-10.42848595 102.32961639 -10.42848595 102.32961639 -10.30249023 100.95532227 C-10.17143639 99.56546112 -10.17143639 99.56546112 -10.03773499 98.14752197 C-9.75982106 95.19309255 -9.48618032 92.23828512 -9.21264648 89.28344727 C-9.02477709 87.27821252 -8.83662935 85.27300384 -8.64819336 83.26782227 C-8.18728271 78.35666026 -7.73020362 73.44515496 -7.27514648 68.53344727 C-8.69682129 68.56970215 -8.69682129 68.56970215 -10.1472168 68.60668945 C-13.63011891 68.52513539 -14.53114177 68.09440577 -17.02514648 65.78344727 C-17.59749023 65.27297852 -18.16983398 64.76250977 -18.75952148 64.23657227 C-22.83079749 59.66163325 -22.73515099 55.00514667 -22.83764648 49.15844727 C-22.91208984 47.90161133 -22.91208984 47.90161133 -22.98803711 46.61938477 C-23.04819165 42.97573805 -23.0567232 40.52509302 -20.74731445 37.5949707 C-16.15037586 33.53344727 -16.15037586 33.53344727 -13.27514648 33.53344727 C-13.30133057 32.67589844 -13.32751465 31.81834961 -13.35449219 30.93481445 C-13.43985245 27.74428537 -13.50246161 24.55433919 -13.54980469 21.36303711 C-13.57490579 19.98361025 -13.60899522 18.60431585 -13.65234375 17.2253418 C-13.71317523 15.24008854 -13.73872585 13.25385368 -13.76342773 11.26782227 C-13.78961182 10.07382813 -13.8157959 8.87983398 -13.84277344 7.6496582 C-13.27514648 4.53344727 -13.27514648 4.53344727 -11.25686646 2.37202454 C-7.46980288 0.03685924 -4.31578165 -0.03670041 0 0 Z " transform="translate(484.275146484375,181.466552734375)" style="fill: #2D3943;"/><path d="M0 0 C17.62769897 5.31423278 31.10616797 17.57860234 39.96875 33.53125 C46.6391531 47.00284842 48.39545182 61.4589103 48.40390015 76.31344604 C48.41047353 77.74432436 48.41047353 77.74432436 48.4171797 79.20410931 C48.43046322 82.37940185 48.43672289 85.5546667 48.44287109 88.72998047 C48.45078037 91.01572288 48.45904982 93.30146407 48.46765137 95.58720398 C48.49377794 103.07635318 48.50917054 110.56550771 48.5234375 118.0546875 C48.5288012 120.64123665 48.53417871 123.22778577 48.53956985 125.81433487 C48.56118561 136.58049793 48.58006931 147.34665782 48.59119225 158.11283684 C48.59412127 160.90041991 48.59708303 163.68800295 48.60009766 166.47558594 C48.60084371 167.168307 48.60158976 167.86102806 48.60235842 168.57474066 C48.61499195 179.77760082 48.64819553 190.98030156 48.68989949 202.18308733 C48.73248975 213.71976909 48.75550026 225.25634475 48.76111281 236.79310715 C48.76475112 243.25641172 48.77661034 249.71944559 48.80921555 256.18267441 C48.83949325 262.27149213 48.84553808 268.35987812 48.83383179 274.44875526 C48.83361269 276.66935277 48.8417799 278.8899715 48.85948563 281.11049843 C49.01238758 301.41003384 46.85165113 321.15644503 32.5625 336.75 C15.69895262 352.25930457 -4.51209177 352.03389706 -26.046875 351.8984375 C-28.57358709 351.89604762 -31.10030099 351.8951489 -33.62701416 351.8956604 C-38.89515605 351.89254975 -44.16308863 351.87661526 -49.43115234 351.84912109 C-55.48885592 351.81761911 -61.54630514 351.80712801 -67.60408473 351.8085922 C-73.48061201 351.80981985 -79.35705549 351.79932642 -85.23355865 351.78300858 C-87.71328494 351.77668098 -90.19301847 351.77271123 -92.67275238 351.77122116 C-96.14361376 351.76684889 -99.61416675 351.74926615 -103.08496094 351.72802734 C-104.59554329 351.7293869 -104.59554329 351.7293869 -106.13664246 351.73077393 C-121.63500085 351.59320853 -134.51878638 348.22233396 -146.04296875 337.3046875 C-154.23290627 328.34635768 -158.85462528 316.89943434 -158.9375 304.75 C-158.95167969 303.79738281 -158.96585937 302.84476563 -158.98046875 301.86328125 C-158.75 299.4375 -158.75 299.4375 -156.75 297.4375 C-150.69949759 297.7675274 -150.69949759 297.7675274 -148.078125 299.6171875 C-146.22672934 302.15468862 -146.22049204 304.26208759 -145.9375 307.375 C-144.57590229 317.30470036 -140.85210912 325.81115 -132.80078125 332.04296875 C-118.96832864 341.44903653 -102.01914529 339.73641368 -85.96875 339.703125 C-83.66434692 339.70447501 -81.35994411 339.70641832 -79.05554199 339.70892334 C-74.24451973 339.7118588 -69.43357213 339.70762795 -64.62255859 339.69824219 C-58.48666183 339.68684871 -52.3509401 339.69341666 -46.21504974 339.70538712 C-41.46212468 339.71264845 -36.70924044 339.71029823 -31.95631409 339.70513153 C-29.69511392 339.70380684 -27.43390993 339.70540089 -25.17271423 339.71009064 C0.04091862 340.35166191 0.04091862 340.35166191 21.78515625 328.984375 C35.46751598 314.53580313 35.98447341 298.44266296 35.88110352 279.68774414 C35.88624949 277.30610116 35.89353585 274.924462 35.90278625 272.54283142 C35.92122273 266.10882933 35.90840992 259.67524429 35.88869596 253.24125981 C35.87748722 249.21445651 35.87726875 245.18770204 35.8801403 241.16088676 C35.88085647 240.1544461 35.88085647 240.1544461 35.8815871 239.12767331 C35.88261356 237.76411273 35.88366892 236.40055218 35.88475286 235.03699165 C35.89329808 223.01035179 35.87671684 210.98387544 35.84692383 198.95727539 C35.81809819 187.32081228 35.81100264 175.68458473 35.82641602 164.0480957 C35.84322625 151.33985554 35.84716295 138.63172694 35.82970566 125.92348379 C35.82786151 124.56496554 35.82602678 123.20644728 35.82420158 121.847929 C35.82328949 121.17972661 35.8223774 120.51152421 35.82143768 119.82307326 C35.81586165 115.14313863 35.81927174 110.46327626 35.82574654 105.78334236 C35.83344794 99.4687504 35.82115755 93.15449484 35.79389763 86.8399601 C35.78705278 84.53223926 35.78687353 82.22448676 35.79411316 79.91676712 C35.85203235 59.03721513 33.61955361 41.4834298 18.59375 25.65625 C15.0760764 22.32618566 11.50170498 19.74910659 7.25 17.4375 C5.96222656 16.7259375 5.96222656 16.7259375 4.6484375 16 C-2.41249407 12.57651803 -8.78291555 11.84161392 -16.51928711 11.8894043 C-20.42061629 11.85732452 -22.33365175 11.69229646 -25.75 9.6015625 C-27.75 7.4375 -27.75 7.4375 -28.3125 4.375 C-27.75 1.4375 -27.75 1.4375 -26.171875 -0.21875 C-19.0099611 -4.19245707 -7.69411972 -1.84214218 0 0 Z " transform="translate(575.75,430.5625)" style="fill: #2B3A44;"/><path d="M0 0 C3.31719978 0.55286663 4.5964597 1.19644749 7 3.5 C7.45410156 5.67651367 7.45410156 5.67651367 7.390625 8.16796875 C7.37773438 9.06064453 7.36484375 9.95332031 7.3515625 10.87304688 C7.31804688 11.80181641 7.28453125 12.73058594 7.25 13.6875 C7.23195313 14.62787109 7.21390625 15.56824219 7.1953125 16.53710938 C7.1481655 18.85909889 7.08238231 21.1790369 7 23.5 C7.99 23.355625 8.98 23.21125 10 23.0625 C28.17620651 20.47411616 28.17620651 20.47411616 32 22.625 C33.52364827 25.48184051 33.51955068 27.31775209 33 30.5 C29.97280422 33.52719578 27.2869625 35.37546111 22.9152832 35.61352539 C22.13499756 35.60828857 21.35471191 35.60305176 20.55078125 35.59765625 C19.70322266 35.59443359 18.85566406 35.59121094 17.98242188 35.58789062 C17.10134766 35.57951172 16.22027344 35.57113281 15.3125 35.5625 C13.97348633 35.55573242 13.97348633 35.55573242 12.60742188 35.54882812 C10.40488013 35.53704983 8.20247401 35.52060164 6 35.5 C6 38.14 6 40.78 6 43.5 C6.886875 43.17 7.77375 42.84 8.6875 42.5 C14.25066764 40.93002631 20.30059894 40.64869706 26 41.5 C28.8671875 43.33203125 28.8671875 43.33203125 31 45.5 C31.52850434 48.73708907 31.63032494 50.53792509 29.8125 53.3125 C25.24871171 56.30256819 19.43357492 55.61966595 14.1875 55.5625 C13.39923828 55.55798828 12.61097656 55.55347656 11.79882812 55.54882812 C9.86585239 55.53711312 7.93291607 55.51917998 6 55.5 C6 57.48 6 59.46 6 61.5 C6.79059814 61.43941406 7.58119629 61.37882813 8.39575195 61.31640625 C12.03435846 61.04000929 15.67341103 60.7699675 19.3125 60.5 C20.55580078 60.40460937 21.79910156 60.30921875 23.08007812 60.2109375 C28.77090528 59.79271398 34.46340142 59.40938256 40.16796875 59.25 C41.00996826 59.22421875 41.85196777 59.1984375 42.71948242 59.171875 C45.57045645 59.58207831 46.91942899 60.53988464 49 62.5 C49.5625 64.875 49.5625 64.875 49 67.5 C46.32804667 70.87908654 44.80156326 72.3366183 40.53125 73.20703125 C39.18840907 73.26768001 37.84416313 73.30129733 36.5 73.3125 C35.41730835 73.34911743 35.41730835 73.34911743 34.31274414 73.38647461 C31.87461437 73.45685733 29.43907727 73.48339823 27 73.5 C26.06140137 73.50837891 25.12280273 73.51675781 24.15576172 73.52539062 C18.10201572 73.56961523 12.05487841 73.54009853 6 73.5 C6 80.76 6 88.02 6 95.5 C10.455 95.005 10.455 95.005 15 94.5 C19.95786472 94.28030142 24.91267625 94.26977021 29.875 94.25 C31.85113281 94.2190625 31.85113281 94.2190625 33.8671875 94.1875 C35.1253125 94.18234375 36.3834375 94.1771875 37.6796875 94.171875 C38.82163574 94.1625293 39.96358398 94.15318359 41.14013672 94.14355469 C44 94.5 44 94.5 45.86767578 95.86816406 C47.52125541 98.2512012 47.4842859 99.66346828 47 102.5 C44.73720622 105.53006697 43.46747995 106.40995171 39.71447754 107.13287354 C37.75689514 107.22613922 37.75689514 107.22613922 35.75976562 107.32128906 C35.03718567 107.36088745 34.31460571 107.40048584 33.57012939 107.44128418 C31.1826981 107.56751792 28.79495882 107.66676703 26.40625 107.765625 C24.73669776 107.84802436 23.06722328 107.93201326 21.39782715 108.01751709 C16.99726283 108.23824113 12.5959395 108.43573422 8.1940918 108.62890625 C4.63077155 108.78906999 1.06833961 108.96535103 -2.49416351 109.14264297 C-12.660716 109.64808275 -22.8270231 110.14334358 -33 110.5 C-34.79304565 110.57438293 -34.79304565 110.57438293 -36.62231445 110.65026855 C-38.22175903 110.69141785 -38.22175903 110.69141785 -39.85351562 110.73339844 C-40.76153931 110.76157654 -41.66956299 110.78975464 -42.60510254 110.81878662 C-45.54957915 110.4268451 -46.88504133 109.56003935 -49 107.5 C-49.5625 104.5625 -49.5625 104.5625 -49 101.5 C-46.7863311 98.88644252 -44.94852265 97.65939413 -41.54907227 97.08813477 C-38.52823057 96.87732989 -35.52789394 96.79063508 -32.5 96.75 C-31.42878906 96.72107666 -30.35757812 96.69215332 -29.25390625 96.66235352 C-26.16914967 96.58546829 -23.08547833 96.5359625 -20 96.5 C-19.21109375 96.4901709 -18.4221875 96.4803418 -17.609375 96.47021484 C-14.07069859 96.43446224 -10.53906367 96.4557617 -7 96.5 C-7 89.57 -7 82.64 -7 75.5 C-10.09181641 75.7165625 -10.09181641 75.7165625 -13.24609375 75.9375 C-15.27171338 76.07671784 -17.29733464 76.21591277 -19.32299805 76.35449219 C-20.71662911 76.45039383 -22.11018648 76.54737341 -23.50366211 76.64550781 C-45.85277463 78.21724303 -45.85277463 78.21724303 -50 75.5 C-51.0625 72.125 -51.0625 72.125 -51 68.5 C-48.25103482 65.44017471 -45.94872602 64.26888979 -41.9440918 63.86230469 C-40.36335133 63.77969456 -38.78146556 63.71726096 -37.19921875 63.671875 C-36.36284378 63.6331427 -35.52646881 63.5944104 -34.66474915 63.55450439 C-32.00607462 63.43540989 -29.34722433 63.34235321 -26.6875 63.25 C-24.87948385 63.17359355 -23.07153867 63.09548732 -21.26367188 63.015625 C-16.84302779 62.82405194 -12.422043 62.65581502 -8 62.5 C-7.67 60.85 -7.34 59.2 -7 57.5 C-7.55461914 57.51571045 -8.10923828 57.5314209 -8.68066406 57.54760742 C-11.20367152 57.61012862 -13.72651576 57.64904342 -16.25 57.6875 C-17.12269531 57.71263672 -17.99539063 57.73777344 -18.89453125 57.76367188 C-25.34290437 57.83750821 -25.34290437 57.83750821 -28.578125 56.17578125 C-30 54.5 -30 54.5 -30.5 51.5 C-30 48.5 -30 48.5 -28.578125 46.85546875 C-24.61167495 44.77007759 -20.66995318 44.92675285 -16.25 44.8125 C-15.36183594 44.77833984 -14.47367187 44.74417969 -13.55859375 44.70898438 C-11.37252197 44.62671286 -9.18684049 44.55749828 -7 44.5 C-7 42.19 -7 39.88 -7 37.5 C-8.794375 37.7475 -8.794375 37.7475 -10.625 38 C-14.85024662 38.44334861 -19.06651806 38.72415007 -23.3125 38.875 C-24.48425781 38.92398438 -25.65601563 38.97296875 -26.86328125 39.0234375 C-30 38.5 -30 38.5 -32.41796875 36.140625 C-34 33.5 -34 33.5 -34 30.875 C-32.77462247 27.96472836 -31.68551266 27.12585364 -29 25.5 C-26.52636719 25.15942383 -26.52636719 25.15942383 -23.796875 25.20703125 C-22.32734375 25.2215332 -22.32734375 25.2215332 -20.828125 25.23632812 C-19.30445313 25.2740332 -19.30445313 25.2740332 -17.75 25.3125 C-16.203125 25.33280273 -16.203125 25.33280273 -14.625 25.35351562 C-12.08280208 25.38882393 -9.54166777 25.43813964 -7 25.5 C-7.02094727 24.92032471 -7.04189453 24.34064941 -7.06347656 23.7434082 C-7.14696807 21.09995076 -7.19876153 18.4567712 -7.25 15.8125 C-7.30027344 14.44448242 -7.30027344 14.44448242 -7.3515625 13.04882812 C-7.4146245 8.71331566 -7.40693737 6.19301087 -5.171875 2.38671875 C-3 0.5 -3 0.5 0 0 Z " transform="translate(521,531.5)" style="fill: #2E3E47;"/><path d="M0 0 C0.78632813 -0.01393799 1.57265625 -0.02787598 2.3828125 -0.04223633 C7.88066749 0.00377833 7.88066749 0.00377833 10.44140625 1.7109375 C12.01778388 4.34441543 11.81131628 6.38446974 11.4375 9.375 C9.58407225 11.93449546 8.49993607 12.35418798 5.4375 13.375 C3.53845055 13.46798936 1.63900283 13.55701259 -0.26147461 13.61376953 C-13.40470463 14.04666903 -23.13940262 17.13094737 -33.5625 25.375 C-34.19929688 25.83648437 -34.83609375 26.29796875 -35.4921875 26.7734375 C-46.19196843 35.00038017 -52.8925007 50.15592738 -54.84838963 63.29560947 C-55.86868727 72.13643467 -55.72306943 81.01857644 -55.73608398 89.90405273 C-55.7423982 91.77255912 -55.74916495 93.64106402 -55.75634766 95.50956726 C-55.77095001 99.5156517 -55.78270128 103.5217306 -55.79229546 107.52783012 C-55.80780634 113.85981311 -55.83175097 120.19174704 -55.85719299 126.5236969 C-55.92825505 144.52284652 -55.98832639 162.52202282 -56.03930664 180.52124023 C-56.06757397 190.47525325 -56.10292426 200.42921602 -56.14596039 210.38317639 C-56.17276327 216.68127994 -56.19064841 222.97932678 -56.20199764 229.27747619 C-56.21110048 233.18579962 -56.22844943 237.09405361 -56.24817657 241.0023365 C-56.25567042 242.81842588 -56.25973423 244.63453303 -56.26017189 246.45063782 C-56.26124933 248.92336168 -56.27445039 251.39572961 -56.29075623 253.86839294 C-56.28813937 254.5921134 -56.28552252 255.31583385 -56.28282636 256.06148523 C-56.32074192 259.7244484 -56.47164366 261.2387155 -58.5625 264.375 C-65.3125 263.5 -65.3125 263.5 -67.5625 262.375 C-67.65613617 236.83537447 -67.72657351 211.29577485 -67.76974869 185.75601196 C-67.7903327 173.89620204 -67.81837347 162.03649907 -67.86425781 150.17675781 C-67.90425325 139.83415145 -67.92996302 129.49162259 -67.93885398 119.14894104 C-67.94404726 113.67768758 -67.95616593 108.20665574 -67.98542023 102.73547363 C-68.01279046 97.57430368 -68.02090176 92.41344435 -68.01493073 87.25220871 C-68.01602137 85.36899496 -68.02384541 83.48576964 -68.0393219 81.60261917 C-68.1536721 66.95682176 -66.82773921 53.01417437 -59.6875 39.875 C-59.34162842 39.21193848 -58.99575684 38.54887695 -58.6394043 37.86572266 C-56.04822681 33.00644222 -53.15016531 28.56214666 -49.5625 24.375 C-48.80710937 23.41980469 -48.05171875 22.46460938 -47.2734375 21.48046875 C-44.64262167 18.33034211 -41.64462304 15.77826949 -38.375 13.3125 C-37.80402588 12.8805835 -37.23305176 12.44866699 -36.64477539 12.00366211 C-25.39470502 3.67581049 -13.95500035 0.1627527 0 0 Z " transform="translate(483.5625,428.625)" style="fill: #283942;"/><path d="M0 0 C3.15269678 0.91953656 4.09200477 1.29618223 6 3.875 C6.51171875 6.79296875 6.51171875 6.79296875 6.6875 10.0625 C6.75324219 11.14917969 6.81898438 12.23585938 6.88671875 13.35546875 C6.92410156 14.18691406 6.96148437 15.01835938 7 15.875 C8.02939697 15.904729 8.02939697 15.904729 9.07958984 15.93505859 C12.17845779 16.03010945 15.27663294 16.13986847 18.375 16.25 C19.99535156 16.29640625 19.99535156 16.29640625 21.6484375 16.34375 C23.1953125 16.40175781 23.1953125 16.40175781 24.7734375 16.4609375 C26.20308838 16.50806885 26.20308838 16.50806885 27.66162109 16.55615234 C30 16.875 30 16.875 32 18.875 C32.1953125 21.0390625 32.1953125 21.0390625 32.125 23.5 C32.10695313 24.31726563 32.08890625 25.13453125 32.0703125 25.9765625 C32.04710937 26.60304688 32.02390625 27.22953125 32 27.875 C33.66658635 26.20841365 33.12877582 24.17341323 33.140625 21.88671875 C33.15996094 20.87029297 33.17929687 19.85386719 33.19921875 18.80664062 C33.23288657 16.65578521 33.25128773 14.50463294 33.25390625 12.35351562 C33.4422447 4.50773224 33.4422447 4.50773224 36.3828125 1.171875 C39.28210657 -0.26479012 40.81859681 -0.71104796 44 -0.125 C46.22470829 1.53363475 46.92514296 2.42063462 47.38095093 5.18728638 C47.3845311 6.54888382 47.3845311 6.54888382 47.38818359 7.93798828 C47.39764008 8.96981232 47.40709656 10.00163635 47.4168396 11.06472778 C47.41076691 12.18032074 47.40469421 13.2959137 47.3984375 14.4453125 C47.40130768 15.59611298 47.40417786 16.74691345 47.40713501 17.93258667 C47.40917862 20.37205496 47.40362815 22.81153952 47.39111328 25.25097656 C47.37515227 28.96457214 47.39090733 32.67706471 47.41015625 36.390625 C47.40817215 38.76302322 47.40432505 41.13542076 47.3984375 43.5078125 C47.40451019 44.61126007 47.41058289 45.71470764 47.4168396 46.85159302 C47.34916768 54.37081504 46.79046842 61.40805439 41.9375 67.4375 C37.60354824 69.55837001 33.72296089 69.88650727 29 68.875 C24.58867911 65.12068435 22.39984856 60.47439424 21 54.875 C20.8125 51.375 20.8125 51.375 21 48.875 C20.34 48.875 19.68 48.875 19 48.875 C18.90332031 49.72707031 18.80664062 50.57914063 18.70703125 51.45703125 C17.91398837 55.29080208 16.55149592 58.12588225 14.6875 61.5625 C14.09324219 62.68011719 13.49898437 63.79773438 12.88671875 64.94921875 C11.07796658 67.75409531 9.89677124 69.2779208 7 70.875 C3.94049417 71.46357045 1.06969746 71.39824388 -2 70.875 C-4.45875714 68.86328961 -4.82902585 67.52470177 -5.625 64.5 C-4.88285103 61.38297434 -4.2361826 61.10663421 -1.75 59.25 C3.71687039 54.94511623 5.32641479 48.83659436 6.4609375 42.1640625 C6.70486364 40.07420881 6.86232578 37.9745319 7 35.875 C6.34 35.875 5.68 35.875 5 35.875 C4.97421875 36.45507812 4.9484375 37.03515625 4.921875 37.6328125 C4.51499297 43.23668771 3.59135557 46.52184174 0 50.875 C-2.90295805 52.32647903 -4.77261779 52.24739025 -8 51.875 C-10.58457912 50.46576116 -11.92656833 49.09653393 -14 46.875 C-14.6875 44.375 -14.6875 44.375 -14 41.875 C-11.625 39.0625 -11.625 39.0625 -9 36.875 C-8.34 36.875 -7.68 36.875 -7 36.875 C-6.98541748 35.86074951 -6.97083496 34.84649902 -6.95581055 33.80151367 C-6.89783747 30.03845971 -6.82060541 26.27600479 -6.73754883 22.51342773 C-6.70429464 20.88494591 -6.67626416 19.25634869 -6.65356445 17.62768555 C-6.62002643 15.28644639 -6.56771415 12.94626514 -6.51171875 10.60546875 C-6.50213387 9.51313179 -6.50213387 9.51313179 -6.49235535 8.39872742 C-6.40674051 5.45548062 -6.32874413 3.3618183 -4.65551758 0.8840332 C-3 -0.125 -3 -0.125 0 0 Z " transform="translate(502,648.125)" style="fill: #2D3D48;"/><path d="M0 0 C71.94 0 143.88 0 218 0 C214.76251672 5.39580547 213.8087787 6.26868675 208.27469063 8.24888229 C201.03593517 9.90923987 193.58805394 9.57174779 186.19897461 9.54931641 C184.30078839 9.55802174 182.40260919 9.56839173 180.50444031 9.58029175 C175.37228057 9.60696981 170.2404163 9.60824102 165.10820079 9.60316515 C160.81636153 9.6010196 156.52458132 9.61080763 152.23275477 9.62037599 C142.10654055 9.64252926 131.98047475 9.64346085 121.85424805 9.63134766 C111.42030039 9.61925816 100.98689145 9.64392325 90.55303568 9.68648779 C81.57948437 9.72174401 72.6061044 9.73371909 63.6324864 9.72721231 C58.27948402 9.72359142 52.92686635 9.72881106 47.57392693 9.75664139 C42.54130567 9.78183045 37.50952403 9.77788108 32.47691536 9.75181961 C30.63430622 9.7470965 28.79163765 9.75252756 26.94909668 9.76906586 C10.16374342 9.90882364 10.16374342 9.90882364 3.50763798 4.57929039 C2 3 2 3 0 0 Z " transform="translate(410,822)" style="fill: #BACEDC;"/><path d="M0 0 C1.04448807 0.00297592 1.04448807 0.00297592 2.1100769 0.00601196 C3.20290482 0.00403305 3.20290482 0.00403305 4.31781006 0.00201416 C6.72907592 0.00007842 9.14022882 0.00648418 11.55148315 0.01382446 C12.7796022 0.01515381 12.7796022 0.01515381 14.03253174 0.01651001 C31.404661 0.03851156 48.75419849 0.5200161 66.11398315 1.13882446 C66.11398315 8.06882446 66.11398315 14.99882446 66.11398315 22.13882446 C42.35398315 22.13882446 18.59398315 22.13882446 -5.88601685 22.13882446 C-5.88601685 0.02897576 -5.88601685 0.02897576 0 0 Z " transform="translate(487.8860168457031,192.86117553710938)" style="fill: #EA6F7F;"/><path d="M0 0 C3.15269678 0.91953656 4.09200477 1.29618223 6 3.875 C6.51171875 6.79296875 6.51171875 6.79296875 6.6875 10.0625 C6.75324219 11.14917969 6.81898438 12.23585938 6.88671875 13.35546875 C6.92410156 14.18691406 6.96148437 15.01835938 7 15.875 C8.02939697 15.904729 8.02939697 15.904729 9.07958984 15.93505859 C12.17845779 16.03010945 15.27663294 16.13986847 18.375 16.25 C19.99535156 16.29640625 19.99535156 16.29640625 21.6484375 16.34375 C23.1953125 16.40175781 23.1953125 16.40175781 24.7734375 16.4609375 C26.20308838 16.50806885 26.20308838 16.50806885 27.66162109 16.55615234 C30 16.875 30 16.875 32 18.875 C32.1953125 21.0390625 32.1953125 21.0390625 32.125 23.5 C32.10695313 24.31726563 32.08890625 25.13453125 32.0703125 25.9765625 C32.04710937 26.60304688 32.02390625 27.22953125 32 27.875 C33.68300669 26.19199331 33.22809077 24.05491273 33.31640625 21.74609375 C33.37924805 20.19438477 33.37924805 20.19438477 33.44335938 18.61132812 C33.48267578 17.52271484 33.52199219 16.43410156 33.5625 15.3125 C33.62727539 13.6737793 33.62727539 13.6737793 33.69335938 12.00195312 C33.79982068 9.29310436 33.90183516 6.58416008 34 3.875 C34.33 3.875 34.66 3.875 35 3.875 C35 21.365 35 38.855 35 56.875 C34.34 56.875 33.68 56.875 33 56.875 C29.95980279 51.80800466 28.8816779 46.54927278 27.6484375 40.80078125 C27.04390256 37.83427158 27.04390256 37.83427158 26 34.875 C23.72942623 34.82101013 21.45848712 34.78221258 19.1875 34.75 C17.92292969 34.72679687 16.65835938 34.70359375 15.35546875 34.6796875 C11.8661976 34.59918082 11.8661976 34.59918082 9 36.875 C7.80767387 38.92503955 7.80767387 38.92503955 7 40.875 C7 39.225 7 37.575 7 35.875 C6.34 35.875 5.68 35.875 5 35.875 C4.97421875 36.45507812 4.9484375 37.03515625 4.921875 37.6328125 C4.51499297 43.23668771 3.59135557 46.52184174 0 50.875 C-2.90295805 52.32647903 -4.77261779 52.24739025 -8 51.875 C-10.58457912 50.46576116 -11.92656833 49.09653393 -14 46.875 C-14.6875 44.375 -14.6875 44.375 -14 41.875 C-11.625 39.0625 -11.625 39.0625 -9 36.875 C-8.34 36.875 -7.68 36.875 -7 36.875 C-6.98541748 35.86074951 -6.97083496 34.84649902 -6.95581055 33.80151367 C-6.89783747 30.03845971 -6.82060541 26.27600479 -6.73754883 22.51342773 C-6.70429464 20.88494591 -6.67626416 19.25634869 -6.65356445 17.62768555 C-6.62002643 15.28644639 -6.56771415 12.94626514 -6.51171875 10.60546875 C-6.50213387 9.51313179 -6.50213387 9.51313179 -6.49235535 8.39872742 C-6.40674051 5.45548062 -6.32874413 3.3618183 -4.65551758 0.8840332 C-3 -0.125 -3 -0.125 0 0 Z " transform="translate(502,648.125)" style="fill: #E1E4E5;"/><path d="M0 0 C0.83603256 -0.00350464 1.67206512 -0.00700928 2.53343201 -0.01062012 C5.29963458 -0.01942998 8.06558189 -0.01359145 10.83178711 -0.00683594 C12.75084991 -0.00818267 14.66991237 -0.01012328 16.588974 -0.01263428 C20.61143237 -0.01558442 24.63380194 -0.01129092 28.65625 -0.00195312 C33.82049902 0.00944901 38.98454035 0.00287642 44.14878178 -0.00909805 C48.11121699 -0.01631305 52.07360267 -0.01403052 56.03603935 -0.00884247 C57.94069887 -0.00750537 59.84536284 -0.00915578 61.75001717 -0.01380157 C64.40768538 -0.01886174 67.06501348 -0.01116421 69.72265625 0 C70.51491608 -0.00404846 71.3071759 -0.00809692 72.1234436 -0.01226807 C77.56810092 0.03025912 77.56810092 0.03025912 79.79663086 2.25878906 C79.99194336 4.64160156 79.99194336 4.64160156 79.92163086 7.38378906 C79.90358398 8.29386719 79.88553711 9.20394531 79.86694336 10.14160156 C79.84374023 10.84027344 79.82053711 11.53894531 79.79663086 12.25878906 C59.88855539 13.07162828 39.9858519 13.38701098 20.06155396 13.43603516 C17.54728049 13.44288287 15.03301406 13.4531485 12.51876831 13.46679688 C8.95507151 13.48462606 5.39161701 13.48895541 1.82788086 13.48925781 C0.20040672 13.49997566 0.20040672 13.49997566 -1.45994568 13.51091003 C-2.45228714 13.50787369 -3.4446286 13.50483734 -4.46704102 13.50170898 C-5.77215637 13.50384651 -5.77215637 13.50384651 -7.1036377 13.50602722 C-9.20336914 13.25878906 -9.20336914 13.25878906 -11.20336914 11.25878906 C-11.50415039 9.16503906 -11.50415039 9.16503906 -11.51586914 6.75878906 C-11.53262695 5.96472656 -11.54938477 5.17066406 -11.56665039 4.35253906 C-11.38682617 3.31613281 -11.38682617 3.31613281 -11.20336914 2.25878906 C-7.41210629 -0.2687195 -4.39126855 -0.02249694 0 0 Z " transform="translate(484.203369140625,225.7412109375)" style="fill: #D15A74;"/><path d="M0 0 C2.9375 0.8125 2.9375 0.8125 4.9375 2.8125 C5.18041992 5.06469727 5.18041992 5.06469727 5.16796875 7.87890625 C5.16700195 8.91426514 5.16603516 9.94962402 5.16503906 11.01635742 C5.15182617 12.12470947 5.13861328 13.23306152 5.125 14.375 C5.1156543 15.50075439 5.10630859 16.62650879 5.09667969 17.78637695 C5.05950628 21.12888612 5.00226104 24.47042228 4.9375 27.8125 C4.92348145 28.7190332 4.90946289 29.62556641 4.89501953 30.55957031 C4.85079551 32.87472044 4.77723034 35.18622042 4.6875 37.5 C4.64109375 38.78261719 4.5946875 40.06523438 4.546875 41.38671875 C3.83517812 45.38773262 2.45599651 47.65491133 -0.0625 50.8125 C-2.96545805 52.26397903 -4.83511779 52.18489025 -8.0625 51.8125 C-10.64707912 50.40326116 -11.98906833 49.03403393 -14.0625 46.8125 C-14.75 44.3125 -14.75 44.3125 -14.0625 41.8125 C-11.6875 39 -11.6875 39 -9.0625 36.8125 C-8.4025 36.8125 -7.7425 36.8125 -7.0625 36.8125 C-7.04791748 35.79824951 -7.03333496 34.78399902 -7.01831055 33.73901367 C-6.96033747 29.97595971 -6.88310541 26.21350479 -6.80004883 22.45092773 C-6.76679464 20.82244591 -6.73876416 19.19384869 -6.71606445 17.56518555 C-6.68252643 15.22394639 -6.63021415 12.88376514 -6.57421875 10.54296875 C-6.56463387 9.45063179 -6.56463387 9.45063179 -6.55485535 8.33622742 C-6.46927484 5.39416079 -6.38859914 3.29775879 -4.72192383 0.81762695 C-3.0625 -0.1875 -3.0625 -0.1875 0 0 Z " transform="translate(502.0625,648.1875)" style="fill: #2B3D48;"/><path d="M0 0 C36.98232787 -0.17350064 73.95716988 0.13398871 110.9375 0.5 C112.7502347 0.51793673 112.7502347 0.51793673 114.5995903 0.53623581 C129.73310637 0.68639119 144.8665731 0.84112089 160 1 C160 1.33 160 1.66 160 2 C125.35 2 90.7 2 55 2 C55 3.98 55 5.96 55 8 C48.61411629 8.17843412 42.22888194 8.30046493 35.84106445 8.38452148 C33.67122374 8.41958407 31.50154675 8.46724935 29.33227539 8.52807617 C26.20157374 8.61362232 23.07306904 8.65283061 19.94140625 8.68359375 C18.98166397 8.71972275 18.02192169 8.75585175 17.03309631 8.79307556 C10.27163441 8.79696016 6.70357398 6.9968965 1.58409119 2.60487366 C0 1 0 1 0 0 Z " transform="translate(410,822)" style="fill: #DFE7EC;"/><path d="M0 0 C19.8 0 39.6 0 60 0 C61.26237731 2.52475462 61.09856404 4.31200466 61.0625 7.125 C61.05347656 8.03507812 61.04445313 8.94515625 61.03515625 9.8828125 C61.02355469 10.58148438 61.01195312 11.28015625 61 12 C60.67 12 60.34 12 60 12 C60 10.35 60 8.7 60 7 C42.84 7 25.68 7 8 7 C8 5.02 8 3.04 8 1 C5.36 1 2.72 1 0 1 C0 0.67 0 0.34 0 0 Z " transform="translate(490,248)" style="fill: #B15C63;"/><path d="M0 0 C0.87454834 0.00523682 1.74909668 0.01047363 2.65014648 0.01586914 C3.59438477 0.0190918 4.53862305 0.02231445 5.51147461 0.02563477 C6.50469727 0.03401367 7.49791992 0.04239258 8.52124023 0.05102539 C9.51833008 0.05553711 10.51541992 0.06004883 11.54272461 0.06469727 C14.01478872 0.07652532 16.48673541 0.0930069 18.95874023 0.11352539 C17.96874023 0.44352539 16.97874023 0.77352539 15.95874023 1.11352539 C16.61874023 2.10352539 17.27874023 3.09352539 17.95874023 4.11352539 C18.19743302 8.96694545 17.91469159 13.3337686 16.95874023 18.11352539 C10.63338828 19.0682955 4.35755129 19.49587965 -2.04125977 19.11352539 C-3.92678506 17.22800009 -3.17372666 14.53583708 -3.17797852 12.03149414 C-3.17411133 11.23356445 -3.17024414 10.43563477 -3.16625977 9.61352539 C-3.17012695 8.8155957 -3.17399414 8.01766602 -3.17797852 7.19555664 C-3.1660609 0.17608161 -3.1660609 0.17608161 0 0 Z " transform="translate(534.041259765625,194.886474609375)" style="fill: #E75D70;"/><path d="M0 0 C5.61 0 11.22 0 17 0 C17 6.93 17 13.86 17 21 C11.39 21 5.78 21 0 21 C0 14.07 0 7.14 0 0 Z " transform="translate(482,194)" style="fill: #EFEBEB;"/><path d="M0 0 C1.12591553 0.00523682 2.25183105 0.01047363 3.41186523 0.01586914 C4.62680664 0.0190918 5.84174805 0.02231445 7.09350586 0.02563477 C8.37290039 0.03401367 9.65229492 0.04239258 10.97045898 0.05102539 C12.2537207 0.05553711 13.53698242 0.06004883 14.85913086 0.06469727 C18.04211921 0.07652994 21.22501661 0.09301471 24.40795898 0.11352539 C24.40795898 3.74352539 24.40795898 7.37352539 24.40795898 11.11352539 C19.9288057 11.14238878 15.44967607 11.16027726 10.97045898 11.17602539 C9.69106445 11.1844043 8.41166992 11.1927832 7.09350586 11.20141602 C5.27109375 11.20625 5.27109375 11.20625 3.41186523 11.21118164 C2.28594971 11.21641846 1.16003418 11.22165527 0 11.22705078 C-2.59204102 11.11352539 -2.59204102 11.11352539 -3.59204102 10.11352539 C-3.68994671 8.61614415 -3.72178966 7.11409647 -3.71704102 5.61352539 C-3.71961914 4.79883789 -3.72219727 3.98415039 -3.72485352 3.14477539 C-3.52300092 0.057618 -3.11627829 0.13648577 0 0 Z " transform="translate(476.592041015625,226.886474609375)" style="fill: #E9EAEA;"/><path d="M0 0 C25.41 0 50.82 0 77 0 C76.67 0.66 76.34 1.32 76 2 C73.35139573 2.59355614 70.70802678 2.74209269 68 3 C68 2.34 68 1.68 68 1 C67.4645607 1.2131636 66.9291214 1.42632721 66.37745667 1.64595032 C60.48011723 3.82485614 55.40525544 4.40682366 49.15234375 4.29296875 C48.25504044 4.28872391 47.35773712 4.28447906 46.4332428 4.28010559 C43.60100757 4.26347363 40.76951576 4.22585197 37.9375 4.1875 C36.00326557 4.17243309 34.06901986 4.15874822 32.13476562 4.14648438 C27.42289589 4.11362112 22.71157345 4.06194841 18 4 C18 4.66 18 5.32 18 6 C12.06 6 6.12 6 0 6 C0 4.02 0 2.04 0 0 Z " transform="translate(465,824)" style="fill: #C2D5E1;"/><path d="M0 0 C1.86011719 -0.02126953 1.86011719 -0.02126953 3.7578125 -0.04296875 C6.7404686 0.03212298 9.4035062 0.51043084 12.30737305 1.17602539 C21.4602577 2.87217512 30.798554 2.54771069 40.07421875 2.6015625 C42.12116759 2.62029923 44.16810891 2.63987446 46.21504211 2.6602478 C51.5693211 2.71131048 56.92362506 2.75107376 62.27801514 2.78839111 C67.75506638 2.82859395 73.23201608 2.87961158 78.70898438 2.9296875 C89.43091798 3.02614008 100.15290927 3.11064188 110.875 3.1875 C110.875 3.5175 110.875 3.8475 110.875 4.1875 C46.855 4.1875 -17.165 4.1875 -83.125 4.1875 C-83.125 3.8575 -83.125 3.5275 -83.125 3.1875 C-62.665 3.1875 -42.205 3.1875 -21.125 3.1875 C-21.125 2.5275 -21.125 1.8675 -21.125 1.1875 C-14.08838729 0.51275632 -7.06770351 0.06815529 0 0 Z " transform="translate(504.125,826.8125)" style="fill: #A4B7C4;"/><path d="M0 0 C0.8353125 -0.00257813 1.670625 -0.00515625 2.53125 -0.0078125 C3.82675781 0.00378906 3.82675781 0.00378906 5.1484375 0.015625 C6.45554687 0.00402344 6.45554687 0.00402344 7.7890625 -0.0078125 C9.03816406 -0.00394531 9.03816406 -0.00394531 10.3125 0 C11.45259521 0.00338379 11.45259521 0.00338379 12.61572266 0.00683594 C14.5234375 0.265625 14.5234375 0.265625 16.5234375 2.265625 C16.6484375 5.890625 16.6484375 5.890625 16.5234375 9.265625 C9.17547751 12.30616017 1.44615277 13.81350768 -6.4765625 12.265625 C-8.70170767 9.52384735 -9.49645772 8.12111942 -9.4140625 4.578125 C-8.4765625 2.265625 -8.4765625 2.265625 -6.69775391 1.13769531 C-4.2978033 0.19544168 -2.56886703 0.0076018 0 0 Z " transform="translate(517.4765625,664.734375)" style="fill: #2A3946;"/><path d="M0 0 C11.17844833 -0.04626954 22.35687402 -0.08184175 33.53539848 -0.10362434 C38.72561899 -0.11407705 43.91577414 -0.12826329 49.10595703 -0.15087891 C54.11150889 -0.17255438 59.11699777 -0.18455741 64.12259293 -0.18975449 C66.03563555 -0.19345979 67.9486746 -0.20069496 69.86169052 -0.21146011 C72.53400976 -0.22590473 75.2060662 -0.22798091 77.87841797 -0.22705078 C78.67539093 -0.23424133 79.47236389 -0.24143188 80.29348755 -0.24884033 C85.77189568 -0.22810432 85.77189568 -0.22810432 88 2 C88.27450545 5.34896654 88.08628804 8.63476663 88 12 C83.38 12 78.76 12 74 12 C74 11.67 74 11.34 74 11 C77.96 11 81.92 11 86 11 C85.505 6.545 85.505 6.545 85 2 C65.86 2 46.72 2 27 2 C27.33 4.64 27.66 7.28 28 10 C40.87 10.495 40.87 10.495 54 11 C54 11.66 54 12.32 54 13 C35.85 13 17.7 13 -1 13 C-1 12.67 -1 12.34 -1 12 C7.58 12 16.16 12 25 12 C25 8.37 25 4.74 25 1 C16.75 1 8.5 1 0 1 C0 0.67 0 0.34 0 0 Z " transform="translate(476,226)" style="fill: #A36977;"/><path d="M0 0 C8.91 0 17.82 0 27 0 C27 2.97 27 5.94 27 9 C18.09 9 9.18 9 0 9 C-1 4 -1 4 0 0 Z " transform="translate(503,228)" style="fill: #E86982;"/><path d="M0 0 C4.6 2.2 4.6 2.2 6 5 C6.375 8.375 6.375 8.375 6 12 C3.89576213 14.5645399 2.3289564 15.71598916 -0.9375 16.4140625 C-4.95136583 16.70293921 -6.63890446 16.25577601 -10 13.875 C-12 11 -12 11 -12.625 8 C-11.16898371 1.01112183 -6.69091577 -0.95584511 0 0 Z " transform="translate(527,645)" style="fill: #25363E;"/><path d="M0 0 C2.68946781 2.20047366 2.92017347 3.53101914 3.5 6.9375 C2.81303325 11.14517131 1.4272611 12.52070473 -2 15 C-5.68011967 15.51650802 -7.91219334 15.6071479 -11.18359375 13.78125 C-13 12 -13 12 -13.53125 9.625 C-13.5209375 8.75875 -13.510625 7.8925 -13.5 7 C-13.5103125 6.13375 -13.520625 5.2675 -13.53125 4.375 C-13 2 -13 2 -11.25390625 0.18359375 C-7.46553639 -1.80579285 -4.02129173 -1.11194809 0 0 Z " transform="translate(672,829)" style="fill: #273940;"/><path d="M0 0 C3.8425303 0.72047443 5.45767292 1.57152696 8 4.5625 C8.66017005 7.36391726 8.60984064 9.75493175 8 12.5625 C6.4375 15.0625 6.4375 15.0625 4 16.5625 C0.5625 17.125 0.5625 17.125 -3 16.5625 C-6.38121991 14.11651113 -7.76936783 12.66953441 -8.625 8.5625 C-7.58351809 3.56338683 -5.03644185 0.94433285 0 0 Z " transform="translate(696,827.4375)" style="fill: #2B3744;"/><path d="M0 0 C3.38121991 2.44598887 4.76936783 3.89296559 5.625 8 C4.77618008 12.0743356 3.32274404 13.54405875 0 16 C-3 16.625 -3 16.625 -6 16 C-8.875 13.9375 -8.875 13.9375 -11 11 C-11.63007693 7.00951279 -11.63021887 4.98314143 -9.4375 1.5625 C-6.01685857 -0.63021887 -3.99048721 -0.63007693 0 0 Z " transform="translate(355,828)" style="fill: #2D3A45;"/><path d="M0 0 C2.4375 1.625 2.4375 1.625 4 4 C4.5625 6.9375 4.5625 6.9375 4 10 C1.50915752 13.36996335 0.11411135 14.81810427 -4.0625 15.5 C-8.88979896 14.67833209 -8.88979896 14.67833209 -11 12 C-11.56550984 8.90123689 -11.55983906 6.09931519 -11 3 C-8.12184191 -0.79916868 -4.49294484 -0.56161811 0 0 Z " transform="translate(396,829)" style="fill: #2B3840;"/><path d="M0 0 C2.875 1.625 2.875 1.625 5 4 C5.625 6.9375 5.625 6.9375 5 10 C2.51877621 13.35694984 1.05634831 14.78441871 -3.0625 15.625 C-6 15 -6 15 -8.375 12.875 C-10.28071139 9.50335677 -10.64850195 7.80994895 -10 4 C-7.20900702 -0.07914358 -4.82277608 -0.78739201 0 0 Z " transform="translate(648,829)" style="fill: #273945;"/><path d="M0 0 C2.09765625 0.34765625 2.09765625 0.34765625 4.16015625 1.97265625 C5.69530482 5.8616993 5.69530482 8.8336132 4.16015625 12.72265625 C1.23993847 15.02343389 -1.16458424 14.91004738 -4.8046875 14.7265625 C-6.90234375 14.34765625 -6.90234375 14.34765625 -8.96484375 12.78515625 C-10.24906462 9.44618198 -10.28908242 6.8927607 -9.90234375 3.34765625 C-7.14692689 -0.39555156 -4.35949691 -0.1630381 0 0 Z " transform="translate(374.90234375,828.65234375)" style="fill: #26343E;"/><path d="M0 0 C6.21134144 -0.02469492 12.42265438 -0.04285758 18.6340332 -0.05493164 C20.74764504 -0.05996444 22.86125338 -0.0667912 24.97485352 -0.07543945 C28.01058818 -0.08755104 31.04627686 -0.09323881 34.08203125 -0.09765625 C35.5024749 -0.10539818 35.5024749 -0.10539818 36.95161438 -0.11329651 C38.27264412 -0.11340981 38.27264412 -0.11340981 39.62036133 -0.11352539 C40.39535477 -0.115746 41.17034821 -0.11796661 41.96882629 -0.12025452 C44 0 44 0 47 1 C47 1.99 47 2.98 47 4 C41.27083651 4.02478342 35.54170448 4.04289954 29.8125 4.05493164 C27.86490332 4.05994955 25.91731039 4.06676534 23.96972656 4.07543945 C21.16470411 4.08761652 18.35973163 4.09325383 15.5546875 4.09765625 C14.68883026 4.10281754 13.82297302 4.10797882 12.93087769 4.11329651 C8.5027179 4.11370419 4.35974798 3.89613596 0 3 C0 2.01 0 1.02 0 0 Z " transform="translate(500,250)" style="fill: #D9556B;"/><path d="M0 0 C0.99 0.33 1.98 0.66 3 1 C2.67 1.66 2.34 2.32 2 3 C1.61919785 6.50337981 1.59754922 8.36278626 3.5 11.375 C7.17623041 13.76454977 9.65495886 13.35040654 14 13 C14.66 12.67 15.32 12.34 16 12 C15.34 13.32 14.68 14.64 14 16 C12.865625 15.979375 11.73125 15.95875 10.5625 15.9375 C7.18424326 15.58422523 7.18424326 15.58422523 6 17 C9.3 17 12.6 17 16 17 C16 17.33 16 17.66 16 18 C12.52085059 18.02887814 9.04173169 18.04675687 5.5625 18.0625 C4.07266602 18.07506836 4.07266602 18.07506836 2.55273438 18.08789062 C1.60849609 18.09111328 0.66425781 18.09433594 -0.30859375 18.09765625 C-1.62041626 18.10551147 -1.62041626 18.10551147 -2.95874023 18.11352539 C-5 18 -5 18 -6 17 C-6.60407726 12.51147655 -7.20688365 7.85782673 -4.66015625 3.9375 C-3 2.3125 -3 2.3125 0 0 Z " transform="translate(514,647)" style="fill: #EDF0F2;"/><path d="M0 0 C0.33 0 0.66 0 1 0 C1.02578125 0.84304688 1.0515625 1.68609375 1.078125 2.5546875 C1.13484375 3.65039062 1.1915625 4.74609375 1.25 5.875 C1.29640625 6.96554687 1.3428125 8.05609375 1.390625 9.1796875 C1.68846128 12.1332065 1.68846128 12.1332065 4.046875 13.3828125 C4.69140625 13.58648438 5.3359375 13.79015625 6 14 C4.02 14.99 4.02 14.99 2 16 C2.18464366 20.34184202 2.18464366 20.34184202 4 24 C7.5900518 24.28593333 11.18014845 24.44910171 14.77734375 24.62109375 C18 25 18 25 20 27 C16.04 27 12.08 27 8 27 C7.67 27.66 7.34 28.32 7 29 C10.63 29 14.26 29 18 29 C18 29.33 18 29.66 18 30 C17.24074219 30.04898438 16.48148438 30.09796875 15.69921875 30.1484375 C14.20841797 30.26058594 14.20841797 30.26058594 12.6875 30.375 C11.70136719 30.44460938 10.71523438 30.51421875 9.69921875 30.5859375 C6.78471567 30.83865472 6.78471567 30.83865472 4 33 C2.80767387 35.05003955 2.80767387 35.05003955 2 37 C2 35.35 2 33.7 2 32 C1.34 32 0.68 32 0 32 C0 33.98 0 35.96 0 38 C-0.33 38 -0.66 38 -1 38 C-1.20100772 25.3141797 -0.58707468 12.66894665 0 0 Z " transform="translate(507,652)" style="fill: #DCE0E0;"/><path d="M0 0 C-0.99 0.99 -1.98 1.98 -3 3 C0.3 3.33 3.6 3.66 7 4 C7 4.33 7 4.66 7 5 C-2.3412692 5.61326035 -11.63250185 6.1820896 -21 6 C-21 4.02 -21 2.04 -21 0 C-18.25034772 -0.19511725 -15.50057868 -0.38136433 -12.75 -0.5625 C-11.97269531 -0.61857422 -11.19539062 -0.67464844 -10.39453125 -0.73242188 C-9.64042969 -0.78076172 -8.88632812 -0.82910156 -8.109375 -0.87890625 C-7.41811523 -0.9260376 -6.72685547 -0.97316895 -6.01464844 -1.02172852 C-3.86382928 -0.99853136 -2.05915129 -0.5995764 0 0 Z " transform="translate(548,587)" style="fill: #E1E5E5;"/><path d="M0 0 C0 0.33 0 0.66 0 1 C-29.30947409 3.85341281 -58.60755381 2.79105341 -88 2 C-88 1.67 -88 1.34 -88 1 C-27.10580565 -0.20994726 -27.10580565 -0.20994726 0 0 Z " transform="translate(562,238)" style="fill: #3D2F36;"/><path d="M0 0 C6.27 0 12.54 0 19 0 C19 5 19 5 18 6 C15.30345146 6.07319621 12.63308542 6.09242537 9.9375 6.0625 C9.17888672 6.05798828 8.42027344 6.05347656 7.63867188 6.04882812 C5.75908129 6.0370068 3.87953101 6.01907078 2 6 C2.66 5.67 3.32 5.34 4 5 C4 4.34 4 3.68 4 3 C2.68 2.67 1.36 2.34 0 2 C0 1.34 0 0.68 0 0 Z " transform="translate(495,589)" style="fill: #E5E8E9;"/><path d="M0 0 C4.51533049 2.32216997 7.01055501 4.98560245 10 9 C10 9.66 10 10.32 10 11 C10.598125 11.268125 11.19625 11.53625 11.8125 11.8125 C13.97224808 12.98493467 15.35790256 14.19369282 17 16 C15.906875 15.814375 14.81375 15.62875 13.6875 15.4375 C10.06375867 14.7421932 10.06375867 14.7421932 7 16 C6.05598958 14.20963542 5.11197917 12.41927083 4.16796875 10.62890625 C3.00980201 8.67732013 3.00980201 8.67732013 0 8 C0 5.33333333 0 2.66666667 0 0 Z " transform="translate(570,396)" style="fill: #D3E0DE;"/><path d="M0 0 C0.33 0 0.66 0 1 0 C1 1.65 1 3.3 1 5 C0.34 5 -0.32 5 -1 5 C-2.38565634 8.84904538 -1.58743596 12.0184896 -1 16 C-0.91394689 19.00229743 -0.93872176 21.99736643 -1 25 C-1.33 25 -1.66 25 -2 25 C-2.34546754 23.37753635 -2.67554219 21.75179539 -3 20.125 C-3.185625 19.22007812 -3.37125 18.31515625 -3.5625 17.3828125 C-4.13497455 12.95635753 -4 8.4633206 -4 4 C-18.19 4 -32.38 4 -47 4 C-47.33 4.66 -47.66 5.32 -48 6 C-48 5.01 -48 4.02 -48 3 C-32.16 3 -16.32 3 0 3 C0 2.01 0 1.02 0 0 Z " transform="translate(552,282)" style="fill: #E9F4F3;"/><path d="M0 0 C3.0390625 -0.29296875 3.0390625 -0.29296875 6.625 -0.1875 C7.81351563 -0.16042969 9.00203125 -0.13335938 10.2265625 -0.10546875 C11.14179687 -0.07066406 12.05703125 -0.03585937 13 0 C10.34875528 4.85663448 8.41078846 6.4033739 3 8 C0.20589029 7.94626712 -2.23753383 7.53310751 -5 7 C-4.54625 6.401875 -4.0925 5.80375 -3.625 5.1875 C-2.36704087 3.49409348 -1.17015276 1.75522914 0 0 Z " transform="translate(615,822)" style="fill: #A9C1D9;"/><path d="M0 0 C0.33 0 0.66 0 1 0 C1 6.93 1 13.86 1 21 C-6.26 21 -13.52 21 -21 21 C-21 20.67 -21 20.34 -21 20 C-14.73 19.67 -8.46 19.34 -2 19 C-1.979375 16.751875 -1.95875 14.50375 -1.9375 12.1875 C-1.92589844 10.92292969 -1.91429687 9.65835938 -1.90234375 8.35546875 C-1.83840884 5.00394763 -1.83840884 5.00394763 -3 2 C-2.01 2 -1.02 2 0 2 C0 1.34 0 0.68 0 0 Z " transform="translate(553,194)" style="fill: #D06A7C;"/><path d="M0 0 C0.66 0 1.32 0 2 0 C2.48076923 6.25 2.48076923 6.25 0.4375 9.4375 C-2.81870797 11.5248128 -5.20995016 11.2915423 -9 11 C-9 8 -9 8 -8 6 C-7.01 5.67 -6.02 5.34 -5 5 C-4.67 4.34 -4.34 3.68 -4 3 C-3.01 3 -2.02 3 -1 3 C-0.67 2.01 -0.34 1.02 0 0 Z " transform="translate(702,833)" style="fill: #263537;"/><path d="M0 0 C0 0.33 0 0.66 0 1 C-5.28 1 -10.56 1 -16 1 C-16 1.66 -16 2.32 -16 3 C-27.88 3 -39.76 3 -52 3 C-52 2.67 -52 2.34 -52 2 C-15.12295442 -0.38776806 -15.12295442 -0.38776806 0 0 Z " transform="translate(562,638)" style="fill: #B8C4BB;"/><path d="M0 0 C0 3 0 3 -1 6 C-3.89177817 7.11662325 -6.69286303 7.11735344 -9.765625 7.09765625 C-10.65507813 7.09443359 -11.54453125 7.09121094 -12.4609375 7.08789062 C-13.38132812 7.07951172 -14.30171875 7.07113281 -15.25 7.0625 C-16.18585937 7.05798828 -17.12171875 7.05347656 -18.0859375 7.04882812 C-20.39069041 7.03706918 -22.69531227 7.02063426 -25 7 C-25 8.65 -25 10.3 -25 12 C-23.02 12.495 -23.02 12.495 -21 13 C-22.65 13 -24.3 13 -26 13 C-26 10.36 -26 7.72 -26 5 C-24.69804688 4.96261719 -23.39609375 4.92523437 -22.0546875 4.88671875 C-20.32809743 4.82103326 -18.60153619 4.75458682 -16.875 4.6875 C-16.0190625 4.66494141 -15.163125 4.64238281 -14.28125 4.61914062 C-8.99055382 4.39530348 -3.97937523 3.97937523 0 0 Z " transform="translate(553,562)" style="fill: #D6DED7;"/><path d="M0 0 C1.65 0 3.3 0 5 0 C4.41852777 3.61662945 3.46375626 6.42443919 1.6875 9.625 C1.07455078 10.75808594 1.07455078 10.75808594 0.44921875 11.9140625 C-1.16685536 14.24016378 -2.56207893 15.56085479 -5 17 C-7.73713695 17.37460816 -10.22025584 17.13898721 -13 17 C-13 16.67 -13 16.34 -13 16 C-11.39125 15.87625 -11.39125 15.87625 -9.75 15.75 C-6.07981618 15.24853921 -6.07981618 15.24853921 -3.625 13.5 C-1.56275216 10.32731101 -1.39247221 7.75052194 -1.17578125 4.0234375 C-1 2 -1 2 0 0 Z " transform="translate(514,702)" style="fill: #25383D;"/><path d="M0 0 C0.66 0 1.32 0 2 0 C2.32489668 6.82283036 1.43230253 11.61520587 -1 18 C-4.63 17.67 -8.26 17.34 -12 17 C-12 16.67 -12 16.34 -12 16 C-10.9275 15.835 -9.855 15.67 -8.75 15.5 C-6.31295538 14.80933958 -5.24640242 14.31784454 -3.6796875 12.296875 C-1.62130787 8.3020938 -0.44996259 4.49962593 0 0 Z " transform="translate(507,684)" style="fill: #EBECED;"/><path d="M0 0 C0.33 0 0.66 0 1 0 C1 1.65 1 3.3 1 5 C-6.33741969 7.3479743 -13.34393782 7.19355213 -21 7 C-21.33 6.01 -21.66 5.02 -22 4 C-21.11248047 4.01740234 -21.11248047 4.01740234 -20.20703125 4.03515625 C-15.9510525 4.08375633 -12.17393742 3.85619229 -8 3 C-5.3268771 2.91458066 -2.67560619 2.95465074 0 3 C0 2.01 0 1.02 0 0 Z " transform="translate(532,670)" style="fill: #233834;"/><path d="M0 0 C15.84 0.495 15.84 0.495 32 1 C32 1.33 32 1.66 32 2 C19.97960136 2.94014291 8.05276854 3.11114233 -4 3 C-2.68 2.67 -1.36 2.34 0 2 C0 1.34 0 0.68 0 0 Z " transform="translate(509,637)" style="fill: #233A39;"/><path d="M0 0 C0.99 0 1.98 0 3 0 C3.75 2.75 3.75 2.75 4 6 C2.4375 8.375 2.4375 8.375 0 10 C-3.25 10.25 -3.25 10.25 -6 10 C-6.33 9.01 -6.66 8.02 -7 7 C-6.21625 6.5875 -5.4325 6.175 -4.625 5.75 C-1.94108344 3.9607223 -1.11901051 2.95011861 0 0 Z " transform="translate(355,834)" style="fill: #1F3536;"/><path d="M0 0 C13.2 0 26.4 0 40 0 C39.67 0.66 39.34 1.32 39 2 C36.35139573 2.59355614 33.70802678 2.74209269 31 3 C31 2.34 31 1.68 31 1 C30.41621582 1.03552979 29.83243164 1.07105957 29.23095703 1.10766602 C26.52938357 1.26741355 23.82726899 1.41500419 21.125 1.5625 C20.2071875 1.61857422 19.289375 1.67464844 18.34375 1.73242188 C12.12165823 2.06105348 6.17816042 1.8052264 0 1 C0 0.67 0 0.34 0 0 Z " transform="translate(502,824)" style="fill: #CDDDE8;"/><path d="M0 0 C-13.67381974 9.7805794 -13.67381974 9.7805794 -22 9 C-22.33 8.01 -22.66 7.02 -23 6 C-20.03 6 -17.06 6 -14 6 C-14 5.34 -14 4.68 -14 4 C-13.43410156 3.87882813 -12.86820313 3.75765625 -12.28515625 3.6328125 C-11.55167969 3.46523438 -10.81820312 3.29765625 -10.0625 3.125 C-9.33160156 2.96257813 -8.60070312 2.80015625 -7.84765625 2.6328125 C-5.79299706 2.17038477 -5.79299706 2.17038477 -5 0 C-2 -1 -2 -1 0 0 Z " transform="translate(603,771)" style="fill: #213C2E;"/><path d="M0 0 C2.31 0.66 4.62 1.32 7 2 C5.61811547 5.21043882 4.07578097 7.04936365 1.375 9.25 C0.74335938 9.77078125 0.11171875 10.2915625 -0.5390625 10.828125 C-1.02117187 11.21484375 -1.50328125 11.6015625 -2 12 C-2.33 11.01 -2.66 10.02 -3 9 C-1.68 8.67 -0.36 8.34 1 8 C0.4740625 6.8553125 0.4740625 6.8553125 -0.0625 5.6875 C-1 3 -1 3 0 0 Z " transform="translate(428,421)" style="fill: #243743;"/><path d="M0 0 C4.95 0 9.9 0 15 0 C14.67 0.66 14.34 1.32 14 2 C12.8553125 1.9690625 12.8553125 1.9690625 11.6875 1.9375 C8.89814214 1.87057159 8.89814214 1.87057159 6 3 C4.35 2.67 2.7 2.34 1 2 C1 7.94 1 13.88 1 20 C0.67 20 0.34 20 0 20 C0 13.4 0 6.8 0 0 Z " transform="translate(483,194)" style="fill: #F9F2F8;"/><path d="M0 0 C0.99 0.33 1.98 0.66 3 1 C4 4 4 4 3 6 C2.72448188 8.75518117 2.55393759 11.51017671 2.37890625 14.2734375 C2 17 2 17 0 21 C0 14.07 0 7.14 0 0 Z " transform="translate(554,194)" style="fill: #46414D;"/><path d="M0 0 C1.32 0.66 2.64 1.32 4 2 C4.36170213 7.42553191 4.36170213 7.42553191 2.9375 9.6875 C-0.03981788 11.70439276 -2.64825295 11.28491047 -6.1875 11.1875 C-7.45980469 11.16042969 -8.73210937 11.13335937 -10.04296875 11.10546875 C-11.01878906 11.07066406 -11.99460937 11.03585937 -13 11 C-13 10.67 -13 10.34 -13 10 C-6.565 9.505 -6.565 9.505 0 9 C-0.33 8.34 -0.66 7.68 -1 7 C-0.71758117 4.6599583 -0.38749213 2.32495277 0 0 Z " transform="translate(491,430)" style="fill: #203534;"/><path d="M0 0 C0.33 0.66 0.66 1.32 1 2 C0.43410156 2.13277344 -0.13179687 2.26554688 -0.71484375 2.40234375 C-1.81505859 2.66724609 -1.81505859 2.66724609 -2.9375 2.9375 C-4.03384766 3.19853516 -4.03384766 3.19853516 -5.15234375 3.46484375 C-6.99969898 3.83887569 -6.99969898 3.83887569 -8 5 C-8.04320247 7.33293334 -8.04022391 9.6670134 -8 12 C-8 12.99 -8 13.98 -8 15 C-10.14978703 12.67106405 -10.96248682 11.22038995 -11.5 8.0625 C-10.42880909 1.50145568 -6.29653485 -0.73215522 0 0 Z " transform="translate(699,828)" style="fill: #424C4E;"/><path d="M0 0 C-0.21484375 1.890625 -0.21484375 1.890625 -1 4 C-3.06640625 5.046875 -3.06640625 5.046875 -5.5625 5.75 C-6.38878906 5.99234375 -7.21507812 6.2346875 -8.06640625 6.484375 C-9.02353516 6.73960937 -9.02353516 6.73960937 -10 7 C-10.33 6.67 -10.66 6.34 -11 6 C-12.66617115 5.95936168 -14.33388095 5.957279 -16 6 C-13.01559439 4.45921385 -9.98992242 3.13026724 -6.875 1.875 C-6.00617187 1.52179687 -5.13734375 1.16859375 -4.2421875 0.8046875 C-2 0 -2 0 0 0 Z " transform="translate(598,775)" style="fill: #D6D8DA;"/><path d="M0 0 C3.67056937 1.47797262 5.41085783 3.47615477 7.75 6.625 C8.67039062 7.85089844 8.67039062 7.85089844 9.609375 9.1015625 C10.29773438 10.04128906 10.29773438 10.04128906 11 11 C10.01 12.485 10.01 12.485 9 14 C8.67 12.35 8.34 10.7 8 9 C7.01 9 6.02 9 5 9 C5 8.01 5 7.02 5 6 C4.34 6 3.68 6 3 6 C2.67 6.66 2.34 7.32 2 8 C2 7.01 2 6.02 2 5 C1.34 4.67 0.68 4.34 0 4 C0 2.68 0 1.36 0 0 Z " transform="translate(601,447)" style="fill: #323F47;"/><path d="M0 0 C4.29 0 8.58 0 13 0 C12.01 1.65 11.02 3.3 10 5 C9.01 5 8.02 5 7 5 C6.67 4.34 6.34 3.68 6 3 C3.67843403 2.59270772 1.3431213 2.25561323 -1 2 C-0.67 1.34 -0.34 0.68 0 0 Z " transform="translate(615,822)" style="fill: #B5C5DF;"/><path d="M0 0 C-0.33 0.99 -0.66 1.98 -1 3 C-9.25 3 -17.5 3 -26 3 C-26 2.67 -26 2.34 -26 2 C-24.83082031 1.93941406 -23.66164063 1.87882813 -22.45703125 1.81640625 C-20.90884386 1.73195966 -19.36066732 1.64731375 -17.8125 1.5625 C-17.04357422 1.52318359 -16.27464844 1.48386719 -15.48242188 1.44335938 C-10.26469795 1.15224173 -5.2010851 0 0 0 Z " transform="translate(566,601)" style="fill: #223A33;"/><path d="M0 0 C3.69212837 -0.3434538 5.60790131 -0.221621 8.875 1.625 C11 4 11 4 11.5 7.0625 C10.96917166 10.18111649 10.4832167 11.13758747 8 13 C7.67 12.01 7.34 11.02 7 10 C7.66 10 8.32 10 9 10 C8.65555119 7.52733235 8.65555119 7.52733235 8 5 C7.34 4.67 6.68 4.34 6 4 C5.34 3.34 4.68 2.68 4 2 C2.68252676 1.30251417 1.35085807 0.63040043 0 0 Z " transform="translate(642,829)" style="fill: #334345;"/><path d="M0 0 C2.31 0.33 4.62 0.66 7 1 C5.02 4.3 3.04 7.6 1 11 C0.34 10.67 -0.32 10.34 -1 10 C-0.67 9.67 -0.34 9.34 0 9 C0.07179964 7.48071962 0.08392007 5.95832518 0.0625 4.4375 C0.05347656 3.61121094 0.04445313 2.78492188 0.03515625 1.93359375 C0.02355469 1.29550781 0.01195312 0.65742187 0 0 Z " transform="translate(532,648)" style="fill: #F0F2F3;"/><path d="M0 0 C0.33 0.66 0.66 1.32 1 2 C-0.60875 2.0928125 -0.60875 2.0928125 -2.25 2.1875 C-6.13531961 2.66145959 -6.13531961 2.66145959 -8.4375 5.5625 C-8.953125 6.366875 -9.46875 7.17125 -10 8 C-10.66 7.67 -11.32 7.34 -12 7 C-9.69656113 0.26687101 -6.85869086 -0.25881852 0 0 Z " transform="translate(527,645)" style="fill: #313B41;"/><path d="M0 0 C0.47308594 0.39832031 0.94617188 0.79664063 1.43359375 1.20703125 C6.36397602 5.15710359 10.90032961 7.39036476 17 9 C17 9.66 17 10.32 17 11 C10.32557918 10.49941844 4.36968063 7.05963021 0 2 C0 1.34 0 0.68 0 0 Z " transform="translate(403,831)" style="fill: #30463A;"/><path d="M0 0 C2.37948772 0.17625835 3.70225849 0.69719773 5.37890625 2.40234375 C6.62115486 3.90649092 7.81376056 5.45129851 9 7 C7.35 7.66 5.7 8.32 4 9 C3.71125 8.195625 3.4225 7.39125 3.125 6.5625 C2.26737432 3.8673532 2.26737432 3.8673532 0 3 C0 2.01 0 1.02 0 0 Z M4 5 C5 7 5 7 5 7 Z " transform="translate(610,417)" style="fill: #363E49;"/><path d="M0 0 C0.99 0.99 1.98 1.98 3 3 C-3.27692308 7.06153846 -3.27692308 7.06153846 -6.9375 6.75 C-7.618125 6.5025 -8.29875 6.255 -9 6 C-6.11964908 3.75972706 -3.15133488 1.83827868 0 0 Z " transform="translate(633,835)" style="fill: #ECE6E7;"/><path d="M0 0 C4.16138263 -0.08159574 7.9472484 0.01751476 12 1 C11.67 1.66 11.34 2.32 11 3 C7.04 3 3.08 3 -1 3 C-0.67 2.01 -0.34 1.02 0 0 Z " transform="translate(515,678)" style="fill: #FCFAFD;"/><path d="M0 0 C0.99 0.99 1.98 1.98 3 3 C2 4 2 4 -0.13305664 4.11352539 C-1.04949951 4.10828857 -1.96594238 4.10305176 -2.91015625 4.09765625 C-3.89951172 4.09443359 -4.88886719 4.09121094 -5.90820312 4.08789062 C-6.94912109 4.07951172 -7.99003906 4.07113281 -9.0625 4.0625 C-10.10728516 4.05798828 -11.15207031 4.05347656 -12.22851562 4.04882812 C-14.8190666 4.03699913 -17.40950559 4.02051689 -20 4 C-20 3.67 -20 3.34 -20 3 C-10.1 2.505 -10.1 2.505 0 2 C0 1.34 0 0.68 0 0 Z " transform="translate(562,634)" style="fill: #1F3531;"/><path d="M0 0 C3.875 4.75 3.875 4.75 5 7 C4.34 7.66 3.68 8.32 3 9 C2.608125 8.525625 2.21625 8.05125 1.8125 7.5625 C-0.40808374 5.64820367 -2.13375709 5.38733012 -5 5 C-4.34 4.01 -3.68 3.02 -3 2 C-2.01 2 -1.02 2 0 2 C0 1.34 0 0.68 0 0 Z " transform="translate(396,824)" style="fill: #E2E1E8;"/><path d="M0 0 C1.06528748 2.73019786 1.07998186 3.79298812 0.00390625 6.578125 C-0.47175781 7.45984375 -0.94742188 8.3415625 -1.4375 9.25 C-1.91058594 10.14203125 -2.38367188 11.0340625 -2.87109375 11.953125 C-3.24363281 12.62859375 -3.61617187 13.3040625 -4 14 C-5.29227198 9.80011607 -4.50255809 7.13203474 -3 3 C-1.375 1.0625 -1.375 1.0625 0 0 Z " transform="translate(644,815)" style="fill: #273637;"/><path d="M0 0 C0.66 0.99 1.32 1.98 2 3 C0.78732619 4.658023 -0.44583619 6.30107431 -1.6875 7.9375 C-2.37199219 8.85402344 -3.05648438 9.77054687 -3.76171875 10.71484375 C-6.23725656 13.24222529 -7.53375469 13.71468734 -11 14 C-10.29875 13.360625 -9.5975 12.72125 -8.875 12.0625 C-5.28363177 8.50200313 -2.69563035 4.25187054 0 0 Z " transform="translate(458,387)" style="fill: #374049;"/><path d="M0 0 C-0.33 2.31 -0.66 4.62 -1 7 C-3.31 7 -5.62 7 -8 7 C-8 6.34 -8 5.68 -8 5 C-6.03277992 3.61876037 -4.03131672 2.28511874 -2 1 C-1 0 -1 0 0 0 Z " transform="translate(574,245)" style="fill: #E1DEDE;"/><path d="M0 0 C0.33 0 0.66 0 1 0 C1.19573608 1.43640171 1.38127816 2.87419504 1.5625 4.3125 C1.66691406 5.11300781 1.77132812 5.91351563 1.87890625 6.73828125 C2 9 2 9 1 12 C1.66 12 2.32 12 3 12 C2.67 12.99 2.34 13.98 2 15 C1.01 15 0.02 15 -1 15 C-1.10251672 9.87416389 -1.03590199 5.05002222 0 0 Z " transform="translate(567,200)" style="fill: #E4E3E9;"/><path d="M0 0 C0.33 0.66 0.66 1.32 1 2 C1.99 2.33 2.98 2.66 4 3 C3.360625 3.12375 2.72125 3.2475 2.0625 3.375 C1.381875 3.58125 0.70125 3.7875 0 4 C-0.33 4.66 -0.66 5.32 -1 6 C-4.3 5.67 -7.6 5.34 -11 5 C-11 4.34 -11 3.68 -11 3 C-9.1128125 3.0928125 -9.1128125 3.0928125 -7.1875 3.1875 C-3.83041021 3.23632922 -3.83041021 3.23632922 -1 1.5 C-0.67 1.005 -0.34 0.51 0 0 Z " transform="translate(358,840)" style="fill: #DFDDDB;"/><path d="M0 0 C0.66 0 1.32 0 2 0 C2.02712066 1.43739513 2.04645067 2.87493863 2.0625 4.3125 C2.07410156 5.11300781 2.08570313 5.91351562 2.09765625 6.73828125 C2 9 2 9 1 12 C0.01 11.67 -0.98 11.34 -2 11 C-1.34 7.37 -0.68 3.74 0 0 Z " transform="translate(507,684)" style="fill: #F0F4F6;"/><path d="M0 0 C1.32 0.66 2.64 1.32 4 2 C3.34 3.32 2.68 4.64 2 6 C0.35 6 -1.3 6 -3 6 C-3 4.68 -3 3.36 -3 2 C-2.01 1.34 -1.02 0.68 0 0 Z " transform="translate(389,829)" style="fill: #343E4A;"/><path d="M0 0 C0.33 0 0.66 0 1 0 C1.02578125 0.84304688 1.0515625 1.68609375 1.078125 2.5546875 C1.13484375 3.65039062 1.1915625 4.74609375 1.25 5.875 C1.29640625 6.96554687 1.3428125 8.05609375 1.390625 9.1796875 C1.68846128 12.1332065 1.68846128 12.1332065 4.046875 13.3828125 C4.69140625 13.58648438 5.3359375 13.79015625 6 14 C5.38125 14.268125 4.7625 14.53625 4.125 14.8125 C1.7004767 15.95556848 1.7004767 15.95556848 0 19 C0 12.73 0 6.46 0 0 Z " transform="translate(507,652)" style="fill: #D0D7DE;"/><path d="M0 0 C1.32 0.66 2.64 1.32 4 2 C3.195625 2.45375 2.39125 2.9075 1.5625 3.375 C-1.08856572 4.74725665 -1.08856572 4.74725665 -2 7 C-1.01 7 -0.02 7 1 7 C1 7.66 1 8.32 1 9 C0.01 9.33 -0.98 9.66 -2 10 C-2.6875 6.6875 -2.6875 6.6875 -3 3 C-1.5625 1.0625 -1.5625 1.0625 0 0 Z " transform="translate(473,597)" style="fill: #3C4B50;"/><path d="M0 0 C0.57073242 0.32145996 1.14146484 0.64291992 1.72949219 0.97412109 C4.10556758 2.04769839 5.74114872 2.30319209 8.328125 2.4140625 C9.12734375 2.45273437 9.9265625 2.49140625 10.75 2.53125 C11.9875 2.57765625 11.9875 2.57765625 13.25 2.625 C14.09046875 2.66367187 14.9309375 2.70234375 15.796875 2.7421875 C17.86423382 2.83615836 19.93208627 2.91915564 22 3 C22 3.33 22 3.66 22 4 C15.07 4 8.14 4 1 4 C0.67 2.68 0.34 1.36 0 0 Z " transform="translate(549,439)" style="fill: #E5E5E5;"/><path d="M0 0 C-0.33 0.99 -0.66 1.98 -1 3 C-5.95 2.67 -10.9 2.34 -16 2 C-16 1.67 -16 1.34 -16 1 C-14.08351538 0.83125293 -12.16680367 0.66508357 -10.25 0.5 C-9.18265625 0.4071875 -8.1153125 0.314375 -7.015625 0.21875 C-4.6820782 0.04947717 -2.33967818 0 0 0 Z " transform="translate(580,781)" style="fill: #D3D9DB;"/><path d="M0 0 C2.64 0 5.28 0 8 0 C8 1.98 8 3.96 8 6 C7.67 5.01 7.34 4.02 7 3 C4.69 2.67 2.38 2.34 0 2 C-0.33 2.66 -0.66 3.32 -1 4 C-0.67 2.68 -0.34 1.36 0 0 Z " transform="translate(490,249)" style="fill: #DEB7B6;"/><path d="M0 0 C3.3 0 6.6 0 10 0 C10 0.66 10 1.32 10 2 C7.21136993 3.39431504 5.07921132 3.25660094 2 3 C1.34 2.01 0.68 1.02 0 0 Z " transform="translate(640,841)" style="fill: #213C2A;"/><path d="M0 0 C0.94875 0.04125 1.8975 0.0825 2.875 0.125 C2.545 1.115 2.215 2.105 1.875 3.125 C-0.0625 3.6875 -0.0625 3.6875 -2.125 4.125 C-2.785 4.785 -3.445 5.445 -4.125 6.125 C-4.75 4.25 -4.75 4.25 -5.125 2.125 C-3.125 0.125 -3.125 0.125 0 0 Z " transform="translate(515.125,682.875)" style="fill: #39454E;"/><path d="M0 0 C4.43476564 0.70022615 5.85246408 1.85246408 9 5 C8.625 7.125 8.625 7.125 8 9 C6.66368764 7.6905332 5.33102075 6.37734515 4 5.0625 C2.88625 3.96615234 2.88625 3.96615234 1.75 2.84765625 C0 1 0 1 0 0 Z " transform="translate(589,450)" style="fill: #273937;"/><path d="M0 0 C-1.65 1.98 -3.3 3.96 -5 6 C-5.99 4.68 -6.98 3.36 -8 2 C-7.67 1.34 -7.34 0.68 -7 0 C-2.52459016 -1.26229508 -2.52459016 -1.26229508 0 0 Z " transform="translate(456,392)" style="fill: #E1E3EA;"/><path d="M0 0 C0.78375 0.144375 1.5675 0.28875 2.375 0.4375 C3.035 1.4275 3.695 2.4175 4.375 3.4375 C3.055 3.7675 1.735 4.0975 0.375 4.4375 C0.375 3.7775 0.375 3.1175 0.375 2.4375 C-1.935 3.0975 -4.245 3.7575 -6.625 4.4375 C-4.47711998 1.89186442 -3.34583605 0.55763934 0 0 Z " transform="translate(543.625,647.5625)" style="fill: #3A454B;"/><path d="M0 0 C0.33 0.99 0.66 1.98 1 3 C-1.21368294 5.21368294 -2.93016625 6.86552921 -6.11328125 7.265625 C-8.07746787 7.25166986 -10.0402625 7.13286356 -12 7 C-12 6.67 -12 6.34 -12 6 C-10.4221875 5.9071875 -10.4221875 5.9071875 -8.8125 5.8125 C-4.3708265 4.86591384 -2.88406243 3.40843742 0 0 Z " transform="translate(513,712)" style="fill: #243F28;"/><path d="M0 0 C0 0.66 0 1.32 0 2 C-2.97 2 -5.94 2 -9 2 C-9.33 1.34 -9.66 0.68 -10 0 C-6.30458414 -0.95024979 -3.69541586 -0.95024979 0 0 Z " transform="translate(626,842)" style="fill: #EBE3EA;"/><path d="M0 0 C0.33 0.99 0.66 1.98 1 3 C1.99 3 2.98 3 4 3 C3.34 4.65 2.68 6.3 2 8 C2.66 8.33 3.32 8.66 4 9 C3.01 9.33 2.02 9.66 1 10 C1 8.35 1 6.7 1 5 C0.34 5 -0.32 5 -1 5 C-0.67 3.35 -0.34 1.7 0 0 Z " transform="translate(619,748)" style="fill: #D4E2E3;"/><path d="M0 0 C1 3 1 3 0.22265625 5.04296875 C-0.16019531 5.75066406 -0.54304688 6.45835937 -0.9375 7.1875 C-1.31777344 7.90292969 -1.69804687 8.61835938 -2.08984375 9.35546875 C-2.54037109 10.16951172 -2.54037109 10.16951172 -3 11 C-4.06192476 7.73635123 -4.07454186 7.17280159 -2.625 3.8125 C-1 1 -1 1 0 0 Z " transform="translate(405,441)" style="fill: #E0E2E9;"/><path d="M0 0 C0.66 0.33 1.32 0.66 2 1 C-0.64 3.64 -3.28 6.28 -6 9 C-6.66 8.01 -7.32 7.02 -8 6 C-7.05125 5.38125 -6.1025 4.7625 -5.125 4.125 C-2.05554891 2.18029031 -2.05554891 2.18029031 0 0 Z " transform="translate(433,424)" style="fill: #1B302C;"/><path d="M0 0 C2.97 0.33 5.94 0.66 9 1 C8.67 1.66 8.34 2.32 8 3 C4.9375 3.625 4.9375 3.625 2 4 C1.34 2.68 0.68 1.36 0 0 Z " transform="translate(385,839)" style="fill: #35404E;"/><path d="M0 0 C0.33 0.66 0.66 1.32 1 2 C-1.97 2.66 -4.94 3.32 -8 4 C-8 3.01 -8 2.02 -8 1 C-5.29120665 -0.35439668 -2.99066732 -0.06501451 0 0 Z " transform="translate(699,828)" style="fill: #3A4446;"/><path d="M0 0 C2.31 0.33 4.62 0.66 7 1 C7 1.99 7 2.98 7 4 C6.01 4.495 6.01 4.495 5 5 C5 4.01 5 3.02 5 2 C3.02 2.33 1.04 2.66 -1 3 C-0.67 2.01 -0.34 1.02 0 0 Z " transform="translate(419,728)" style="fill: #3B474B;"/><path d="M0 0 C0.99 0.33 1.98 0.66 3 1 C3 1.66 3 2.32 3 3 C2.34 3 1.68 3 1 3 C1 3.99 1 4.98 1 6 C1.66 6.33 2.32 6.66 3 7 C0 7 0 7 -1 6 C-1.125 3.5 -1.125 3.5 -1 1 C-0.67 0.67 -0.34 0.34 0 0 Z " transform="translate(489,689)" style="fill: #3A4750;"/><path d="M0 0 C4.41889613 1.35021826 6.34345343 3.26115668 9 7 C8.67 7.66 8.34 8.32 8 9 C6.66368764 7.6905332 5.33102075 6.37734515 4 5.0625 C2.88625 3.96615234 2.88625 3.96615234 1.75 2.84765625 C0 1 0 1 0 0 Z " transform="translate(603,424)" style="fill: #253933;"/><path d="M0 0 C0.66 0.99 1.32 1.98 2 3 C1.01 4.32 0.02 5.64 -1 7 C-1.99 6.67 -2.98 6.34 -4 6 C-4 4 -4 4 -2 1.875 C-1.34 1.25625 -0.68 0.6375 0 0 Z " transform="translate(674,839)" style="fill: #E8E8E6;"/><path d="M0 0 C0.99 0.33 1.98 0.66 3 1 C2.45276317 4.37462715 1.9451 6.08235 0 9 C0 6.03 0 3.06 0 0 Z " transform="translate(400,831)" style="fill: #F7F7F9;"/><path d="M0 0 C0.99 0 1.98 0 3 0 C2.67 3.3 2.34 6.6 2 10 C1.67 10 1.34 10 1 10 C1 8.35 1 6.7 1 5 C0.34 4.67 -0.32 4.34 -1 4 C-0.67 2.68 -0.34 1.36 0 0 Z " transform="translate(383,829)" style="fill: #E0E2EA;"/><path d="M0 0 C-0.33 0.66 -0.66 1.32 -1 2 C-3.64860427 2.59355614 -6.29197322 2.74209269 -9 3 C-9 2.34 -9 1.68 -9 1 C-6.04335481 -0.4783226 -3.25770263 -0.06032783 0 0 Z " transform="translate(542,824)" style="fill: #C5D8E4;"/><path d="M0 0 C0 3 0 3 -1 6 C-2.65 6 -4.3 6 -6 6 C-6.33 5.34 -6.66 4.68 -7 4 C-6.030625 3.525625 -5.06125 3.05125 -4.0625 2.5625 C-1.19522563 1.29806053 -1.19522563 1.29806053 0 0 Z " transform="translate(553,562)" style="fill: #E4E5DD;"/><path d="M0 0 C2.97 0.495 2.97 0.495 6 1 C6 1.66 6 2.32 6 3 C6.66 3.33 7.32 3.66 8 4 C5 5 5 5 1.8125 3.5625 C0.884375 3.046875 -0.04375 2.53125 -1 2 C-0.67 1.34 -0.34 0.68 0 0 Z " transform="translate(580,444)" style="fill: #344A3F;"/><path d="M0 0 C2.31 0.33 4.62 0.66 7 1 C7 1.66 7 2.32 7 3 C4.36 3 1.72 3 -1 3 C-0.67 2.01 -0.34 1.02 0 0 Z " transform="translate(490,251)" style="fill: #F6D8D4;"/><path d="M0 0 C2.31 0 4.62 0 7 0 C6.01 1.485 6.01 1.485 5 3 C2.375 3.1875 2.375 3.1875 0 3 C0 2.01 0 1.02 0 0 Z " transform="translate(544,824)" style="fill: #C3D5E3;"/><path d="M0 0 C0.33 0.99 0.66 1.98 1 3 C2.32 2.67 3.64 2.34 5 2 C3.35 3.98 1.7 5.96 0 8 C-1.09658936 4.71023192 -0.79953138 3.28696233 0 0 Z " transform="translate(605,762)" style="fill: #2A4035;"/><path d="M0 0 C1.32 0 2.64 0 4 0 C3.67 0.99 3.34 1.98 3 3 C-0.3 3 -3.6 3 -7 3 C-7 2.67 -7 2.34 -7 2 C-4.69 2 -2.38 2 0 2 C0 1.34 0 0.68 0 0 Z " transform="translate(546,583)" style="fill: #1D372E;"/><path d="M0 0 C0.33 0.99 0.66 1.98 1 3 C-0.98 3.99 -0.98 3.99 -3 5 C-3.66 4.34 -4.32 3.68 -5 3 C-2.25 0 -2.25 0 0 0 Z " transform="translate(378,838)" style="fill: #374848;"/><path d="M0 0 C0.66 1.32 1.32 2.64 2 4 C0 6 0 6 -2.625 6.125 C-3.40875 6.08375 -4.1925 6.0425 -5 6 C-3.35 4.02 -1.7 2.04 0 0 Z " transform="translate(546,711)" style="fill: #E3E8DD;"/><path d="M0 0 C2.31 0 4.62 0 7 0 C7.33 0.66 7.66 1.32 8 2 C4.67465243 3.10844919 2.37817425 2.84454356 -1 2 C-0.67 1.34 -0.34 0.68 0 0 Z " transform="translate(475,609)" style="fill: #F7F7F2;"/></svg>