<svg xmlns="http://www.w3.org/2000/svg" id="svg0.8378810806762378" viewBox="0 0 1024 1024"><path d="M0 0 C337.92 0 675.84 0 1024 0 C1024 337.92 1024 675.84 1024 1024 C686.08 1024 348.16 1024 0 1024 C0 686.08 0 348.16 0 0 Z " transform="translate(0,0)" style="fill: #F1F1F0;"/><path d="M0 0 C0.97708923 -0.01004562 1.95417847 -0.02009125 2.96087646 -0.03044128 C4.57464928 -0.03918777 4.57464928 -0.03918777 6.22102356 -0.04811096 C7.9163472 -0.06278664 7.9163472 -0.06278664 9.6459198 -0.07775879 C13.39986484 -0.10776225 17.15377411 -0.12911267 20.90779114 -0.14796448 C22.18802973 -0.1545363 23.46826832 -0.16110813 24.78730202 -0.1678791 C30.16856416 -0.19377713 35.54981305 -0.21726579 40.93111706 -0.23237514 C48.63705475 -0.25426612 56.34229424 -0.29619842 64.04795283 -0.36581272 C70.12307628 -0.41882698 76.19792436 -0.43886553 82.27326393 -0.44757271 C84.85487087 -0.45614041 87.43646495 -0.47499047 90.01791954 -0.50431633 C93.63304908 -0.54317153 97.24636023 -0.5442719 100.86164856 -0.53639221 C102.46023964 -0.56639313 102.46023964 -0.56639313 104.09112549 -0.59700012 C110.26161145 -0.53665698 113.69164767 0.2861416 118.14032459 4.67732143 C120.72253099 7.80530338 120.50725368 10.28329997 120.54182434 14.25926208 C120.56107719 16.18200958 120.56107719 16.18200958 120.58071899 18.14360046 C120.58888744 19.55031447 120.59633097 20.95703285 120.60310364 22.36375427 C120.60717916 23.07154778 120.61125469 23.77934128 120.61545372 24.50858307 C120.63631802 28.25669056 120.65061671 32.00476142 120.6599884 35.75291443 C120.6710386 39.61774445 120.70542049 43.48199643 120.7451601 47.34662247 C120.77135591 50.32356305 120.77968294 53.30036672 120.78326988 56.27741241 C120.78813023 57.70152936 120.79972865 59.12564042 120.81830788 60.54964447 C120.84275181 62.54776047 120.83930936 64.54615793 120.83479309 66.54441833 C120.84065933 67.67978027 120.84652557 68.81514221 120.85256958 69.98490906 C120.08049627 75.01187561 117.85950968 77.84626634 114.1352787 81.12119293 C109.74749604 85.01228263 106.84949794 87.70653883 106.25561523 93.71110535 C106.21774254 95.80430425 106.22858492 97.89876455 106.27961731 99.99168396 C106.2718779 101.14254486 106.26413849 102.29340576 106.25616455 103.47914124 C106.24209937 107.26504002 106.29250561 111.04699436 106.34529114 114.83250427 C106.35193276 117.47898682 106.3554117 120.12530155 106.35513306 122.77177429 C106.36161846 128.31334877 106.40246285 133.85380651 106.46614075 139.39500427 C106.53917062 145.76911444 106.56744942 152.14212515 106.56928939 158.51662898 C106.57133446 164.68318366 106.59646672 170.84940004 106.63486671 177.01583099 C106.65003038 179.62310337 106.66075135 182.23040573 106.6668148 184.83771515 C106.68031952 188.4963162 106.72037724 192.15369795 106.76789856 195.81199646 C106.76765686 196.87320709 106.76741516 197.93441772 106.76716614 199.02778625 C106.94098866 208.55780095 108.77109558 219.18427701 114.93171692 226.80467224 C117.5613184 229.29271426 120.52479804 230.74982666 123.80232239 232.22312927 C124.50679504 232.55909119 125.2112677 232.8950531 125.93708801 233.24119568 C130.35370428 235.32351319 134.84315205 237.19269819 139.36482239 239.03562927 C166.42754227 250.49351181 188.60456953 272.3837608 199.67732239 299.66062927 C203.82419943 310.61529612 207.47793485 322.25492497 207.49904346 334.04757023 C207.50350131 335.20798677 207.50795915 336.3684033 207.51255208 337.56398398 C207.51227554 339.46215932 207.51227554 339.46215932 207.51199341 341.39868164 C207.51529537 342.76402975 207.51902164 344.12937688 207.52313489 345.49472278 C207.53312507 349.24139271 207.53686686 352.98804662 207.5395242 356.73472798 C207.54343608 360.77786061 207.55301373 364.82098066 207.56173706 368.86410522 C207.58147569 378.62518944 207.591564 388.38627465 207.60046485 398.14737383 C207.60485168 402.74762264 207.61021744 407.3478703 207.61545372 411.94811821 C207.63246277 427.24612088 207.64695637 442.54412285 207.65420246 457.84213352 C207.65611225 461.80970829 207.6580326 465.77728305 207.6599884 469.74485779 C207.66047214 470.73093885 207.66095588 471.71701991 207.66145428 472.73298221 C207.66975254 488.70264118 207.69508745 504.67222519 207.72756908 520.64185143 C207.76066728 537.0487557 207.77865368 553.45562191 207.7818467 569.86255974 C207.78400915 579.06991504 207.79271905 588.27716101 207.81830788 597.48448372 C207.84005254 605.32654595 207.84804678 613.16847228 207.83834109 621.01056124 C207.83380739 625.00817074 207.83562809 629.00550006 207.85510254 633.00307083 C207.87281403 636.6705922 207.8716727 640.33763063 207.85620525 644.0051577 C207.85273066 645.94381738 207.8687956 647.8824826 207.88580972 649.82107073 C207.78267764 663.98728565 203.83804768 675.31060271 194.04060364 685.60203552 C186.88367122 692.42190676 178.50267316 698.27374925 168.29015827 698.29205704 C167.48307999 698.29589818 166.67600171 698.29973933 165.84446651 698.30369687 C164.96344789 698.30283039 164.08242928 698.30196391 163.17471313 698.30107117 C161.76416083 698.30552785 161.76416083 698.30552785 160.32511252 698.31007457 C157.16622104 698.31876339 154.00736745 698.32026998 150.84846497 698.32176208 C148.58664367 698.32639016 146.32482315 698.3314148 144.06300354 698.33680725 C137.91200612 698.34993499 131.76101962 698.35637704 125.61001039 698.36081791 C121.76724427 698.36374826 117.92448115 698.36785301 114.08171654 698.37232208 C103.43668742 698.38443138 92.79166194 698.39481308 82.14662647 698.39819717 C81.46551282 698.39841674 80.78439916 698.39863631 80.0826457 698.39886253 C79.39992424 698.3990808 78.71720279 698.39929908 78.01379281 698.39952397 C76.63039577 698.39996744 75.24699873 698.400414 73.86360168 698.40086365 C73.17739247 698.40108508 72.49118326 698.40130651 71.78417983 698.40153465 C60.67129164 698.40548057 49.55846911 698.42292861 38.44560627 698.44622317 C27.02891426 698.46996086 15.61226992 698.48214238 4.19555014 698.48356509 C-2.21154173 698.48461313 -8.61854102 698.49052077 -15.02560997 698.5083847 C-21.05433872 698.52486646 -27.0829053 698.52702026 -33.11164856 698.5182457 C-35.32191718 698.51747536 -37.53219453 698.52181752 -39.74244118 698.53170395 C-42.76520332 698.54442955 -45.78739163 698.53854301 -48.81015015 698.52812195 C-49.68001515 698.53617835 -50.54988016 698.54423476 -51.44610471 698.5525353 C-59.12937045 698.49079834 -66.05193263 696.7111619 -72.38517761 692.22312927 C-73.08127136 691.73973083 -73.77736511 691.2563324 -74.49455261 690.75828552 C-75.55416199 689.96744568 -75.55416199 689.96744568 -76.63517761 689.16062927 C-77.89394714 688.23443787 -77.89394714 688.23443787 -79.17814636 687.28953552 C-87.01331611 680.50071594 -91.91026791 669.26701919 -93.63517761 659.16062927 C-93.72627423 657.25975655 -93.7677057 655.35615971 -93.772192 653.45311069 C-93.77726654 652.30720229 -93.78234109 651.16129388 -93.7875694 649.98066097 C-93.78831604 648.09899783 -93.78831604 648.09899783 -93.78907776 646.17932129 C-93.79309502 644.82949985 -93.79753369 643.47967961 -93.80235732 642.12986082 C-93.81430067 638.42111256 -93.81996614 634.7123773 -93.82453847 631.00361359 C-93.83050361 627.00255301 -93.8421117 623.0015079 -93.85282898 619.00045776 C-93.87734037 609.33383253 -93.89198255 599.66720218 -93.90488905 590.00055543 C-93.90860326 587.26700481 -93.91257635 584.5334547 -93.91664171 581.79990458 C-93.94189122 564.80323115 -93.96393158 547.80655686 -93.97636986 530.80986881 C-93.9792993 526.8734849 -93.98226099 522.93710101 -93.98527527 519.00071716 C-93.98602132 518.02241263 -93.98676737 517.04410809 -93.98753603 516.03615796 C-94.0001643 500.22122623 -94.03335302 484.40640758 -94.0750771 468.5915286 C-94.11762412 452.33038491 -94.14107997 436.06929886 -94.14629042 419.80809969 C-94.14969116 410.68816223 -94.16128656 401.56840113 -94.19439316 392.44851875 C-94.22257147 384.67364485 -94.23331609 376.89898345 -94.2221977 369.12406249 C-94.21705512 365.16578651 -94.21960539 361.20795421 -94.24466324 357.24974442 C-94.43914236 324.7305805 -89.24482564 295.74862254 -67.63517761 270.16062927 C-66.95713074 269.3485199 -66.27908386 268.53641052 -65.58049011 267.69969177 C-52.8806351 253.01124736 -36.9245496 243.45541131 -19.63517761 235.16062927 C-16.92867342 233.78296283 -14.22585483 232.3985442 -11.52580261 231.00828552 C-9.63517761 230.16062927 -9.63517761 230.16062927 -7.63517761 230.16062927 C-7.36705261 229.58957458 -7.09892761 229.0185199 -6.82267761 228.43016052 C-5.18766543 225.30535105 -3.12720945 222.5332836 -1.07267761 219.67234802 C2.84106642 212.83393113 2.66866746 205.9416359 2.68367004 198.25852966 C2.69371567 197.07732544 2.70376129 195.89612122 2.71411133 194.67912292 C2.73961069 191.45855739 2.75652199 188.23808725 2.76953936 185.01745152 C2.78522691 181.64483393 2.81199903 178.27230428 2.83757019 174.89974976 C2.88425882 168.52160039 2.92105071 162.14343431 2.95424306 155.76520199 C2.99253477 148.50031082 3.04192633 141.23550819 3.09222722 133.9706918 C3.19539946 119.03406982 3.28470742 104.09739406 3.36482239 89.16062927 C2.76540833 88.8744574 2.16599426 88.58828552 1.54841614 88.29344177 C-5.52697774 84.62284388 -10.13465042 78.66221085 -12.63517761 71.16062927 C-12.75403912 69.15871561 -12.81474812 67.15316101 -12.84391785 65.14793396 C-12.86320847 63.90944702 -12.88249908 62.67096008 -12.90237427 61.39494324 C-12.91718275 60.04080758 -12.93095597 58.68666026 -12.94377136 57.33250427 C-12.95034319 56.64894112 -12.95691502 55.96537796 -12.96368599 55.26110077 C-12.99625063 51.64153105 -13.02070647 48.02199038 -13.04020691 44.40232849 C-13.05800319 41.41458567 -13.09279697 38.42778973 -13.14274597 35.44041443 C-13.20311131 31.82528455 -13.23370399 28.21103067 -13.24337959 24.59542084 C-13.25190891 23.22230578 -13.27066518 21.84921255 -13.30012321 20.47638702 C-13.54506038 8.41036103 -13.54506038 8.41036103 -9.72135925 3.82566833 C-6.52827522 0.75081284 -4.40901865 0.0355631 0 0 Z " transform="translate(457.6351776123047,165.83937072753906)" style="fill: #E8E9E8;"/><path d="M0 0 C0.97708923 -0.01004562 1.95417847 -0.02009125 2.96087646 -0.03044128 C4.57464928 -0.03918777 4.57464928 -0.03918777 6.22102356 -0.04811096 C7.9163472 -0.06278664 7.9163472 -0.06278664 9.6459198 -0.07775879 C13.39986484 -0.10776225 17.15377411 -0.12911267 20.90779114 -0.14796448 C22.18802973 -0.1545363 23.46826832 -0.16110813 24.78730202 -0.1678791 C30.16856416 -0.19377713 35.54981305 -0.21726579 40.93111706 -0.23237514 C48.63705475 -0.25426612 56.34229424 -0.29619842 64.04795283 -0.36581272 C70.12307628 -0.41882698 76.19792436 -0.43886553 82.27326393 -0.44757271 C84.85487087 -0.45614041 87.43646495 -0.47499047 90.01791954 -0.50431633 C93.63304908 -0.54317153 97.24636023 -0.5442719 100.86164856 -0.53639221 C102.46023964 -0.56639313 102.46023964 -0.56639313 104.09112549 -0.59700012 C110.26161145 -0.53665698 113.69164767 0.2861416 118.14032459 4.67732143 C120.72253099 7.80530338 120.50725368 10.28329997 120.54182434 14.25926208 C120.56107719 16.18200958 120.56107719 16.18200958 120.58071899 18.14360046 C120.58888744 19.55031447 120.59633097 20.95703285 120.60310364 22.36375427 C120.60717916 23.07154778 120.61125469 23.77934128 120.61545372 24.50858307 C120.63631802 28.25669056 120.65061671 32.00476142 120.6599884 35.75291443 C120.6710386 39.61774445 120.70542049 43.48199643 120.7451601 47.34662247 C120.77135591 50.32356305 120.77968294 53.30036672 120.78326988 56.27741241 C120.78813023 57.70152936 120.79972865 59.12564042 120.81830788 60.54964447 C120.84275181 62.54776047 120.83930936 64.54615793 120.83479309 66.54441833 C120.84065933 67.67978027 120.84652557 68.81514221 120.85256958 69.98490906 C120.08049627 75.01187561 117.85950968 77.84626634 114.1352787 81.12119293 C109.74749604 85.01228263 106.84949794 87.70653883 106.25561523 93.71110535 C106.21774254 95.80430425 106.22858492 97.89876455 106.27961731 99.99168396 C106.2718779 101.14254486 106.26413849 102.29340576 106.25616455 103.47914124 C106.24209937 107.26504002 106.29250561 111.04699436 106.34529114 114.83250427 C106.35193276 117.47898682 106.3554117 120.12530155 106.35513306 122.77177429 C106.36161846 128.31334877 106.40246285 133.85380651 106.46614075 139.39500427 C106.53917062 145.76911444 106.56744942 152.14212515 106.56928939 158.51662898 C106.57133446 164.68318366 106.59646672 170.84940004 106.63486671 177.01583099 C106.65003038 179.62310337 106.66075135 182.23040573 106.6668148 184.83771515 C106.68031952 188.4963162 106.72037724 192.15369795 106.76789856 195.81199646 C106.76765686 196.87320709 106.76741516 197.93441772 106.76716614 199.02778625 C106.94098866 208.55780095 108.77109558 219.18427701 114.93171692 226.80467224 C117.5613184 229.29271426 120.52479804 230.74982666 123.80232239 232.22312927 C124.50679504 232.55909119 125.2112677 232.8950531 125.93708801 233.24119568 C130.35370428 235.32351319 134.84315205 237.19269819 139.36482239 239.03562927 C166.42754227 250.49351181 188.60456953 272.3837608 199.67732239 299.66062927 C203.82419943 310.61529612 207.47793485 322.25492497 207.49904346 334.04757023 C207.50350131 335.20798677 207.50795915 336.3684033 207.51255208 337.56398398 C207.51227554 339.46215932 207.51227554 339.46215932 207.51199341 341.39868164 C207.51529537 342.76402975 207.51902164 344.12937688 207.52313489 345.49472278 C207.53312507 349.24139271 207.53686686 352.98804662 207.5395242 356.73472798 C207.54343608 360.77786061 207.55301373 364.82098066 207.56173706 368.86410522 C207.58147569 378.62518944 207.591564 388.38627465 207.60046485 398.14737383 C207.60485168 402.74762264 207.61021744 407.3478703 207.61545372 411.94811821 C207.63246277 427.24612088 207.64695637 442.54412285 207.65420246 457.84213352 C207.65611225 461.80970829 207.6580326 465.77728305 207.6599884 469.74485779 C207.66047214 470.73093885 207.66095588 471.71701991 207.66145428 472.73298221 C207.66975254 488.70264118 207.69508745 504.67222519 207.72756908 520.64185143 C207.76066728 537.0487557 207.77865368 553.45562191 207.7818467 569.86255974 C207.78400915 579.06991504 207.79271905 588.27716101 207.81830788 597.48448372 C207.84005254 605.32654595 207.84804678 613.16847228 207.83834109 621.01056124 C207.83380739 625.00817074 207.83562809 629.00550006 207.85510254 633.00307083 C207.87281403 636.6705922 207.8716727 640.33763063 207.85620525 644.0051577 C207.85273066 645.94381738 207.8687956 647.8824826 207.88580972 649.82107073 C207.78267764 663.98728565 203.83804768 675.31060271 194.04060364 685.60203552 C186.88367122 692.42190676 178.50267316 698.27374925 168.29015827 698.29205704 C167.48307999 698.29589818 166.67600171 698.29973933 165.84446651 698.30369687 C164.96344789 698.30283039 164.08242928 698.30196391 163.17471313 698.30107117 C161.76416083 698.30552785 161.76416083 698.30552785 160.32511252 698.31007457 C157.16622104 698.31876339 154.00736745 698.32026998 150.84846497 698.32176208 C148.58664367 698.32639016 146.32482315 698.3314148 144.06300354 698.33680725 C137.91200612 698.34993499 131.76101962 698.35637704 125.61001039 698.36081791 C121.76724427 698.36374826 117.92448115 698.36785301 114.08171654 698.37232208 C103.43668742 698.38443138 92.79166194 698.39481308 82.14662647 698.39819717 C81.46551282 698.39841674 80.78439916 698.39863631 80.0826457 698.39886253 C79.39992424 698.3990808 78.71720279 698.39929908 78.01379281 698.39952397 C76.63039577 698.39996744 75.24699873 698.400414 73.86360168 698.40086365 C73.17739247 698.40108508 72.49118326 698.40130651 71.78417983 698.40153465 C60.67129164 698.40548057 49.55846911 698.42292861 38.44560627 698.44622317 C27.02891426 698.46996086 15.61226992 698.48214238 4.19555014 698.48356509 C-2.21154173 698.48461313 -8.61854102 698.49052077 -15.02560997 698.5083847 C-21.05433872 698.52486646 -27.0829053 698.52702026 -33.11164856 698.5182457 C-35.32191718 698.51747536 -37.53219453 698.52181752 -39.74244118 698.53170395 C-42.76520332 698.54442955 -45.78739163 698.53854301 -48.81015015 698.52812195 C-49.68001515 698.53617835 -50.54988016 698.54423476 -51.44610471 698.5525353 C-59.12937045 698.49079834 -66.05193263 696.7111619 -72.38517761 692.22312927 C-73.08127136 691.73973083 -73.77736511 691.2563324 -74.49455261 690.75828552 C-75.55416199 689.96744568 -75.55416199 689.96744568 -76.63517761 689.16062927 C-77.89394714 688.23443787 -77.89394714 688.23443787 -79.17814636 687.28953552 C-87.01331611 680.50071594 -91.91026791 669.26701919 -93.63517761 659.16062927 C-93.72627423 657.25975655 -93.7677057 655.35615971 -93.772192 653.45311069 C-93.77726654 652.30720229 -93.78234109 651.16129388 -93.7875694 649.98066097 C-93.78831604 648.09899783 -93.78831604 648.09899783 -93.78907776 646.17932129 C-93.79309502 644.82949985 -93.79753369 643.47967961 -93.80235732 642.12986082 C-93.81430067 638.42111256 -93.81996614 634.7123773 -93.82453847 631.00361359 C-93.83050361 627.00255301 -93.8421117 623.0015079 -93.85282898 619.00045776 C-93.87734037 609.33383253 -93.89198255 599.66720218 -93.90488905 590.00055543 C-93.90860326 587.26700481 -93.91257635 584.5334547 -93.91664171 581.79990458 C-93.94189122 564.80323115 -93.96393158 547.80655686 -93.97636986 530.80986881 C-93.9792993 526.8734849 -93.98226099 522.93710101 -93.98527527 519.00071716 C-93.98602132 518.02241263 -93.98676737 517.04410809 -93.98753603 516.03615796 C-94.0001643 500.22122623 -94.03335302 484.40640758 -94.0750771 468.5915286 C-94.11762412 452.33038491 -94.14107997 436.06929886 -94.14629042 419.80809969 C-94.14969116 410.68816223 -94.16128656 401.56840113 -94.19439316 392.44851875 C-94.22257147 384.67364485 -94.23331609 376.89898345 -94.2221977 369.12406249 C-94.21705512 365.16578651 -94.21960539 361.20795421 -94.24466324 357.24974442 C-94.43914236 324.7305805 -89.24482564 295.74862254 -67.63517761 270.16062927 C-66.95713074 269.3485199 -66.27908386 268.53641052 -65.58049011 267.69969177 C-52.8806351 253.01124736 -36.9245496 243.45541131 -19.63517761 235.16062927 C-16.92867342 233.78296283 -14.22585483 232.3985442 -11.52580261 231.00828552 C-9.63517761 230.16062927 -9.63517761 230.16062927 -7.63517761 230.16062927 C-7.36705261 229.58957458 -7.09892761 229.0185199 -6.82267761 228.43016052 C-5.18766543 225.30535105 -3.12720945 222.5332836 -1.07267761 219.67234802 C2.84106642 212.83393113 2.66866746 205.9416359 2.68367004 198.25852966 C2.69371567 197.07732544 2.70376129 195.89612122 2.71411133 194.67912292 C2.73961069 191.45855739 2.75652199 188.23808725 2.76953936 185.01745152 C2.78522691 181.64483393 2.81199903 178.27230428 2.83757019 174.89974976 C2.88425882 168.52160039 2.92105071 162.14343431 2.95424306 155.76520199 C2.99253477 148.50031082 3.04192633 141.23550819 3.09222722 133.9706918 C3.19539946 119.03406982 3.28470742 104.09739406 3.36482239 89.16062927 C2.76540833 88.8744574 2.16599426 88.58828552 1.54841614 88.29344177 C-5.52697774 84.62284388 -10.13465042 78.66221085 -12.63517761 71.16062927 C-12.75403912 69.15871561 -12.81474812 67.15316101 -12.84391785 65.14793396 C-12.86320847 63.90944702 -12.88249908 62.67096008 -12.90237427 61.39494324 C-12.91718275 60.04080758 -12.93095597 58.68666026 -12.94377136 57.33250427 C-12.95034319 56.64894112 -12.95691502 55.96537796 -12.96368599 55.26110077 C-12.99625063 51.64153105 -13.02070647 48.02199038 -13.04020691 44.40232849 C-13.05800319 41.41458567 -13.09279697 38.42778973 -13.14274597 35.44041443 C-13.20311131 31.82528455 -13.23370399 28.21103067 -13.24337959 24.59542084 C-13.25190891 23.22230578 -13.27066518 21.84921255 -13.30012321 20.47638702 C-13.54506038 8.41036103 -13.54506038 8.41036103 -9.72135925 3.82566833 C-6.52827522 0.75081284 -4.40901865 0.0355631 0 0 Z M15.36482239 100.16062927 C15.32743958 107.88984802 15.29005676 115.61906677 15.25154114 123.58250427 C15.22124547 128.49528648 15.19008703 133.40803316 15.15583801 138.32078552 C15.10162438 146.10901547 15.05050984 153.89717514 15.01838684 161.68553162 C14.99227196 167.9685707 14.95181154 174.25137223 14.90163612 180.53426361 C14.88502272 182.92464989 14.87347419 185.3150772 14.86720848 187.705513 C14.85750726 191.06808043 14.82937579 194.43004762 14.79719543 197.79246521 C14.79934807 199.25659599 14.79934807 199.25659599 14.80154419 200.75030518 C14.6587366 211.38430912 12.39709128 221.30333087 6.36482239 230.16062927 C5.9072052 230.83738708 5.44958801 231.5141449 4.97810364 232.21141052 C-1.43101083 240.52550108 -11.5042479 244.64620001 -20.71891785 249.16038513 C-32.64930432 255.00643146 -43.114073 261.79689829 -52.63517761 271.16062927 C-53.38412292 271.89668396 -54.13306824 272.63273865 -54.90470886 273.39109802 C-78.30798059 297.86001785 -82.26795572 327.48426395 -82.15807629 359.90320456 C-82.14892788 363.90520779 -82.163043 367.90714446 -82.17399597 371.90913391 C-82.19167918 379.72301346 -82.18798809 387.53673838 -82.17634541 395.35062372 C-82.16727541 401.70308733 -82.16610241 408.05550791 -82.17044067 414.40797615 C-82.17105361 415.31545523 -82.17166654 416.22293431 -82.17229804 417.15791275 C-82.17357705 419.0019151 -82.17487391 420.84591745 -82.17618841 422.68991978 C-82.18756312 439.9333861 -82.17452713 457.176767 -82.15298694 474.42021931 C-82.13509757 489.19872215 -82.13824124 503.97709936 -82.15666199 518.75559998 C-82.17808722 535.95238086 -82.18648702 553.14908725 -82.17421293 570.34587961 C-82.17293883 572.18058398 -82.17168134 574.01528836 -82.17044067 575.84999275 C-82.16982357 576.75252742 -82.16920647 577.65506208 -82.16857067 578.58494629 C-82.16512431 584.92942072 -82.17093023 591.27384766 -82.18035889 597.61831474 C-82.19159771 605.35000778 -82.18849843 613.08153845 -82.16723591 620.81321298 C-82.15675403 624.7539352 -82.15255476 628.69438708 -82.16583252 632.63510704 C-82.17782078 636.24779529 -82.17108944 639.85996456 -82.14992231 643.47260625 C-82.14339376 645.38630419 -82.15633401 647.30003865 -82.17015123 649.21369785 C-82.07263154 660.02901906 -79.59778694 669.99837901 -71.88517761 677.96922302 C-64.64800809 684.76820455 -57.73750994 686.6159551 -48.03997803 686.54830933 C-47.10435923 686.55369486 -46.16874043 686.5590804 -45.20476955 686.56462914 C-42.08581468 686.57887768 -38.96728608 686.57181259 -35.84831238 686.56468201 C-33.60560262 686.57038717 -31.36289577 686.57735199 -29.12019348 686.58547974 C-23.03963639 686.60340958 -16.95922362 686.60224308 -10.87864804 686.59653735 C-5.79907345 686.5934454 -0.71952658 686.59953801 4.36004406 686.6055761 C17.02931086 686.62042148 29.6984908 686.6168083 42.36775107 686.60471279 C53.3575554 686.59478087 64.34719136 686.60772256 75.33696973 686.63164698 C86.6362749 686.6560589 97.93550375 686.6652414 109.23484188 686.65899426 C115.57258334 686.65562477 121.91018567 686.65803952 128.24790764 686.67524529 C134.20780635 686.69071949 140.1673837 686.6867532 146.12726974 686.66794014 C148.3117358 686.66425569 150.4962257 686.66735847 152.68066978 686.67782593 C155.66836202 686.69104699 158.65499209 686.67947791 161.64263916 686.66183472 C162.9316711 686.67624223 162.9316711 686.67624223 164.2467441 686.6909408 C172.61762796 686.58960126 179.5591251 683.5901519 185.73200989 677.93406677 C191.44133423 671.73303028 195.61003211 664.9539874 195.62209129 656.39508533 C195.63176463 654.65684725 195.63176463 654.65684725 195.64163339 652.88349324 C195.63853619 651.61464982 195.63543898 650.3458064 195.63224792 649.03851318 C195.63598503 647.6734653 195.64058679 646.30841955 195.64597857 644.9433772 C195.65821814 641.19267637 195.65794694 637.44206468 195.65558982 633.69134843 C195.65518185 629.64536881 195.66621937 625.59941783 195.67570496 621.55345154 C195.69232484 613.62385832 195.69781509 605.69429484 195.69892971 597.76468567 C195.69988041 591.31329554 195.70399181 584.86191521 195.71033096 578.41052818 C195.7279517 560.10384892 195.73716938 541.79719312 195.73567002 523.49050532 C195.7355901 522.50339183 195.73551019 521.51627834 195.73542786 520.49925232 C195.73530521 519.01676388 195.73530521 519.01676388 195.73518009 517.50432619 C195.73436858 501.51534391 195.75347017 485.52645616 195.78170459 469.53750119 C195.81049266 453.10460894 195.8242414 436.67176266 195.82251704 420.23884457 C195.82185483 411.01958459 195.82727181 401.80042349 195.84887314 392.58118629 C195.86716375 384.72459625 195.87136861 376.86814982 195.85785429 369.0115476 C195.85136205 365.00928076 195.85106978 361.00728877 195.86856079 357.00504875 C195.99862289 325.20244878 191.33884393 297.38774873 168.66560364 273.46141052 C167.90634583 272.70215271 167.14708801 271.9428949 166.36482239 271.16062927 C165.59525208 270.39105896 164.82568176 269.62148865 164.03279114 268.82859802 C152.35026783 257.75001776 137.83088027 250.75018367 122.92732239 245.03562927 C111.8752244 240.68066351 104.46930803 233.80864382 99.50888538 222.92062092 C96.08630615 214.663829 94.91943381 206.7912118 94.93244934 197.9059906 C94.91716187 196.30887238 94.91716187 196.30887238 94.90156555 194.67948914 C94.87164925 191.20049125 94.8622023 187.72176966 94.85310364 184.24266052 C94.83624113 181.81456604 94.81808879 179.38648021 94.79870605 176.95840454 C94.75137089 170.59798383 94.72145494 164.23759818 94.69526672 157.87705994 C94.66011382 150.22927115 94.60314818 142.58161697 94.54987335 134.93393707 C94.47155296 123.34285197 94.42080041 111.75194074 94.36482239 100.16062927 C68.29482239 100.16062927 42.22482239 100.16062927 15.36482239 100.16062927 Z " transform="translate(457.6351776123047,165.83937072753906)" style="fill: #27343C;"/><path d="M0 0 C1 2 1 2 0 5 C2.475 6.485 2.475 6.485 5 8 C4.34 8.33 3.68 8.66 3 9 C3.144375 9.680625 3.28875 10.36125 3.4375 11.0625 C2.84065084 15.0699158 0.89088391 16.29946902 -2 18.9921875 C-5.57329804 22.57944373 -8.24200896 26.7736341 -11 31 C-11.515625 31.77085937 -12.03125 32.54171875 -12.5625 33.3359375 C-26.51622664 55.21131103 -27.60819533 78.57656173 -27.52289867 103.74257529 C-27.51375027 107.74457852 -27.52786539 111.74651518 -27.53881836 115.74850464 C-27.55650157 123.56238419 -27.55281047 131.37610911 -27.5411678 139.18999445 C-27.53209779 145.54245806 -27.53092479 151.89487863 -27.53526306 158.24734688 C-27.53587599 159.15482596 -27.53648893 160.06230503 -27.53712043 160.99728348 C-27.53839944 162.84128583 -27.5396963 164.68528817 -27.5410108 166.5292905 C-27.55238551 183.77275683 -27.53934952 201.01613773 -27.51780933 218.25959004 C-27.49991995 233.03809288 -27.50306363 247.81647009 -27.52148438 262.5949707 C-27.54290961 279.79175159 -27.5513094 296.98845798 -27.53903532 314.18525034 C-27.53776121 316.01995471 -27.53650373 317.85465909 -27.53526306 319.68936348 C-27.53433741 321.04316548 -27.53433741 321.04316548 -27.53339306 322.42431701 C-27.5299467 328.76879145 -27.53575261 335.11321839 -27.54518127 341.45768547 C-27.5564201 349.18937851 -27.55332082 356.92090918 -27.5320583 364.65258371 C-27.52157642 368.59330593 -27.51737715 372.5337578 -27.53065491 376.47447777 C-27.54264317 380.08716602 -27.53591183 383.69933529 -27.5147447 387.31197698 C-27.50821615 389.22567492 -27.52115639 391.13940938 -27.53497362 393.05306858 C-27.43902344 403.69432417 -25.062668 413.70474883 -17.47265625 421.5859375 C-10.60565665 427.97022284 -3.50795436 429.4511797 5.59519958 429.38768005 C6.53081838 429.39306559 7.46643718 429.39845113 8.43040806 429.40399987 C11.54936293 429.41824841 14.66789153 429.41118331 17.78686523 429.40405273 C20.02957499 429.4097579 22.27228184 429.41672272 24.51498413 429.42485046 C30.59554122 429.44278031 36.67595399 429.44161381 42.75652957 429.43590808 C47.83610416 429.43281613 52.91565103 429.43890874 57.99522167 429.44494683 C70.66448847 429.45979221 83.33366842 429.45617903 96.00292868 429.44408352 C106.99273301 429.4341516 117.98236897 429.44709329 128.97214734 429.47101771 C140.27145251 429.49542962 151.57068136 429.50461212 162.8700195 429.49836498 C169.20776095 429.49499549 175.54536328 429.49741025 181.88308525 429.51461601 C187.84298397 429.53009022 193.80256132 429.52612393 199.76244736 429.50731087 C201.94691342 429.50362642 204.13140331 429.5067292 206.3158474 429.51719666 C209.30353963 429.53041772 212.2901697 429.51884864 215.27781677 429.50120544 C216.1371714 429.51081045 216.99652603 429.52041546 217.88192171 429.53031152 C226.62809195 429.4244287 233.7948591 426.2051409 240 420 C244.7334333 413.76821371 248.24599334 408.23719245 248.25726891 400.23445606 C248.26694224 398.49621798 248.26694224 398.49621798 248.276811 396.72286397 C248.2737138 395.45402055 248.2706166 394.18517713 248.26742554 392.87788391 C248.27116264 391.51283602 248.27576441 390.14779028 248.28115618 388.78274792 C248.29339575 385.0320471 248.29312455 381.28143541 248.29076743 377.53071916 C248.29035947 373.48473953 248.30139698 369.43878856 248.31088257 365.39282227 C248.32750245 357.46322905 248.3329927 349.53366557 248.33410732 341.6040564 C248.33505802 335.15266627 248.33916943 328.70128594 248.34550858 322.24989891 C248.36312931 303.94321965 248.37234699 285.63656384 248.37084763 267.32987604 C248.37076772 266.34276255 248.3706878 265.35564907 248.37060547 264.33862305 C248.37048283 262.85613461 248.37048283 262.85613461 248.37035771 261.34369691 C248.36954619 245.35471464 248.38864779 229.36582689 248.4168822 213.37687192 C248.44567027 196.94397967 248.45941901 180.51113339 248.45769465 164.0782153 C248.45703244 154.85895532 248.46244943 145.63979422 248.48405075 136.42055702 C248.50234136 128.56396698 248.50654622 120.70752054 248.4930319 112.85091833 C248.48653967 108.84865149 248.48624739 104.8466595 248.5037384 100.84441948 C248.63429892 68.91994742 243.88124821 41.44220215 221.3515625 17.3203125 C218.00163101 14.01489838 214.47623997 10.93365026 210.87109375 7.91015625 C209 6 209 6 209 3 C209.928125 2.814375 209.928125 2.814375 210.875 2.625 C213.19120832 2.12802644 213.19120832 2.12802644 215 0 C218.92208698 -0.59274478 220.55183674 -0.3055102 223.859375 1.94921875 C237.64391327 15.00727459 248.06178524 29.59053431 254.8125 47.4375 C255.09053467 48.16340332 255.36856934 48.88930664 255.6550293 49.63720703 C259.96769039 61.64964203 261.44924089 73.62687533 261.38768005 86.32034302 C261.39186629 87.69346196 261.39735079 89.06657743 261.40399987 90.43968666 C261.41830356 94.16609171 261.41425778 97.89227277 261.40683305 101.6186893 C261.40206603 105.65554228 261.41464195 109.69234922 261.42485046 113.72918701 C261.4419731 121.61831704 261.4428924 129.5073672 261.43763756 137.39651097 C261.43358364 143.81147688 261.43505386 150.22641932 261.44038582 156.64138412 C261.44113424 157.55701831 261.44188266 158.4726525 261.44265376 159.41603317 C261.44418535 161.27653966 261.44572369 163.13704614 261.44726873 164.99755262 C261.46096924 182.41034552 261.45557256 199.82309339 261.44408352 217.23588525 C261.43414605 233.14678212 261.44710506 249.05756278 261.47101771 264.96844174 C261.4954286 281.33496107 261.50501216 297.70142632 261.49836498 314.06796348 C261.49487818 323.24499066 261.49706963 332.42192844 261.51461601 341.5989418 C261.52936258 349.40786323 261.52994102 357.21663222 261.5125451 365.02555074 C261.50405434 369.0049846 261.50183829 372.98414642 261.51719666 376.96356583 C261.5311108 380.61409254 261.52619553 384.26411586 261.50695742 387.91461395 C261.50146111 389.84388395 261.51541225 391.77318003 261.53031152 393.70240033 C261.41196772 407.84825639 257.45864115 419.16529291 247.67578125 429.44140625 C240.51884883 436.26127749 232.13785077 442.11311998 221.92533588 442.13142776 C221.1182576 442.13526891 220.31117932 442.13911005 219.47964412 442.1430676 C218.59862551 442.14220112 217.71760689 442.14133463 216.80989075 442.14044189 C215.39933844 442.14489858 215.39933844 442.14489858 213.96029013 442.1494453 C210.80139866 442.15813412 207.64254507 442.15964071 204.48364258 442.16113281 C202.22182128 442.16576088 199.96000076 442.17078553 197.69818115 442.17617798 C191.54718374 442.18930572 185.39619724 442.19574777 179.245188 442.20018864 C175.40242188 442.20311898 171.55965876 442.20722374 167.71689415 442.21169281 C157.07186503 442.22380211 146.42683955 442.2341838 135.78180408 442.2375679 C135.10069043 442.23778747 134.41957677 442.23800703 133.71782331 442.23823325 C133.03510186 442.23845153 132.35238041 442.23866981 131.64897043 442.2388947 C130.26557338 442.23933816 128.88217634 442.23978473 127.4987793 442.24023438 C126.81257008 442.2404558 126.12636087 442.24067723 125.41935744 442.24090537 C114.30646925 442.2448513 103.19364672 442.26229934 92.08078388 442.2855939 C80.66409187 442.30933159 69.24744754 442.32151311 57.83072776 442.32293582 C51.42363588 442.32398386 45.01663659 442.3298915 38.60956764 442.34775543 C32.58083889 442.36423719 26.55227231 442.36639099 20.52352905 442.35761642 C18.31326043 442.35684609 16.10298308 442.36118824 13.89273643 442.37107468 C10.86997429 442.38380028 7.84778598 442.37791373 4.82502747 442.36749268 C3.95516246 442.37554908 3.08529746 442.38360548 2.18907291 442.39190602 C-5.49419284 442.33016907 -12.41675501 440.55053263 -18.75 436.0625 C-19.44609375 435.57910156 -20.1421875 435.09570312 -20.859375 434.59765625 C-21.91898437 433.80681641 -21.91898437 433.80681641 -23 433 C-23.83917969 432.38253906 -24.67835938 431.76507812 -25.54296875 431.12890625 C-33.3781385 424.34008667 -38.2750903 413.10638991 -40 403 C-40.09109661 401.09912728 -40.13252809 399.19553044 -40.13701439 397.29248142 C-40.14208893 396.14657301 -40.14716347 395.00066461 -40.15239179 393.8200317 C-40.15313843 391.93836856 -40.15313843 391.93836856 -40.15390015 390.01869202 C-40.15791741 388.66887058 -40.16235607 387.31905034 -40.1671797 385.96923155 C-40.17912306 382.26048329 -40.18478853 378.55174803 -40.18936086 374.84298432 C-40.19532599 370.84192374 -40.20693409 366.84087862 -40.21765137 362.83982849 C-40.24216276 353.17320325 -40.25680493 343.5065729 -40.26971143 333.83992615 C-40.27342565 331.10637554 -40.27739874 328.37282543 -40.2814641 325.63927531 C-40.30671361 308.64260188 -40.32875397 291.64592759 -40.34119225 274.64923954 C-40.34412169 270.71285563 -40.34708338 266.77647174 -40.35009766 262.84008789 C-40.35084371 261.86178335 -40.35158976 260.88347882 -40.35235842 259.87552869 C-40.36498669 244.06059696 -40.39817541 228.24577831 -40.43989949 212.43089933 C-40.48244651 196.16975564 -40.50590236 179.90866959 -40.51111281 163.64747041 C-40.51451355 154.52753296 -40.52610895 145.40777186 -40.55921555 136.28788948 C-40.58739386 128.51301558 -40.59813848 120.73835418 -40.58702008 112.96343321 C-40.58187751 109.00515723 -40.58442777 105.04732493 -40.60948563 101.08911514 C-40.83744014 62.97247779 -32.28881841 31.91559339 -5 4 C-3.35502291 2.63999782 -1.69385338 1.29862092 0 0 Z " transform="translate(404,422)" style="fill: #29363E;"/><path d="M0 0 C0.79550735 0.00092179 1.59101469 0.00184359 2.41062832 0.00279331 C3.32073162 0.00141865 4.23083492 0.00004398 5.16851711 -0.00137234 C6.1748016 0.00222294 7.18108608 0.00581821 8.21786404 0.00952244 C9.27139568 0.00937641 10.32492733 0.00923038 11.41038418 0.00907993 C14.91125415 0.00977957 18.41207166 0.01757435 21.9129324 0.02539158 C24.33288958 0.02725558 26.75284714 0.02867957 29.17280483 0.0296793 C35.55642639 0.03350591 41.94002536 0.04333742 48.32363796 0.05438328 C54.83191529 0.06459432 61.34019625 0.06917626 67.84847927 0.0742197 C80.62908977 0.08495956 93.40967755 0.10255751 106.19027615 0.12304783 C106.19027615 15.30304783 106.19027615 30.48304783 106.19027615 46.12304783 C70.22027615 46.12304783 34.25027615 46.12304783 -2.80972385 46.12304783 C-2.80972385 0.19104043 -2.80972385 0.19104043 0 0 Z " transform="translate(459.80972385406494,176.87695217132568)" style="fill: #E5E6E7;"/><path d="M0 0 C3.4375 0.8125 3.4375 0.8125 5.4375 2.8125 C5.68232727 5.30151367 5.68232727 5.30151367 5.67700195 8.48046875 C5.68073318 9.66930664 5.68446442 10.85814453 5.68830872 12.08300781 C5.68417465 13.37561523 5.68004059 14.66822266 5.67578125 16 C5.68180205 17.34082824 5.68940923 18.68165021 5.6985321 20.02246094 C5.73561338 25.71698339 5.75428485 31.41131723 5.74291992 37.10595703 C5.73702035 40.59046128 5.75557072 44.07416183 5.78880882 47.5585022 C5.80050215 49.51578338 5.78550273 51.47316639 5.76985168 53.43041992 C5.86758444 62.42765518 7.34166033 69.71666033 13.875 76.25 C19.50357128 79.68205566 23.73788096 81.25540764 30.35629272 81.20018005 C31.52545351 81.20825836 31.52545351 81.20825836 32.7182337 81.21649987 C35.32061888 81.23076617 37.92249444 81.22367909 40.52490234 81.21655273 C42.39456083 81.22225704 44.26421584 81.22922154 46.13386536 81.23735046 C51.20624972 81.25529137 56.27846118 81.25411158 61.35086775 81.24840808 C65.58791207 81.24531724 69.82492313 81.25140761 74.06196272 81.25744683 C84.0595658 81.27149383 94.05708343 81.2699296 104.0546875 81.25854492 C114.36235531 81.2470664 124.66976286 81.26113457 134.97739637 81.2879414 C143.83278941 81.3101076 152.68810081 81.3167336 161.54351962 81.31086498 C166.82995308 81.30749607 172.11621976 81.30990607 177.40262985 81.32711601 C182.37512768 81.3425974 187.34724045 81.33861622 192.31972313 81.31981087 C194.14178202 81.31612815 195.96386951 81.31922419 197.78590202 81.32969666 C200.27928936 81.34293056 202.77140647 81.33133871 205.26473999 81.31370544 C206.3384035 81.32811295 206.3384035 81.32811295 207.43375719 81.34281152 C212.26068656 81.2728943 215.56222952 80.07526963 219.68185484 77.76753575 C221.4375 76.8125 221.4375 76.8125 224.4375 75.8125 C225.553657 73.97209907 225.553657 73.97209907 226.4375 71.8125 C226.78485703 71.19514984 227.13221405 70.57779968 227.49009705 69.94174194 C231.06072487 63.04481968 230.99117338 56.55664047 230.94140625 48.9140625 C230.95579832 46.90995743 230.97020603 44.90585233 230.9855566 42.90175438 C231.00240924 40.11969819 231.00198228 37.33776274 231.00085449 34.55566406 C230.99887995 29.6610606 231.00575372 24.76665005 231.04075623 19.87216187 C231.05761067 17.27132432 231.06036929 14.67035004 231.04774475 12.06948853 C231.05462814 10.89751923 231.06151154 9.72554993 231.06860352 8.51806641 C231.06764175 7.48598053 231.06667999 6.45389465 231.06568909 5.39053345 C231.4375 2.8125 231.4375 2.8125 232.73789978 0.94418335 C234.4375 -0.1875 234.4375 -0.1875 238 0 C241.4375 0.8125 241.4375 0.8125 243.4375 2.8125 C243.69819641 5.2635498 243.69819641 5.2635498 243.7121582 8.38867188 C243.72169022 9.55748901 243.73122223 10.72630615 243.74104309 11.93054199 C243.73967598 13.83664246 243.73967598 13.83664246 243.73828125 15.78125 C243.74256638 17.08646606 243.7468515 18.39168213 243.75126648 19.7364502 C243.75873978 22.50728397 243.75843237 25.27799043 243.75317383 28.04882812 C243.74741991 31.57466705 243.76420437 35.09997365 243.7875185 38.62572479 C243.80594792 42.01092018 243.80206665 45.39600494 243.80078125 48.78125 C243.809991 50.03578979 243.81920074 51.29032959 243.82868958 52.58288574 C243.76252919 65.2655693 241.01717705 74.28438927 232.4375 83.8125 C221.00767171 94.20153266 207.8175556 94.25333741 193.16552734 94.18481445 C191.33616428 94.18724627 189.50680255 94.19096937 187.67744446 94.19587708 C182.73749461 94.20523491 177.79774466 94.19590449 172.8578105 94.18254495 C167.67438214 94.17117825 162.49096288 94.17534189 157.30752563 94.17729187 C148.60732786 94.17817304 139.90720826 94.16713018 131.20703125 94.14868164 C121.16234625 94.12750346 111.1177756 94.12400806 101.07307279 94.1302436 C91.38906881 94.13594635 81.70510492 94.1302817 72.02110672 94.11907005 C67.90889364 94.11443751 63.79670518 94.11354436 59.6844902 94.1156559 C54.84005007 94.11754534 49.99572563 94.10938461 45.15131187 94.0935955 C43.37804963 94.0893687 41.60477562 94.08849125 39.83151054 94.09128571 C26.20656986 94.1094933 14.35977099 93.78020488 3.6484375 84.21484375 C-2.96734094 77.03926867 -6.66256246 68.40546513 -6.72363281 58.71459961 C-6.73324036 57.48329819 -6.7428479 56.25199677 -6.75274658 54.98338318 C-6.75759309 53.64387192 -6.76187228 52.30435851 -6.765625 50.96484375 C-6.77137979 49.58769225 -6.77713748 48.21054076 -6.78289795 46.83338928 C-6.79338507 43.9510155 -6.79924359 41.06866945 -6.80273438 38.1862793 C-6.80823332 34.49170388 -6.8323002 30.79749435 -6.86070633 27.10303402 C-6.87931487 24.26089903 -6.8845372 21.41885283 -6.88607025 18.57666206 C-6.88909824 17.21427967 -6.89713177 15.85189889 -6.91025543 14.48957634 C-6.92728659 12.58679353 -6.92359511 10.68385921 -6.91894531 8.78100586 C-6.92259094 7.69830917 -6.92623657 6.61561249 -6.92999268 5.50010681 C-6.5625 2.8125 -6.5625 2.8125 -5.26287842 0.92774963 C-3.5625 -0.1875 -3.5625 -0.1875 0 0 Z " transform="translate(396.5625,741.1875)" style="fill: #2A383F;"/><path d="M0 0 C6.92476456 5.53981164 11.65362993 12.61767555 13.09765625 21.4609375 C13.46656369 30.71932426 10.80274559 38.0057211 5.03125 45.1875 C-1.8743002 52.3207057 -9.21357551 54.8356529 -18.96875 55 C-27.99971377 54.86726454 -34.37969497 52.26204041 -41.21875 46.3125 C-46.83415951 40.16482419 -49.65263899 32.44853432 -49.96875 24.1875 C-49.6958856 18.53109463 -48.30046847 14.21377151 -45.40625 9.375 C-44.99375 8.67503906 -44.58125 7.97507812 -44.15625 7.25390625 C-40.13871387 1.2161886 -34.38880356 -2.96414881 -27.484375 -5.265625 C-17.36103592 -7.01627762 -8.50597307 -5.7442935 0 0 Z " transform="translate(533.40625,585.625)" style="fill: #28343C;"/><path d="M0 0 C2.04291182 1.26660533 4.04690112 2.59886384 6 4 C10.25598462 5.34903398 14.58966585 5.70266341 19 5 C20.96586626 3.8618669 22.61909001 2.55532697 24.3828125 1.12890625 C26 0 26 0 29.0625 -0.5625 C32.7521648 0.14403156 35.03608729 1.74178079 38 4 C38 6.1875 38 6.1875 37 9 C32.35682482 12.97159373 26.71355908 15.06147103 21 17 C20.67 19.64 20.34 22.28 20 25 C20.61520508 24.98428955 21.23041016 24.9685791 21.86425781 24.95239258 C24.65941121 24.88992074 27.45441755 24.85097132 30.25 24.8125 C31.70212891 24.77479492 31.70212891 24.77479492 33.18359375 24.73632812 C34.58544922 24.72182617 34.58544922 24.72182617 36.015625 24.70703125 C36.87446289 24.6913208 37.73330078 24.67561035 38.61816406 24.65942383 C41.53034907 25.07583405 42.88027338 25.99046314 45 28 C45.5625 30.4375 45.5625 30.4375 45 33 C42.80188381 35.49331775 41.05448353 36.85232049 37.71459961 37.32006836 C35.02835014 37.39359105 32.37285641 37.34868448 29.6875 37.25 C28.29047852 37.22292969 28.29047852 37.22292969 26.86523438 37.1953125 C24.57575803 37.14834888 22.28841816 37.08269475 20 37 C21.63639872 46.4167726 21.63639872 46.4167726 27 54 C30.05366446 54.90510276 32.8896133 55.30391124 36.0625 55.55078125 C39.38594722 56.05902118 41.33486078 56.96734853 44 59 C44.5 62 44.5 62 44 65 C41.91466454 67.659281 40.26154621 68.49710912 36.9375 68.9375 C30.00418501 69.49171278 24.2535924 66.87799367 19 62.5 C17.29345435 60.36681793 16.02653469 58.51967607 15 56 C14.34 56 13.68 56 13 56 C12.62101563 56.89525391 12.62101563 56.89525391 12.234375 57.80859375 C9.29226232 63.0317748 2.46976739 66.94883723 -3 69 C-7.47488425 69.73077747 -10.35987342 69.29720163 -14.5 67.375 C-17 65 -17 65 -17.625 61.9375 C-17 59 -17 59 -15.33203125 57.37109375 C-12.50744322 55.71040632 -10.31075288 55.46088491 -7.0625 55.125 C-3.33102798 54.54394353 -1.19046608 54.11661189 2.0625 52.125 C4.97752207 47.42335151 5.94305349 42.38784927 7 37 C6.39003174 37.02094727 5.78006348 37.04189453 5.15161133 37.06347656 C2.37207706 37.14692861 -0.4071932 37.19875011 -3.1875 37.25 C-4.14720703 37.28351562 -5.10691406 37.31703125 -6.09570312 37.3515625 C-13.28921324 37.45112665 -13.28921324 37.45112665 -17.17578125 34.984375 C-17.77777344 34.32953125 -18.37976563 33.6746875 -19 33 C-18.64771728 30.39310784 -18.36057735 28.48602058 -16.77612305 26.3503418 C-14.38302798 24.53093165 -12.87817154 24.65529182 -9.89453125 24.70703125 C-8.91162109 24.71669922 -7.92871094 24.72636719 -6.91601562 24.73632812 C-5.89185547 24.76146484 -4.86769531 24.78660156 -3.8125 24.8125 C-2.25885742 24.83280273 -2.25885742 24.83280273 -0.67382812 24.85351562 C1.88463699 24.88888611 4.4420578 24.93824456 7 25 C7 22.03 7 19.06 7 16 C6.27554687 15.91363281 5.55109375 15.82726562 4.8046875 15.73828125 C-1.5563321 14.81381307 -5.77809965 14.02063825 -10 9 C-10.625 5.875 -10.625 5.875 -10 3 C-7.08305166 -0.36570962 -4.28871969 -0.60042076 0 0 Z " transform="translate(501,501)" style="fill: #27353A;"/><path d="M0 0 C35.64 0 71.28 0 108 0 C105.03298631 5.93402739 103.0115005 7.97123113 98.05859375 11.875 C95.59479896 14.41827204 95.01804559 16.65006237 94 20 C83.8819983 20.11575219 73.76415359 20.20464317 63.64562511 20.25906086 C58.94735041 20.2851763 54.24952802 20.32060942 49.55151367 20.37719727 C45.01923988 20.4314483 40.48740164 20.46140586 35.95482826 20.47438622 C34.22397311 20.48363861 32.49314231 20.50170637 30.76247215 20.52865028 C28.34136469 20.56485067 25.92206613 20.56994941 23.50073242 20.56762695 C22.42287476 20.59459152 22.42287476 20.59459152 21.32324219 20.62210083 C19.32194519 20.60127258 19.32194519 20.60127258 16 20 C14.17964172 17.59562683 14.17964172 17.59562683 13 15 C10.63819994 12.85704641 10.63819994 12.85704641 8 10.9375 C4.81132039 8.54124523 2.09791148 6.42980923 0 3 C0 2.01 0 1.02 0 0 Z " transform="translate(458,234)" style="fill: #DDDFE3;"/><path d="M0 0 C4.92345792 2.85256015 7.50848187 7.50351213 9.6875 12.625 C10.73349071 18.58714705 8.88005806 23.60422493 5.6875 28.625 C2.50170808 32.44481931 -0.51762189 34.31577006 -5.44140625 35.1640625 C-11.7129415 35.44021353 -16.61712617 34.91934934 -21.7265625 31.125 C-26.05125692 27.03464862 -28.08136174 22.85933656 -28.6875 17 C-28.57640183 10.96736925 -25.8655279 6.10871493 -21.5859375 1.9453125 C-15.15555364 -2.73854735 -7.29354319 -2.91462816 0 0 Z " transform="translate(524.3125,593.375)" style="fill: #E6E8EB;"/><path d="M0 0 C0.92776245 -0.00622879 1.8555249 -0.01245758 2.81140137 -0.01887512 C3.80627563 -0.00966537 4.8011499 -0.00045563 5.82617188 0.0090332 C6.8542395 0.0085347 7.88230713 0.00803619 8.94152832 0.00752258 C11.11354507 0.00986143 13.28556461 0.01957877 15.45751953 0.03613281 C18.78247306 0.05972612 22.10662464 0.05669197 25.43164062 0.05004883 C27.54232249 0.0556257 29.65300098 0.06273564 31.76367188 0.0715332 C32.75854614 0.0706218 33.75342041 0.06971039 34.77844238 0.06877136 C35.70620483 0.07830338 36.63396729 0.08783539 37.58984375 0.09765625 C38.40384644 0.10226364 39.21784912 0.10687103 40.05651855 0.11161804 C42.59990669 0.40783461 44.18498351 0.91650621 46.29492188 2.37231445 C47.04492188 5.99731445 47.04492188 5.99731445 47.29492188 9.37231445 C44.26168402 12.01557122 42.39866105 12.74927654 38.39038086 12.76049805 C36.93383339 12.77468277 36.93383339 12.77468277 35.44786072 12.78915405 C34.40610184 12.78308136 33.36434296 12.77700867 32.29101562 12.77075195 C30.67876854 12.77505722 30.67876854 12.77505722 29.03395081 12.77944946 C26.7635953 12.78148966 24.4932222 12.77596296 22.22290039 12.76342773 C18.74195216 12.74735845 15.26216234 12.7632867 11.78125 12.7824707 C9.57616931 12.78048857 7.37108933 12.77664552 5.16601562 12.77075195 C3.60034096 12.77986099 3.60034096 12.77986099 2.0030365 12.78915405 C1.03515701 12.77969757 0.06727753 12.77024109 -0.92993164 12.76049805 C-1.78168472 12.75811127 -2.63343781 12.75572449 -3.51100159 12.75326538 C-6.20766692 12.28505147 -7.09247901 11.55487065 -8.70507812 9.37231445 C-9.14257812 6.37231445 -9.14257812 6.37231445 -8.70507812 3.37231445 C-5.87109036 0.65122015 -3.88049554 -0.00300058 0 0 Z " transform="translate(494.705078125,653.627685546875)" style="fill: #2A373F;"/><path d="M0 0 C2.4375 1.625 2.4375 1.625 4 4 C4.5625 7.5 4.5625 7.5 4 11 C1.44296344 13.93307135 -0.16582071 14.86097012 -4 15.5 C-7.91058019 14.84823663 -9.45528778 14.06862356 -12 11 C-12.70337101 7.85751985 -12.72986997 5.13903426 -12 2 C-8.32768088 -1.78360152 -4.86917008 -1.32795548 0 0 Z " transform="translate(519,698)" style="fill: #213137;"/><path d="M0 0 C3 1.5625 3 1.5625 5 4 C5.125 7.5625 5.125 7.5625 4 11 C1.04414263 13.78198341 -0.56355026 14 -4.625 14 C-8 13 -8 13 -10 10.75 C-11.15949287 7.5613946 -11.16582954 6.16439447 -10 3 C-7.54573181 -0.95409876 -4.30606032 -0.51969694 0 0 Z " transform="translate(518,604)" style="fill: #28373B;"/><path d="M0 0 C35.64 0 71.28 0 108 0 C107.34 1.32 106.68 2.64 106 4 C105.21337982 3.67657623 104.42675964 3.35315247 103.61630249 3.01992798 C99.0419696 1.72980081 94.8680645 1.69233493 90.13916016 1.68115234 C89.16292694 1.67110672 88.18669373 1.6610611 87.18087769 1.65071106 C83.96694506 1.61991895 80.75309559 1.60285481 77.5390625 1.5859375 C75.30560594 1.56722268 73.07215643 1.54764903 70.8387146 1.5272522 C64.96978919 1.47595832 59.10084088 1.43631778 53.23181152 1.39910889 C47.23911889 1.35905214 41.24652137 1.30796738 35.25390625 1.2578125 C23.502671 1.16108564 11.75138202 1.07667038 0 1 C0 0.67 0 0.34 0 0 Z " transform="translate(458,234)" style="fill: #E6E2ED;"/><path d="M0 0 C0.66 0.33 1.32 0.66 2 1 C1 3 0 5 -1 7 C-1.61875 7.144375 -2.2375 7.28875 -2.875 7.4375 C-5.09402886 7.82093104 -5.09402886 7.82093104 -6.4375 9.5625 C-8 11 -8 11 -10.375 11.25 C-13 11 -13 11 -15.30541992 10.50415039 C-18.14692106 9.97251137 -20.85037641 9.79169714 -23.73828125 9.68359375 C-24.80498047 9.64169922 -25.87167969 9.59980469 -26.97070312 9.55664062 C-28.07349609 9.51732422 -29.17628906 9.47800781 -30.3125 9.4375 C-31.43462891 9.39431641 -32.55675781 9.35113281 -33.71289062 9.30664062 C-36.47514569 9.20085213 -39.2374863 9.09876328 -42 9 C-42 8.67 -42 8.34 -42 8 C-41.31075439 7.9906543 -40.62150879 7.98130859 -39.91137695 7.97167969 C-18.75733032 8.37416595 -18.75733032 8.37416595 0 0 Z " transform="translate(625,827)" style="fill: #E0DFE1;"/><path d="M0 0 C1.32 0.66 2.64 1.32 4 2 C1.08110447 5.28375747 -1.34889562 6.79049372 -5.5 8.1875 C-6.4384375 8.51105469 -7.376875 8.83460938 -8.34375 9.16796875 C-9.65859375 9.57982422 -9.65859375 9.57982422 -11 10 C-12.06734375 10.36544922 -12.06734375 10.36544922 -13.15625 10.73828125 C-15 11 -15 11 -18 9 C-17.49025635 8.76289307 -16.9805127 8.52578613 -16.45532227 8.28149414 C-14.15665983 7.21074407 -11.85956706 6.13666805 -9.5625 5.0625 C-8.76005859 4.68931641 -7.95761719 4.31613281 -7.13085938 3.93164062 C-6.36708984 3.57392578 -5.60332031 3.21621094 -4.81640625 2.84765625 C-4.10943604 2.51773682 -3.40246582 2.18781738 -2.67407227 1.84790039 C-1.0108841 1.11465443 -1.0108841 1.11465443 0 0 Z " transform="translate(452,407)" style="fill: #DFD9DB;"/><path d="M0 0 C2.475 0.495 2.475 0.495 5 1 C5 1.99 5 2.98 5 4 C8.3 4.33 11.6 4.66 15 5 C15.33 4.01 15.66 3.02 16 2 C16.66 2.66 17.32 3.32 18 4 C13.93272755 6.91832543 11.15084383 7.33790436 6.1875 7.1875 C4.44533203 7.14689453 4.44533203 7.14689453 2.66796875 7.10546875 C1.78753906 7.07066406 0.90710938 7.03585937 0 7 C0 4.69 0 2.38 0 0 Z " transform="translate(522,519)" style="fill: #EEEEF6;"/><path d="M0 0 C-0.125 2.3125 -0.125 2.3125 -1 5 C-3.75 6.9375 -3.75 6.9375 -7 8 C-9.875 7.1875 -9.875 7.1875 -12 6 C-12 8.31 -12 10.62 -12 13 C-12.33 13 -12.66 13 -13 13 C-13 10.36 -13 7.72 -13 5 C-11.21046815 4.16209211 -9.41830305 3.32980604 -7.625 2.5 C-6.62726562 2.0359375 -5.62953125 1.571875 -4.6015625 1.09375 C-2 0 -2 0 0 0 Z " transform="translate(534,513)" style="fill: #DFDDDD;"/><path d="M0 0 C0.33 0.66 0.66 1.32 1 2 C2.65 1.34 4.3 0.68 6 0 C4.59127675 3.36487781 3.00344528 5.05709457 0.0625 7.1875 C-0.97197266 7.95126953 -0.97197266 7.95126953 -2.02734375 8.73046875 C-4 10 -4 10 -7 11 C-7 10.01 -7 9.02 -7 8 C-6.0409375 7.6596875 -6.0409375 7.6596875 -5.0625 7.3125 C-2.72567164 6.15983399 -2.72567164 6.15983399 -2.375 3.4375 C-2.189375 2.2309375 -2.189375 2.2309375 -2 1 C-1.34 0.67 -0.68 0.34 0 0 Z " transform="translate(646,849)" style="fill: #1F362C;"/><path d="M0 0 C0.66 1.32 1.32 2.64 2 4 C0.56988027 4.86646667 -0.86940619 5.71781829 -2.3125 6.5625 C-3.51326172 7.27599609 -3.51326172 7.27599609 -4.73828125 8.00390625 C-7 9 -7 9 -10 8 C-8.76736651 4.30209954 -7.79947549 4.0645154 -4.4375 2.3125 C-3.61121094 1.87550781 -2.78492188 1.43851563 -1.93359375 0.98828125 C-1.29550781 0.66214844 -0.65742187 0.33601562 0 0 Z " transform="translate(535,633)" style="fill: #E3DDE3;"/><path d="M0 0 C0.98484375 0.02707031 1.9696875 0.05414062 2.984375 0.08203125 C3.73203125 0.11683594 4.4796875 0.15164063 5.25 0.1875 C1.9821794 2.36604707 -1.13058265 3.68510034 -4.75 5.1875 C-4.75 4.5275 -4.75 3.8675 -4.75 3.1875 C-6.4 3.1875 -8.05 3.1875 -9.75 3.1875 C-6.47698081 0.21840402 -4.36934238 -0.15604794 0 0 Z " transform="translate(514.75,591.8125)" style="fill: #DEDDDB;"/><path d="M0 0 C1.32 0.66 2.64 1.32 4 2 C-3.25 9.25 -3.25 9.25 -9 10 C-8.2575 9.278125 -7.515 8.55625 -6.75 7.8125 C-4.30709485 5.31407427 -2.1318953 2.76356798 0 0 Z " transform="translate(463,397)" style="fill: #DFDDDC;"/><path d="M0 0 C0.66 0.33 1.32 0.66 2 1 C1 3 0 5 -1 7 C-3.875 7.125 -3.875 7.125 -7 7 C-7.66 6.34 -8.32 5.68 -9 5 C-8.43410156 4.72285156 -7.86820313 4.44570313 -7.28515625 4.16015625 C-6.55167969 3.79792969 -5.81820312 3.43570313 -5.0625 3.0625 C-4.33160156 2.70285156 -3.60070312 2.34320312 -2.84765625 1.97265625 C-1.03750973 1.13628173 -1.03750973 1.13628173 0 0 Z " transform="translate(625,827)" style="fill: #DBD8D9;"/><path d="M0 0 C2.97 0.495 2.97 0.495 6 1 C6 1.99 6 2.98 6 4 C5.34 4 4.68 4 4 4 C3.67 4.99 3.34 5.98 3 7 C3 6.01 3 5.02 3 4 C1.68 3.67 0.36 3.34 -1 3 C-0.67 2.01 -0.34 1.02 0 0 Z " transform="translate(538,558)" style="fill: #1F2E38;"/><path d="M0 0 C-0.33 0.66 -0.66 1.32 -1 2 C-0.60061233 4.09821215 -0.60061233 4.09821215 0 6 C-1.32 6.33 -2.64 6.66 -4 7 C-4.103125 6.38125 -4.20625 5.7625 -4.3125 5.125 C-4.87525373 2.63473516 -4.87525373 2.63473516 -8 1 C-5.29120665 -0.35439668 -2.99066732 -0.06501451 0 0 Z " transform="translate(533,501)" style="fill: #2F3D44;"/><path d="M0 0 C0 3 0 3 -1.3125 4.5 C-1.869375 4.995 -2.42625 5.49 -3 6 C-3.556875 6.556875 -4.11375 7.11375 -4.6875 7.6875 C-5.3371875 8.3371875 -5.3371875 8.3371875 -6 9 C-7.32 8.34 -8.64 7.68 -10 7 C-6.7 4.69 -3.4 2.38 0 0 Z " transform="translate(422,423)" style="fill: #E0DBDB;"/><path d="M0 0 C0.97779038 3.91116153 1.11004184 4.67689187 -0.1875 8.1875 C-0.54908203 9.22970703 -0.54908203 9.22970703 -0.91796875 10.29296875 C-2 12 -2 12 -6 13 C-3.03 6.565 -3.03 6.565 0 0 Z " transform="translate(470,384)" style="fill: #D8DAD9;"/><path d="M0 0 C1.9375 0.3125 1.9375 0.3125 4 1 C4.33 1.99 4.66 2.98 5 4 C5.99 4.33 6.98 4.66 8 5 C7.01 5.99 6.02 6.98 5 8 C3 6 3 6 2 3 C1.34 2.67 0.68 2.34 0 2 C0 1.34 0 0.68 0 0 Z M8 4 C10 5 10 5 10 5 Z " transform="translate(455,247)" style="fill: #2F3A45;"/><path d="M0 0 C-1.26391488 1.00873016 -2.53640883 2.00671822 -3.8125 3 C-4.87404297 3.8353125 -4.87404297 3.8353125 -5.95703125 4.6875 C-8 6 -8 6 -11 6 C-11 5.34 -11 4.68 -11 4 C-10.01 4 -9.02 4 -8 4 C-7.67 3.01 -7.34 2.02 -7 1 C-2.55696203 -1.27848101 -2.55696203 -1.27848101 0 0 Z " transform="translate(627,826)" style="fill: #234231;"/><path d="M0 0 C2.64 0 5.28 0 8 0 C8 1.65 8 3.3 8 5 C1.125 2.25 1.125 2.25 0 0 Z " transform="translate(499,517)" style="fill: #F0EAF2;"/><path d="M0 0 C-3.75 2 -3.75 2 -6 2 C-6 2.66 -6 3.32 -6 4 C-7.65 4 -9.3 4 -11 4 C-10 1 -10 1 -8.3125 -0.25 C-5.26772958 -1.23749311 -3.08088616 -0.7002014 0 0 Z " transform="translate(435,420)" style="fill: #E4DDE2;"/><path d="M0 0 C2.02045442 0.60183749 4.02111039 1.27306096 6 2 C6.33 2.66 6.66 3.32 7 4 C7.99 4.66 8.98 5.32 10 6 C9.01 6.66 8.02 7.32 7 8 C5.83035398 6.8572081 4.66435444 5.71068285 3.5 4.5625 C2.8503125 3.92441406 2.200625 3.28632813 1.53125 2.62890625 C0 1 0 1 0 0 Z " transform="translate(620,433)" style="fill: #2C3B36;"/><path d="M0 0 C0.66 0 1.32 0 2 0 C0.54773858 3.82868919 -1.33318013 5.2538953 -5 7 C-6.32 7 -7.64 7 -9 7 C-7.72485508 4.44971017 -6.59658703 4.06918289 -4 3 C-3.01 3 -2.02 3 -1 3 C-0.67 2.01 -0.34 1.02 0 0 Z " transform="translate(535,630)" style="fill: #25402B;"/><path d="M0 0 C3 1 3 1 4.9375 3.4375 C6.91391935 5.89305131 8.12464744 6.87039721 11 8 C10.34 8.66 9.68 9.32 9 10 C7.49410612 8.71520959 5.99542625 7.42195918 4.5 6.125 C3.24703125 5.04605469 3.24703125 5.04605469 1.96875 3.9453125 C1.3190625 3.30335938 0.669375 2.66140625 0 2 C0 1.34 0 0.68 0 0 Z " transform="translate(490,627)" style="fill: #23392A;"/><path d="M0 0 C0.598125 0.20625 1.19625 0.4125 1.8125 0.625 C1.1525 2.275 0.4925 3.925 -0.1875 5.625 C-0.8475 5.625 -1.5075 5.625 -2.1875 5.625 C-3.8125 3.625 -3.8125 3.625 -5.1875 1.625 C-2.1875 -0.375 -2.1875 -0.375 0 0 Z " transform="translate(631.1875,824.375)" style="fill: #E3DEE2;"/><path d="M0 0 C2.475 0.495 2.475 0.495 5 1 C5 1.66 5 2.32 5 3 C7.475 3.99 7.475 3.99 10 5 C9.34 5.66 8.68 6.32 8 7 C2.25 3.375 2.25 3.375 0 0 Z " transform="translate(566,402)" style="fill: #2D4232;"/><path d="M0 0 C6.52307692 0.61538462 6.52307692 0.61538462 8.9375 2.5625 C9.288125 3.036875 9.63875 3.51125 10 4 C7 5 7 5 4 4 C3.67 3.34 3.34 2.68 3 2 C2.01 1.34 1.02 0.68 0 0 Z " transform="translate(512,697)" style="fill: #39424A;"/><path d="M0 0 C0 0.33 0 0.66 0 1 C-0.68707031 1.20496094 -1.37414062 1.40992188 -2.08203125 1.62109375 C-2.98308594 1.89050781 -3.88414062 2.15992188 -4.8125 2.4375 C-6.15248047 2.83775391 -6.15248047 2.83775391 -7.51953125 3.24609375 C-9.35473055 3.80387873 -11.18033726 4.39344575 -13 5 C-11.54545455 1.24242424 -11.54545455 1.24242424 -9.3125 0.25 C-6.19853938 -0.08664439 -3.12892809 -0.06017169 0 0 Z " transform="translate(517,590)" style="fill: #22382D;"/><path d="M0 0 C-0.3125 1.875 -0.3125 1.875 -1 4 C-1.99 4.66 -2.98 5.32 -4 6 C-4.99 5.67 -5.98 5.34 -7 5 C-7 4.34 -7 3.68 -7 3 C-2.61538462 0 -2.61538462 0 0 0 Z " transform="translate(546,566)" style="fill: #E5E3DF;"/><path d="M0 0 C2.56687367 3.8503105 1.83288724 5.58569763 1 10 C0.34 9.67 -0.32 9.34 -1 9 C-1.09765625 2.84765625 -1.09765625 2.84765625 -1 1 C-0.67 0.67 -0.34 0.34 0 0 Z " transform="translate(497,605)" style="fill: #DDE0E3;"/><path d="M0 0 C2.5 1.25 2.5 1.25 5 3 C5 4.32 5 5.64 5 7 C3.68 6.67 2.36 6.34 1 6 C0.67 4.02 0.34 2.04 0 0 Z " transform="translate(534,502)" style="fill: #333E45;"/><path d="M0 0 C7.57142857 1.85714286 7.57142857 1.85714286 10 5 C9.01 5.495 9.01 5.495 8 6 C1.29411765 2.58823529 1.29411765 2.58823529 0 0 Z " transform="translate(614,428)" style="fill: #24352D;"/><path d="M0 0 C0.66 0 1.32 0 2 0 C0.50902342 3.7952131 -1.75700849 5.61042731 -5 8 C-5 6.68 -5 5.36 -5 4 C-4.0409375 3.8453125 -4.0409375 3.8453125 -3.0625 3.6875 C-2.381875 3.460625 -1.70125 3.23375 -1 3 C-0.67 2.01 -0.34 1.02 0 0 Z " transform="translate(461,397)" style="fill: #2C4030;"/><path d="M0 0 C0.33 0.66 0.66 1.32 1 2 C1.66 2.33 2.32 2.66 3 3 C3 4.32 3 5.64 3 7 C2.01 7.33 1.02 7.66 0 8 C-1.09658936 4.71023192 -0.79953138 3.28696233 0 0 Z " transform="translate(524,703)" style="fill: #EEEEF0;"/><path d="M0 0 C0.66 0.33 1.32 0.66 2 1 C0.68 3.97 -0.64 6.94 -2 10 C-2.66 10 -3.32 10 -4 10 C-2.99806563 6.20696275 -2.18975773 3.28463659 0 0 Z " transform="translate(489,593)" style="fill: #3A3F45;"/><path d="M0 0 C1.98 0 3.96 0 6 0 C6 0.66 6 1.32 6 2 C6.66 2.33 7.32 2.66 8 3 C5.03 3 2.06 3 -1 3 C-0.67 2.01 -0.34 1.02 0 0 Z " transform="translate(494,498)" style="fill: #ECEAF4;"/><path d="M0 0 C0.66 0 1.32 0 2 0 C4 5.625 4 5.625 4 9 C3.01 8.34 2.02 7.68 1 7 C0.3125 3.375 0.3125 3.375 0 0 Z " transform="translate(507,608)" style="fill: #384645;"/><path d="M0 0 C1.98 0.99 3.96 1.98 6 3 C4.625 4.5 4.625 4.5 3 6 C2.34 6 1.68 6 1 6 C0.67 4.02 0.34 2.04 0 0 Z " transform="translate(602,421)" style="fill: #DFDDDB;"/><path d="M0 0 C2.00720923 0.28674418 4.0085944 0.61866701 6 1 C6.33 2.32 6.66 3.64 7 5 C1.25 3.25 1.25 3.25 -1 1 C-0.67 0.67 -0.34 0.34 0 0 Z " transform="translate(577,408)" style="fill: #354B3B;"/><path d="M0 0 C1.98 0.66 3.96 1.32 6 2 C6 2.99 6 3.98 6 5 C3.69 4.01 1.38 3.02 -1 2 C-0.67 1.34 -0.34 0.68 0 0 Z " transform="translate(587,412)" style="fill: #334939;"/><path d="M0 0 C1.32 0.66 2.64 1.32 4 2 C1.6875 3.5625 1.6875 3.5625 -1 5 C-1.99 4.67 -2.98 4.34 -4 4 C-2.68 2.68 -1.36 1.36 0 0 Z " transform="translate(422,406)" style="fill: #DEDEE8;"/></svg>